{
.appVersion = "3343";
.formatVersion = 3;
DisplayStrings = (
"“”&©€£
“”&©c€£££2
£500.005

©2025",
"“”&©€€C",
smse,
"‚,„‘“’”‘’",
"vault
lkflkflkflkf
lkflkflk",
"‚„‘“’”‘’",
"‚“”
‚“”
 ",
"‚",
">X50%",
"®",
"%",
"ĄÆ̌Ňæe&*™

no strings attached*
no strings attached*
×÷↓
\"″Ě",
"... .…9",
"″",
"←go this way?

attackf",
"←",
"↑→↓←",
">X<",
",;",
";",
"‘semester’s
semester’s",
a,
"?¿",
"AÁÂÄÀĄÅÃÆBCĆČÇDĎEÉ/Ecaron. ĚÊËÈĘFGHIÍÎÏÌJKLĹĽŁMNŃŇÑOÓÔÖÒŐØÕŒPQRŔŘSŚŠẞTŤUÚÛÜÙŰŮVWXYÝŸZŹŽŻaáâäàąåãæbcćčçdďeéěêëèęfghiıíîïìjȷklĺľłmnńňñoóôöòőøõœpqrŕřsśšßtťuúûüùűůvwxyýÿzźžż0123456789 .,:;…!¡?¿·•*#///backslash -–—_(){}[]‚„“”‘’«»‹›\"'@&©®™″|$€£+−×÷=><%↑→↓←̈̇̀́̋̂̌̊̃"
);
axes = (
{
name = Weight;
tag = wght;
}
);
date = "2025-06-22 16:38:40 +0000";
familyName = Juncture;
fontMaster = (
{
axesValues = (
100
);
iconName = Light_SemiExtended;
id = m004;
metricValues = (
{
pos = 680;
},
{
over = 12;
pos = 650;
},
{
over = 12;
pos = 450;
},
{
over = -12;
},
{
over = -12;
pos = -200;
},
{
}
);
name = thin;
userData = {
GSCornerRadius = 15;
GSOffsetHorizontal = -36;
GSOffsetVertical = -36;
"Letterink-NibData" = {
AngleInDegrees = 45;
MainAxisWidth = 30;
MinorAxisWidth = 15;
};
};
visible = 1;
},
{
axesValues = (
600
);
id = m002;
metricValues = (
{
pos = 680;
},
{
over = 12;
pos = 650;
},
{
over = 12;
pos = 450;
},
{
over = -12;
},
{
over = -12;
pos = -200;
},
{
}
);
name = semibold;
userData = {
GSCornerRadius = 5;
GSExtrudeAngle = 30;
GSExtrudeOffset = 15;
GSOffsetHorizontal = 15;
GSOffsetVertical = 10;
"Letterink-NibData" = {
AngleInDegrees = 45;
MainAxisWidth = 30;
MinorAxisWidth = 15;
};
};
}
);
glyphs = (
{
glyphname = A;
lastChange = "2025-09-11 10:04:44 +0000";
layers = (
{
anchors = (
{
name = bottom;
pos = (300,0);
},
{
name = ogonek;
pos = (544,10);
},
{
name = top;
pos = (300,650);
}
);
layerId = m002;
shapes = (
{
closed = 1;
nodes = (
(354,650,l),
(246,650,l),
(19,0,l),
(121,0,l),
(170,141,l),
(421,141,l),
(470,0,l),
(581,0,l)
);
},
{
closed = 1;
nodes = (
(296,506,l),
(392,226,l),
(199,226,l)
);
}
);
width = 600;
},
{
anchors = (
{
name = bottom;
pos = (277,0);
},
{
name = ogonek;
pos = (499,0);
},
{
name = top;
pos = (277,650);
}
);
layerId = m004;
shapes = (
{
closed = 1;
nodes = (
(298,650,l),
(257,650,l),
(20,0,l),
(60,0,l),
(133,200,l),
(421,200,l),
(494,0,l),
(534,0,l)
);
},
{
closed = 1;
nodes = (
(277,594,l),
(410,230,l),
(144,230,l)
);
}
);
width = 554;
}
);
metricRight = "=|";
unicode = 65;
},
{
glyphname = AE;
lastChange = "2025-09-12 09:50:10 +0000";
layers = (
{
anchors = (
{
name = bottom;
pos = (416,0);
},
{
name = top;
pos = (416,650);
}
);
background = {
anchors = (
{
name = bottom;
pos = (300,0);
},
{
name = top;
pos = (300,650);
}
);
shapes = (
{
closed = 1;
nodes = (
(430,0,l),
(843,0,l),
(843,95,l),
(542,95,l),
(542,290,l),
(716,290,l),
(716,385,l),
(542,385,l),
(542,555,l),
(843,555,l),
(843,650,l),
(430,650,l)
);
},
{
closed = 1;
nodes = (
(143,0,l),
(547,650,l),
(428,650,l),
(21,0,l)
);
},
{
closed = 1;
nodes = (
(536,222,l),
(184,222,l),
(184,127,l),
(536,127,l)
);
}
);
};
layerId = m004;
shapes = (
{
closed = 1;
nodes = (
(60,0,l),
(192,210,l),
(427,210,l),
(427,0,l),
(837,0,l),
(837,32,l),
(463,32,l),
(463,322,l),
(700,322,l),
(700,354,l),
(463,354,l),
(463,618,l),
(837,618,l),
(837,650,l),
(427,650,l),
(20,0,l)
);
},
{
closed = 1;
nodes = (
(427,585,l),
(427,240,l),
(211,240,l)
);
}
);
width = 831;
},
{
anchors = (
{
name = bottom;
pos = (418,0);
},
{
name = top;
pos = (418,650);
}
);
layerId = m002;
shapes = (
{
closed = 1;
nodes = (
(116,0,l),
(195,127,l),
(406,127,l),
(406,0,l),
(816,0,l),
(816,95,l),
(515,95,l),
(515,290,l),
(689,290,l),
(689,385,l),
(515,385,l),
(515,555,l),
(816,555,l),
(816,650,l),
(407,650,l),
(0,0,l)
);
},
{
closed = 1;
nodes = (
(405,465,l),
(406,222,l),
(254,222,l)
);
}
);
width = 856;
}
);
metricRight = "=E";
unicode = 198;
},
{
glyphname = B;
lastChange = "2025-09-10 08:51:20 +0000";
layers = (
{
anchors = (
{
name = bottom;
pos = (286,0);
},
{
name = center;
pos = (143,163);
},
{
name = top;
pos = (286,650);
}
);
layerId = m002;
shapes = (
{
closed = 1;
nodes = (
(322,0,ls),
(464,0,o),
(528,52,o),
(528,189,cs),
(528,292,o),
(485,343,o),
(407,368,c),
(449,389,o),
(468,427,o),
(468,491,cs),
(468,597,o),
(413,650,o),
(298,650,cs),
(70,650,l),
(70,0,l)
);
},
{
closed = 1;
nodes = (
(176,305,l),
(321,305,ls),
(403,305,o),
(428,270,o),
(428,195,cs),
(428,120,o),
(403,85,o),
(321,85,cs),
(176,85,l)
);
},
{
closed = 1;
nodes = (
(176,565,l),
(283,565,ls),
(352,565,o),
(368,525,o),
(368,478,cs),
(368,427,o),
(353,391,o),
(283,390,c),
(176,390,l)
);
}
);
width = 563;
},
{
anchors = (
{
name = bottom;
pos = (277,0);
},
{
name = center;
pos = (138,163);
},
{
name = top;
pos = (277,650);
}
);
layerId = m004;
shapes = (
{
closed = 1;
nodes = (
(324,0,ls),
(441,0,o),
(504,59,o),
(504,181,cs),
(504,326,o),
(421,352,o),
(367,356,c),
(410,364,o),
(435,421,o),
(435,491,cs),
(435,561,o),
(416,650,o),
(275,650,cs),
(84,650,l),
(84,0,l)
);
},
{
closed = 1;
nodes = (
(120,332,l),
(332,332,ls),
(414,332,o),
(468,286,o),
(468,181,cs),
(468,85,o),
(421,32,o),
(332,32,cs),
(120,32,l)
);
},
{
closed = 1;
nodes = (
(120,618,l),
(278,618,ls),
(382,618,o),
(399,551,o),
(399,491,cs),
(399,444,o),
(382,364,o),
(278,364,cs),
(120,364,l)
);
}
);
width = 564;
}
);
metricLeft = "=H";
metricRight = "=O";
unicode = 66;
},
{
glyphname = C;
lastChange = "2025-09-10 09:08:37 +0000";
layers = (
{
anchors = (
{
name = bottom;
pos = (255,0);
},
{
name = top;
pos = (255,650);
}
);
layerId = m002;
shapes = (
{
closed = 1;
nodes = (
(430,-10,o),
(592,39,o),
(592,203,c),
(489,203,l),
(489,101,o),
(391,78,o),
(326,78,cs),
(195,78,o),
(135,162,o),
(135,326,cs),
(135,490,o),
(195,574,o),
(326,574,cs),
(391,574,o),
(489,551,o),
(489,449,c),
(592,449,l),
(592,618,o),
(430,662,o),
(325,662,cs),
(140,662,o),
(35,563,o),
(35,326,cs),
(35,94,o),
(140,-10,o),
(325,-10,cs)
);
}
);
width = 627;
},
{
anchors = (
{
name = bottom;
pos = (263,0);
},
{
name = top;
pos = (263,650);
}
);
background = {
shapes = (
{
closed = 1;
nodes = (
(201,17,o),
(99,105,o),
(99,325,cs),
(99,544,o),
(201,633,o),
(334,634,cs),
(467,633,o),
(569,544,o),
(569,325,cs),
(569,105,o),
(467,17,o),
(334,16,cs)
);
},
{
closed = 1;
nodes = (
(494,-16,o),
(608,83,o),
(608,325,cs),
(608,567,o),
(494,666,o),
(334,666,cs),
(175,666,o),
(60,567,o),
(60,325,cs),
(60,83,o),
(175,-16,o),
(334,-16,cs)
);
}
);
};
layerId = m004;
shapes = (
{
closed = 1;
nodes = (
(478,-12,o),
(573,76,o),
(573,200,c),
(539,200,l),
(539,75,o),
(427,20,o),
(329,20,cs),
(188,20,o),
(99,125,o),
(99,325,cs),
(99,525,o),
(188,630,o),
(329,630,cs),
(427,630,o),
(539,575,o),
(539,450,c),
(573,450,l),
(573,574,o),
(480,662,o),
(329,662,cs),
(175,662,o),
(60,567,o),
(60,325,cs),
(60,83,o),
(175,-12,o),
(329,-12,cs)
);
}
);
width = 633;
}
);
metricLeft = O;
metricRight = O;
unicode = 67;
},
{
glyphname = D;
lastChange = "2025-09-11 10:43:18 +0000";
layers = (
{
anchors = (
{
name = bottom;
pos = (314,0);
},
{
name = center;
pos = (157,325);
},
{
name = top;
pos = (314,650);
}
);
layerId = m002;
shapes = (
{
closed = 1;
nodes = (
(70,0,l),
(294,0,ls),
(454,0,o),
(577,82,o),
(577,323,cs),
(577,558,o),
(454,650,o),
(294,650,cs),
(70,650,l)
);
},
{
closed = 1;
nodes = (
(174,565,l),
(292,565,ls),
(405,565,o),
(477,490,o),
(477,323,cs),
(477,151,o),
(405,85,o),
(292,85,cs),
(174,85,l)
);
}
);
width = 612;
},
{
anchors = (
{
name = bottom;
pos = (310,0);
},
{
name = center;
pos = (155,325);
},
{
name = top;
pos = (310,650);
}
);
layerId = m004;
shapes = (
{
closed = 1;
nodes = (
(84,0,l),
(297,0,ls),
(457,0,o),
(560,82,o),
(560,323,cs),
(560,558,o),
(457,650,o),
(297,650,cs),
(84,650,l)
);
},
{
closed = 1;
nodes = (
(120,618,l),
(295,618,ls),
(448,618,o),
(521,520,o),
(521,323,cs),
(521,121,o),
(448,32,o),
(295,32,cs),
(120,32,l)
);
}
);
width = 620;
}
);
metricLeft = "=H";
metricRight = "=O";
unicode = 68;
},
{
glyphname = E;
lastChange = "2025-09-10 08:51:20 +0000";
layers = (
{
anchors = (
{
name = bottom;
pos = (282,0);
},
{
name = ogonek;
pos = (507,10);
},
{
name = top;
pos = (282,650);
},
{
name = topleft;
pos = (20,650);
}
);
layerId = m002;
shapes = (
{
closed = 1;
nodes = (
(70,0,l),
(523,0,l),
(523,85,l),
(176,85,l),
(176,295,l),
(396,295,l),
(396,380,l),
(176,380,l),
(176,565,l),
(523,565,l),
(523,650,l),
(70,650,l)
);
}
);
width = 563;
},
{
anchors = (
{
name = bottom;
pos = (244,0);
},
{
name = ogonek;
pos = (439,10);
},
{
name = top;
pos = (244,650);
},
{
name = topleft;
pos = (20,650);
}
);
layerId = m004;
shapes = (
{
closed = 1;
nodes = (
(84,0,l),
(494,0,l),
(494,32,l),
(120,32,l),
(120,322,l),
(357,322,l),
(357,354,l),
(120,354,l),
(120,618,l),
(494,618,l),
(494,650,l),
(84,650,l)
);
}
);
width = 488;
}
);
metricLeft = "=H";
unicode = 69;
},
{
glyphname = F;
lastChange = "2025-09-10 08:51:20 +0000";
layers = (
{
anchors = (
{
name = bottom;
pos = (277,0);
},
{
name = top;
pos = (277,650);
}
);
layerId = m002;
shapes = (
{
closed = 1;
nodes = (
(70,0,l),
(176,0,l),
(176,265,l),
(416,265,l),
(416,350,l),
(176,350,l),
(176,565,l),
(523,565,l),
(523,650,l),
(70,650,l)
);
}
);
width = 554;
},
{
anchors = (
{
name = bottom;
pos = (242,0);
},
{
name = top;
pos = (242,650);
}
);
layerId = m004;
shapes = (
{
closed = 1;
nodes = (
(84,0,l),
(120,0,l),
(120,291,l),
(387,291,l),
(387,323,l),
(120,323,l),
(120,618,l),
(504,618,l),
(504,650,l),
(84,650,l)
);
}
);
width = 484;
}
);
metricLeft = "=H";
unicode = 70;
},
{
glyphname = G;
lastChange = "2025-09-10 08:58:44 +0000";
layers = (
{
anchors = (
{
name = bottom;
pos = (319,0);
},
{
name = top;
pos = (319,650);
}
);
background = {
shapes = (
{
closed = 0;
nodes = (
(135,325,ls),
(135,490,o),
(195,574,o),
(326,574,cs),
(411,574,o),
(489,541,o),
(489,449,c),
(592,449,l),
(592,608,o),
(450,662,o),
(325,662,cs),
(140,662,o),
(35,563,o),
(35,325,cs)
);
}
);
};
guides = (
{
pos = (303,-100);
}
);
layerId = m002;
shapes = (
{
closed = 1;
nodes = (
(410,-12,o),
(477,33,o),
(476,45,c),
(486,-2,l),
(581,-2,l),
(581,326,l),
(360,326,l),
(360,231,l),
(476,231,l),
(475,157,ls),
(475,144,o),
(430,76,o),
(328,76,cs),
(243,76,o),
(135,119,o),
(135,325,cs),
(135,490,o),
(195,574,o),
(326,574,cs),
(401,574,o),
(478,541,o),
(478,449,c),
(581,449,l),
(581,608,o),
(440,662,o),
(325,662,cs),
(140,662,o),
(35,563,o),
(35,325,cs),
(35,48,o),
(190,-12,o),
(299,-12,cs)
);
}
);
width = 641;
},
{
anchors = (
{
name = bottom;
pos = (321,0);
},
{
name = top;
pos = (321,650);
}
);
background = {
shapes = (
{
closed = 0;
nodes = (
(599,325,ls),
(599,525,o),
(510,631,o),
(349,630,cs)
);
},
{
closed = 0;
nodes = (
(349,662,ls),
(523,662,o),
(638,567,o),
(638,325,cs)
);
}
);
};
layerId = m004;
shapes = (
{
closed = 1;
nodes = (
(401,-16,o),
(483,20,o),
(532,93,c),
(532,-2,l),
(568,-2,l),
(568,326,l),
(395,326,l),
(395,294,l),
(532,294,l),
(532,174,l),
(512,109,o),
(447,17,o),
(335,16,cs),
(189,15,o),
(99,119,o),
(99,325,cs),
(99,525,o),
(188,630,o),
(329,630,cs),
(452,630,o),
(539,585,o),
(539,450,c),
(573,450,l),
(573,584,o),
(503,662,o),
(329,662,cs),
(175,662,o),
(60,567,o),
(60,325,cs),
(60,83,o),
(175,-16,o),
(329,-16,cs)
);
}
);
width = 647;
}
);
metricLeft = "=O";
metricRight = "=H-10";
unicode = 71;
},
{
glyphname = H;
lastChange = "2025-09-11 10:50:42 +0000";
layers = (
{
anchors = (
{
name = bottom;
pos = (318,0);
},
{
name = center;
pos = (318,488);
},
{
name = top;
pos = (318,650);
},
{
name = topleft;
pos = (20,650);
}
);
layerId = m002;
shapes = (
{
closed = 1;
nodes = (
(70,2,l),
(175,2,l),
(175,291,l),
(469,291,l),
(469,2,l),
(574,2,l),
(574,650,l),
(469,650,l),
(469,376,l),
(175,376,l),
(175,650,l),
(70,650,l)
);
}
);
width = 644;
},
{
anchors = (
{
name = bottom;
pos = (314,0);
},
{
name = center;
pos = (314,488);
},
{
name = top;
pos = (314,650);
},
{
name = topleft;
pos = (20,650);
}
);
layerId = m004;
shapes = (
{
closed = 1;
nodes = (
(84,2,l),
(120,2,l),
(120,317,l),
(508,317,l),
(508,2,l),
(544,2,l),
(544,650,l),
(508,650,l),
(508,349,l),
(120,349,l),
(120,650,l),
(84,650,l)
);
}
);
width = 628;
}
);
metricRight = "=|";
unicode = 72;
},
{
glyphname = I;
lastChange = "2025-09-11 10:50:51 +0000";
layers = (
{
anchors = (
{
name = bottom;
pos = (126,0);
},
{
name = ogonek;
pos = (227,10);
},
{
name = top;
pos = (126,650);
},
{
name = topleft;
pos = (20,650);
}
);
layerId = m002;
shapes = (
{
closed = 1;
nodes = (
(70,650,l),
(70,0,l),
(175,0,l),
(175,650,l)
);
}
);
width = 245;
},
{
anchors = (
{
name = bottom;
pos = (102,0);
},
{
name = ogonek;
pos = (184,10);
},
{
name = top;
pos = (102,650);
},
{
name = topleft;
pos = (20,650);
}
);
layerId = m004;
shapes = (
{
closed = 1;
nodes = (
(84,650,l),
(84,0,l),
(120,0,l),
(120,650,l)
);
}
);
width = 204;
}
);
metricLeft = H;
metricRight = H;
unicode = 73;
},
{
glyphname = J;
lastChange = "2025-09-11 11:04:18 +0000";
layers = (
{
anchors = (
{
name = bottom;
pos = (261,0);
},
{
name = top;
pos = (261,650);
}
);
layerId = m002;
shapes = (
{
closed = 1;
nodes = (
(310,-12,o),
(394,27,o),
(394,177,cs),
(394,650,l),
(290,650,l),
(290,177,ls),
(290,96,o),
(252,73,o),
(204,73,cs),
(156,73,o),
(116,96,o),
(116,177,c),
(116,197,l),
(14,197,l),
(14,177,l),
(14,27,o),
(98,-12,o),
(204,-12,cs)
);
}
);
width = 464;
},
{
anchors = (
{
name = bottom;
pos = (137,0);
},
{
name = top;
pos = (137,650);
}
);
layerId = m004;
shapes = (
{
closed = 1;
nodes = (
(261,-12,o),
(312,29,o),
(312,158,cs),
(312,650,l),
(276,650,l),
(276,158,ls),
(276,60,o),
(244,20,o),
(165,20,cs),
(86,20,o),
(54,60,o),
(54,158,c),
(54,197,l),
(18,197,l),
(18,158,l),
(18,29,o),
(69,-12,o),
(165,-12,cs)
);
}
);
width = 396;
}
);
metricRight = "=H";
unicode = 74;
},
{
glyphname = K;
lastChange = "2025-09-11 11:04:45 +0000";
layers = (
{
anchors = (
{
name = bottom;
pos = (313,0);
},
{
name = top;
pos = (313,650);
}
);
layerId = m002;
shapes = (
{
closed = 1;
nodes = (
(70,1,l),
(176,1,l),
(176,251,l),
(146,173,l),
(313,358,l),
(260,364,l),
(472,0,l),
(594,0,l),
(334,446,l),
(327,374,l),
(576,650,l),
(445,650,l),
(146,311,l),
(176,300,l),
(176,650,l),
(70,650,l)
);
}
);
width = 615;
},
{
anchors = (
{
name = bottom;
pos = (291,0);
},
{
name = top;
pos = (291,650);
}
);
layerId = m004;
shapes = (
{
closed = 1;
nodes = (
(84,1,l),
(120,1,l),
(120,275,l),
(91,196,l),
(275,412,l),
(236,394,l),
(485,0,l),
(525,0,l),
(254,429,l),
(240,371,l),
(477,650,l),
(432,650,l),
(91,247,l),
(120,236,l),
(120,650,l),
(84,650,l)
);
}
);
width = 582;
}
);
metricLeft = "=H";
unicode = 75;
},
{
glyphname = L;
lastChange = "2025-09-12 09:45:59 +0000";
layers = (
{
anchors = (
{
name = bottom;
pos = (252,0);
},
{
name = center;
pos = (252,325);
},
{
name = top;
pos = (252,650);
},
{
name = topright;
pos = (484,650);
}
);
layerId = m002;
shapes = (
{
closed = 1;
nodes = (
(483,0,l),
(483,95,l),
(176,95,l),
(176,650,l),
(70,650,l),
(70,0,l)
);
}
);
width = 504;
},
{
anchors = (
{
name = bottom;
pos = (247,0);
},
{
name = center;
pos = (247,325);
},
{
name = top;
pos = (247,650);
},
{
name = topright;
pos = (473,650);
}
);
layerId = m004;
shapes = (
{
closed = 1;
nodes = (
(407,0,l),
(407,32,l),
(120,32,l),
(120,650,l),
(84,650,l),
(84,0,l)
);
}
);
width = 453;
}
);
metricLeft = "=H";
unicode = 76;
},
{
glyphname = Lcaron;
lastChange = "2025-09-11 10:26:15 +0000";
layers = (
{
layerId = m004;
shapes = (
{
ref = L;
},
{
closed = 1;
nodes = (
(168,480,l),
(194,480,l),
(235,650,l),
(194,650,l)
);
}
);
width = 453;
},
{
layerId = m002;
shapes = (
{
ref = L;
},
{
closed = 1;
nodes = (
(232,450,l),
(302,450,l),
(383,650,l),
(278,650,l)
);
}
);
width = 504;
}
);
unicode = 317;
},
{
glyphname = Lslash;
lastChange = "2025-09-11 09:58:40 +0000";
layers = (
{
layerId = m004;
shapes = (
{
ref = L;
},
{
closed = 1;
nodes = (
(282,323,l),
(282,355,l),
(5,245,l),
(5,213,l)
);
}
);
width = 453;
},
{
layerId = m002;
shapes = (
{
ref = L;
},
{
closed = 1;
nodes = (
(353,321,l),
(353,413,l),
(5,275,l),
(5,183,l)
);
}
);
width = 504;
}
);
unicode = 321;
},
{
glyphname = M;
lastChange = "2025-09-12 09:46:11 +0000";
layers = (
{
anchors = (
{
name = bottom;
pos = (411,0);
},
{
name = top;
pos = (411,650);
}
);
layerId = m002;
shapes = (
{
closed = 1;
nodes = (
(174,1,l),
(174,457,l),
(158,463,l),
(351,0,l),
(459,0,l),
(652,463,l),
(636,457,l),
(636,1,l),
(740,1,l),
(740,650,l),
(634,650,l),
(388,89,l),
(422,89,l),
(176,650,l),
(70,650,l),
(70,1,l)
);
}
);
width = 810;
},
{
anchors = (
{
name = bottom;
pos = (402,0);
},
{
name = top;
pos = (402,650);
}
);
layerId = m004;
shapes = (
{
closed = 1;
nodes = (
(116,0,l),
(116,624,l),
(98,620,l),
(376,0,l),
(388,0,l),
(666,620,l),
(648,624,l),
(648,0,l),
(680,0,l),
(680,650,l),
(648,650,l),
(374,38,l),
(390,38,l),
(116,650,l),
(84,650,l),
(84,0,l)
);
}
);
width = 764;
}
);
metricLeft = H;
metricRight = H;
unicode = 77;
},
{
glyphname = N;
lastChange = "2025-09-11 11:10:30 +0000";
layers = (
{
anchors = (
{
name = bottom;
pos = (334,0);
},
{
name = top;
pos = (334,650);
}
);
layerId = m002;
shapes = (
{
closed = 1;
nodes = (
(70,0,l),
(174,0,l),
(174,513,l),
(152,513,l),
(488,0,l),
(592,0,l),
(592,650,l),
(488,650,l),
(488,133,l),
(510,132,l),
(174,650,l),
(70,650,l)
);
}
);
width = 662;
},
{
anchors = (
{
name = bottom;
pos = (352,0);
},
{
name = top;
pos = (352,650);
}
);
layerId = m004;
shapes = (
{
closed = 1;
nodes = (
(84,0,l),
(120,0,l),
(120,630,l),
(92,623,l),
(584,0,l),
(620,0,l),
(620,650,l),
(584,650,l),
(584,20,l),
(612,27,l),
(120,650,l),
(84,650,l)
);
}
);
width = 704;
}
);
metricLeft = H;
metricRight = "=|";
unicode = 78;
},
{
glyphname = O;
lastChange = "2025-09-12 09:47:05 +0000";
layers = (
{
anchors = (
{
name = bottom;
pos = (334,0);
},
{
name = center;
pos = (334,325);
},
{
name = ogonek;
pos = (609,10);
},
{
name = top;
pos = (334,650);
},
{
name = topleft;
pos = (10,650);
},
{
name = topright;
pos = (658,650);
}
);
background = {
shapes = (
{
closed = 0;
nodes = (
(334,574,l),
(447,573,o),
(533,521,o),
(533,325,cs)
);
},
{
closed = 1;
nodes = (
(221,77,o),
(135,129,o),
(135,325,cs),
(135,521,o),
(221,573,o),
(334,574,cs),
(447,573,o),
(533,521,o),
(533,325,cs),
(533,129,o),
(447,77,o),
(334,76,cs)
);
}
);
};
layerId = m002;
shapes = (
{
closed = 1;
nodes = (
(494,-12,o),
(633,63,o),
(633,325,cs),
(633,587,o),
(494,662,o),
(334,662,cs),
(175,662,o),
(35,587,o),
(35,325,cs),
(35,63,o),
(175,-12,o),
(334,-12,cs)
);
},
{
closed = 1;
nodes = (
(221,77,o),
(135,129,o),
(135,325,cs),
(135,521,o),
(221,573,o),
(334,574,c),
(447,573,o),
(533,521,o),
(533,325,cs),
(533,129,o),
(447,77,o),
(333,77,cs)
);
}
);
width = 668;
},
{
anchors = (
{
name = bottom;
pos = (334,0);
},
{
name = center;
pos = (334,325);
},
{
name = ogonek;
pos = (601,10);
},
{
name = top;
pos = (334,650);
},
{
name = topleft;
pos = (20,650);
},
{
name = topright;
pos = (648,650);
}
);
layerId = m004;
shapes = (
{
closed = 1;
nodes = (
(494,-16,o),
(608,63,o),
(608,325,cs),
(608,587,o),
(494,666,o),
(334,666,cs),
(175,666,o),
(60,587,o),
(60,325,cs),
(60,63,o),
(175,-16,o),
(334,-16,cs)
);
},
{
closed = 1;
nodes = (
(201,17,o),
(99,85,o),
(99,325,cs),
(99,564,o),
(201,633,o),
(334,634,cs),
(467,633,o),
(569,564,o),
(569,325,cs),
(569,85,o),
(467,17,o),
(334,16,cs)
);
}
);
width = 668;
}
);
metricRight = "=|";
unicode = 79;
},
{
glyphname = Oslash;
lastChange = "2025-09-11 09:58:40 +0000";
layers = (
{
anchors = (
{
name = bottom;
pos = (334,0);
},
{
name = top;
pos = (334,650);
}
);
layerId = m004;
shapes = (
{
ref = O;
},
{
closed = 1;
nodes = (
(76,-28,l),
(126,-28,l),
(603,680,l),
(553,680,l)
);
}
);
width = 668;
},
{
anchors = (
{
name = bottom;
pos = (334,0);
},
{
name = top;
pos = (334,650);
}
);
layerId = m002;
shapes = (
{
ref = O;
},
{
closed = 1;
nodes = (
(50,-28,l),
(152,-28,l),
(629,680,l),
(527,680,l)
);
}
);
width = 668;
}
);
metricLeft = "=O";
metricRight = "=O";
unicode = 216;
},
{
glyphname = OE;
lastChange = "2025-09-10 10:10:54 +0000";
layers = (
{
anchors = (
{
name = bottom;
pos = (300,0);
},
{
name = top;
pos = (300,650);
}
);
layerId = m004;
shapes = (
{
closed = 1;
nodes = (
(201,15,o),
(99,85,o),
(99,325,cs),
(99,564,o),
(201,635,o),
(334,634,cs),
(487,633,o),
(544,564,o),
(544,325,cs),
(544,85,o),
(487,17,o),
(334,16,cs)
);
},
{
closed = 1;
nodes = (
(514,-16,o),
(583,63,o),
(583,325,cs),
(583,587,o),
(514,666,o),
(334,666,cs),
(175,666,o),
(60,587,o),
(60,325,cs),
(60,63,o),
(175,-16,o),
(334,-16,cs)
);
},
{
closed = 1;
nodes = (
(544,0,l),
(954,0,l),
(954,32,l),
(580,32,l),
(580,322,l),
(817,322,l),
(817,354,l),
(580,354,l),
(580,618,l),
(954,618,l),
(954,650,l),
(544,650,l)
);
}
);
width = 948;
},
{
anchors = (
{
name = bottom;
pos = (300,0);
},
{
name = top;
pos = (300,650);
}
);
layerId = m002;
shapes = (
{
closed = 1;
nodes = (
(221,75,o),
(135,129,o),
(135,325,cs),
(135,521,o),
(221,575,o),
(334,574,cs),
(417,573,o),
(491,521,o),
(491,325,cs),
(491,129,o),
(417,77,o),
(334,76,cs)
);
},
{
closed = 1;
nodes = (
(454,-12,o),
(591,63,o),
(591,325,cs),
(591,587,o),
(454,662,o),
(334,662,cs),
(175,662,o),
(35,587,o),
(35,325,cs),
(35,63,o),
(175,-12,o),
(334,-12,cs)
);
},
{
closed = 1;
nodes = (
(490,0,l),
(943,0,l),
(943,85,l),
(596,85,l),
(596,295,l),
(816,295,l),
(816,380,l),
(596,380,l),
(596,565,l),
(943,565,l),
(943,650,l),
(490,650,l)
);
}
);
width = 983;
}
);
metricLeft = "=O";
metricRight = "=E";
unicode = 338;
},
{
glyphname = P;
lastChange = "2025-09-11 11:11:21 +0000";
layers = (
{
anchors = (
{
name = bottom;
pos = (268,0);
},
{
name = top;
pos = (268,650);
}
);
layerId = m002;
shapes = (
{
closed = 1;
nodes = (
(174,0,l),
(174,206,l),
(285,206,ls),
(364,206,o),
(489,262,o),
(489,429,cs),
(489,596,o),
(364,650,o),
(285,650,cs),
(70,650,l),
(70,0,l)
);
},
{
closed = 1;
nodes = (
(174,565,l),
(256,565,ls),
(321,565,o),
(389,540,o),
(389,429,cs),
(389,318,o),
(321,291,o),
(256,291,cs),
(174,291,l)
);
}
);
width = 526;
},
{
anchors = (
{
name = bottom;
pos = (247,0);
},
{
name = top;
pos = (247,650);
}
);
layerId = m004;
shapes = (
{
closed = 1;
nodes = (
(120,0,l),
(120,256,l),
(252,256,ls),
(363,256,o),
(434,312,o),
(434,454,cs),
(434,596,o),
(363,650,o),
(252,650,cs),
(84,650,l),
(84,0,l)
);
},
{
closed = 1;
nodes = (
(120,618,l),
(242,618,ls),
(357,618,o),
(395,557,o),
(395,454,cs),
(395,350,o),
(357,288,o),
(242,288,cs),
(120,288,l)
);
}
);
width = 494;
}
);
metricLeft = "=H";
unicode = 80;
},
{
glyphname = Q;
lastChange = "2025-09-11 10:14:10 +0000";
layers = (
{
anchors = (
{
name = bottom;
pos = (334,0);
},
{
name = top;
pos = (334,650);
}
);
background = {
shapes = (
{
closed = 1;
nodes = (
(221,77,o),
(135,129,o),
(135,325,cs),
(135,521,o),
(221,573,o),
(334,574,cs),
(447,573,o),
(533,521,o),
(533,325,cs),
(533,129,o),
(447,77,o),
(334,76,cs)
);
}
);
};
layerId = m002;
shapes = (
{
closed = 1;
nodes = (
(35,63,o),
(175,-12,o),
(334,-12,cs),
(393,-12,o),
(449,-2,o),
(497,25,c),
(577,-71,l),
(661,-1,l),
(578,99,l),
(612,150,o),
(633,224,o),
(633,325,cs),
(633,587,o),
(494,662,o),
(334,662,cs),
(175,662,o),
(35,587,o),
(35,325,cs)
);
},
{
closed = 1;
nodes = (
(135,521,o),
(221,573,o),
(334,574,cs),
(447,573,o),
(533,521,o),
(533,325,cs),
(533,175,o),
(487,76,o),
(334,76,cs),
(221,77,o),
(135,129,o),
(135,325,cs)
);
}
);
width = 668;
},
{
anchors = (
{
name = bottom;
pos = (327,0);
},
{
name = top;
pos = (327,650);
}
);
background = {
shapes = (
{
closed = 1;
nodes = (
(201,17,o),
(99,105,o),
(99,325,cs),
(99,544,o),
(201,633,o),
(334,634,cs),
(467,633,o),
(569,544,o),
(569,325,cs),
(569,105,o),
(467,17,o),
(334,16,cs)
);
},
{
closed = 1;
nodes = (
(494,-16,o),
(608,83,o),
(608,325,cs),
(608,567,o),
(494,666,o),
(334,666,cs),
(175,666,o),
(60,567,o),
(60,325,cs),
(60,83,o),
(175,-16,o),
(334,-16,cs)
);
}
);
};
layerId = m004;
shapes = (
{
closed = 1;
nodes = (
(60,63,o),
(175,-16,o),
(334,-16,cs),
(409,-16,o),
(474,1,o),
(522,47,c),
(589,-33,l),
(621,-6,l),
(550,80,l),
(587,134,o),
(608,212,o),
(608,325,cs),
(608,587,o),
(494,666,o),
(334,666,cs),
(175,666,o),
(60,587,o),
(60,325,cs)
);
},
{
closed = 1;
nodes = (
(99,564,o),
(202,633,o),
(334,634,cs),
(466,633,o),
(569,565,o),
(569,325,cs),
(569,86,o),
(466,17,o),
(334,16,cs),
(202,17,o),
(99,86,o),
(99,325,cs)
);
}
);
width = 653;
}
);
metricLeft = "=O";
metricRight = "=O-28";
unicode = 81;
},
{
glyphname = R;
lastChange = "2025-09-11 10:14:42 +0000";
layers = (
{
anchors = (
{
name = bottom;
pos = (291,0);
},
{
name = top;
pos = (291,650);
}
);
layerId = m002;
shapes = (
{
closed = 1;
nodes = (
(176,0,l),
(176,251,l),
(301,251,l),
(424,0,l),
(541,0,l),
(415,263,l),
(481,284,o),
(534,334,o),
(534,449,cs),
(534,616,o),
(421,650,o),
(320,650,cs),
(70,650,l),
(70,0,l)
);
},
{
closed = 1;
nodes = (
(176,565,l),
(325,565,ls),
(380,565,o),
(423,540,o),
(423,449,cs),
(423,358,o),
(380,336,o),
(325,336,cs),
(176,336,l)
);
}
);
width = 585;
},
{
anchors = (
{
name = bottom;
pos = (265,0);
},
{
name = top;
pos = (265,650);
}
);
layerId = m004;
shapes = (
{
closed = 1;
nodes = (
(120,0,l),
(120,276,l),
(297,276,l),
(451,0,l),
(492,0,l),
(333,279,l),
(421,292,o),
(474,349,o),
(474,464,cs),
(474,596,o),
(403,650,o),
(292,650,cs),
(84,650,l),
(84,0,l)
);
},
{
closed = 1;
nodes = (
(120,618,l),
(282,618,ls),
(397,618,o),
(435,557,o),
(435,464,cs),
(435,370,o),
(397,308,o),
(282,308,cs),
(120,308,l)
);
}
);
width = 530;
}
);
metricLeft = "=H";
unicode = 82;
},
{
glyphname = S;
lastChange = "2025-09-10 15:38:06 +0000";
layers = (
{
anchors = (
{
name = bottom;
pos = (239,0);
},
{
name = top;
pos = (239,650);
}
);
layerId = m002;
shapes = (
{
closed = 1;
nodes = (
(398,-12,o),
(485,49,o),
(485,173,cs),
(485,380,o),
(160,329,o),
(160,495,cs),
(160,542,o),
(186,577,o),
(270,577,cs),
(349,577,o),
(387,542,o),
(387,450,c),
(487,450,l),
(487,604,o),
(398,662,o),
(271,662,cs),
(144,662,o),
(60,614,o),
(60,496,cs),
(60,239,o),
(385,297,o),
(385,162,cs),
(385,98,o),
(352,73,o),
(263,73,cs),
(184,73,o),
(131,98,o),
(131,183,c),
(31,183,l),
(31,49,o),
(138,-12,o),
(263,-12,cs)
);
}
);
width = 491;
},
{
anchors = (
{
name = bottom;
pos = (245,0);
},
{
name = top;
pos = (245,650);
}
);
layerId = m004;
shapes = (
{
closed = 1;
nodes = (
(350,-12,o),
(459,15,o),
(459,145,cs),
(459,369,o),
(121,331,o),
(121,500,cs),
(121,601,o),
(173,628,o),
(257,628,cs),
(341,628,o),
(408,601,o),
(408,450,c),
(445,450,l),
(445,626,o),
(350,662,o),
(257,662,cs),
(164,662,o),
(85,626,o),
(85,499,cs),
(85,299,o),
(423,332,o),
(423,145,cs),
(423,39,o),
(332,19,o),
(259,20,cs),
(167,21,o),
(101,66,o),
(101,187,c),
(64,187,l),
(64,43,o),
(149,-12,o),
(259,-12,cs)
);
}
);
width = 489;
}
);
unicode = 83;
},
{
glyphname = Germandbls;
lastChange = "2025-09-11 09:58:37 +0000";
layers = (
{
anchors = (
{
name = bottom;
pos = (254,0);
},
{
name = top;
pos = (254,650);
}
);
layerId = m004;
shapes = (
{
closed = 1;
nodes = (
(466,-16,o),
(526,68,o),
(526,188,cs),
(526,311,o),
(466,398,o),
(269,398,c),
(288,376,l),
(491,627,l),
(491,650,l),
(89,650,l),
(89,618,l),
(442,618,l),
(263,399,l),
(263,365,l),
(263,365,l),
(433,365,o),
(491,298,o),
(491,188,cs),
(491,81,o),
(433,16,o),
(349,16,cs),
(267,16,o),
(211,37,o),
(211,166,c),
(173,166,l),
(173,37,o),
(227,-16,o),
(348,-16,cs)
);
},
{
closed = 1;
nodes = (
(84,650,l),
(84,0,l),
(120,0,l),
(120,650,l)
);
}
);
width = 556;
},
{
anchors = (
{
name = bottom;
pos = (476,0);
},
{
name = top;
pos = (476,650);
}
);
layerId = m002;
shapes = (
{
closed = 1;
nodes = (
(549,-12,o),
(648,78,o),
(648,198,cs),
(648,302,o),
(567,434,o),
(412,410,c),
(459,383,l),
(606,567,l),
(606,650,l),
(89,650,l),
(89,555,l),
(467,555,l),
(345,399,l),
(345,330,l),
(420,330,l),
(509,330,o),
(537,244,o),
(537,198,cs),
(537,145,o),
(514,81,o),
(420,83,cs),
(361,84,o),
(323,114,o),
(323,200,c),
(220,200,l),
(220,31,o),
(318,-12,o),
(420,-12,cs)
);
},
{
closed = 1;
nodes = (
(70,650,l),
(70,0,l),
(176,0,l),
(176,650,l)
);
}
);
width = 678;
}
);
metricLeft = "=H";
metricRight = "=30";
unicode = 7838;
},
{
glyphname = T;
lastChange = "2025-09-11 19:23:11 +0000";
layers = (
{
anchors = (
{
name = bottom;
pos = (277,0);
},
{
name = center;
pos = (277,325);
},
{
name = top;
pos = (277,650);
}
);
layerId = m002;
shapes = (
{
closed = 1;
nodes = (
(30,650,l),
(30,565,l),
(224,565,l),
(224,2,l),
(330,2,l),
(330,565,l),
(524,565,l),
(524,650,l)
);
}
);
width = 554;
},
{
anchors = (
{
name = bottom;
pos = (230,0);
},
{
name = center;
pos = (230,325);
},
{
name = top;
pos = (230,650);
}
);
layerId = m004;
shapes = (
{
closed = 1;
nodes = (
(11,650,l),
(11,618,l),
(212,618,l),
(212,2,l),
(248,2,l),
(248,618,l),
(449,618,l),
(449,650,l)
);
}
);
width = 460;
}
);
metricRight = "=|";
unicode = 84;
},
{
glyphname = U;
lastChange = "2025-09-10 08:51:20 +0000";
layers = (
{
anchors = (
{
name = bottom;
pos = (302,0);
},
{
name = ogonek;
pos = (548,10);
},
{
name = top;
pos = (302,650);
},
{
name = topright;
pos = (590,650);
}
);
background = {
shapes = (
{
closed = 1;
nodes = (
(166,134,o),
(202,83,o),
(302,83,cs),
(407,83,o),
(438,134,o),
(438,261,cs),
(438,650,l),
(547,650,l),
(547,231,ls),
(547,67,o),
(480,-12,o),
(302,-12,cs),
(129,-12,o),
(57,67,o),
(57,231,cs),
(57,650,l),
(166,650,l),
(166,261,ls)
);
}
);
};
layerId = m002;
shapes = (
{
closed = 1;
nodes = (
(438,650,l),
(544,650,l),
(544,191,ls),
(544,77,o),
(485,-12,o),
(302,-12,cs),
(119,-12,o),
(60,77,o),
(60,191,cs),
(60,650,l),
(166,650,l),
(166,230,ls),
(166,133,o),
(187,82,o),
(302,82,cs),
(417,82,o),
(438,133,o),
(438,230,cs)
);
}
);
width = 604;
},
{
anchors = (
{
name = bottom;
pos = (314,0);
},
{
name = ogonek;
pos = (565,10);
},
{
name = top;
pos = (314,650);
},
{
name = topright;
pos = (608,650);
}
);
layerId = m004;
shapes = (
{
closed = 1;
nodes = (
(515,650,l),
(554,650,l),
(554,217,ls),
(554,63,o),
(492,-16,o),
(314,-16,cs),
(136,-16,o),
(74,63,o),
(74,217,cs),
(74,650,l),
(113,650,l),
(113,227,ls),
(113,86,o),
(171,16,o),
(314,16,cs),
(457,16,o),
(515,85,o),
(515,227,cs)
);
}
);
width = 628;
}
);
metricLeft = "=H-10";
metricRight = "=|";
unicode = 85;
},
{
glyphname = V;
lastChange = "2025-09-11 11:12:44 +0000";
layers = (
{
anchors = (
{
name = bottom;
pos = (290,0);
},
{
name = top;
pos = (290,650);
}
);
layerId = m002;
shapes = (
{
closed = 1;
nodes = (
(337,0,l),
(561,650,l),
(444,650,l),
(275,101,l),
(304,101,l),
(136,650,l),
(19,650,l),
(243,0,l)
);
}
);
width = 580;
},
{
anchors = (
{
name = bottom;
pos = (280,0);
},
{
name = top;
pos = (280,650);
}
);
layerId = m004;
shapes = (
{
closed = 1;
nodes = (
(303,0,l),
(540,650,l),
(501,651,l),
(272,18,l),
(287,18,l),
(59,650,l),
(20,650,l),
(257,0,l)
);
}
);
width = 560;
}
);
metricLeft = "=A";
metricRight = "=|";
unicode = 86;
},
{
glyphname = W;
lastChange = "2025-09-11 11:13:08 +0000";
layers = (
{
anchors = (
{
name = bottom;
pos = (472,0);
},
{
name = top;
pos = (461,650);
}
);
layerId = m002;
shapes = (
{
closed = 1;
nodes = (
(222,0,l),
(311,0,l),
(480,538,l),
(444,537,l),
(610,0,l),
(705,0,l),
(910,650,l),
(805,650,l),
(642,95,l),
(686,95,l),
(516,650,l),
(409,650,l),
(245,95,l),
(291,95,l),
(124,650,l),
(19,650,l)
);
}
);
width = 929;
},
{
anchors = (
{
name = bottom;
pos = (409,0);
},
{
name = top;
pos = (409,650);
}
);
layerId = m004;
shapes = (
{
closed = 1;
nodes = (
(218,0,l),
(256,0,l),
(415,630,l),
(392,629,l),
(564,0,l),
(599,0,l),
(797,650,l),
(762,650,l),
(572,4,l),
(597,4,l),
(421,650,l),
(386,650,l),
(222,8,l),
(246,9,l),
(55,650,l),
(20,650,l)
);
}
);
width = 817;
}
);
metricLeft = "=A";
metricRight = "=|";
unicode = 87;
},
{
glyphname = X;
lastChange = "2025-09-12 09:46:23 +0000";
layers = (
{
anchors = (
{
name = bottom;
pos = (300,0);
},
{
name = top;
pos = (300,650);
}
);
layerId = m002;
shapes = (
{
closed = 1;
nodes = (
(576,1,l),
(166,650,l),
(41,650,l),
(452,1,l)
);
},
{
closed = 1;
nodes = (
(343,308,l),
(565,650,l),
(440,650,l),
(271,389,l)
);
},
{
closed = 1;
nodes = (
(145,1,l),
(344,308,l),
(272,389,l),
(21,1,l)
);
}
);
width = 597;
},
{
anchors = (
{
name = bottom;
pos = (285,0);
},
{
name = top;
pos = (285,650);
}
);
background = {
shapes = (
{
closed = 1;
nodes = (
(74,1,l),
(283,299,l),
(495,1,l),
(535,1,l),
(306,324,l),
(535,650,l),
(494,650,l),
(286,352,l),
(75,650,l),
(34,650,l),
(263,328,l),
(34,1,l)
);
}
);
};
layerId = m004;
shapes = (
{
closed = 1;
nodes = (
(535,1,l),
(75,650,l),
(34,650,l),
(495,1,l)
);
},
{
closed = 1;
nodes = (
(297,315,l),
(535,650,l),
(494,650,l),
(276,342,l)
);
},
{
closed = 1;
nodes = (
(74,1,l),
(297,315,l),
(276,342,l),
(34,1,l)
);
}
);
width = 569;
}
);
metricRight = "=|";
unicode = 88;
},
{
glyphname = Y;
lastChange = "2025-09-11 11:13:49 +0000";
layers = (
{
anchors = (
{
name = bottom;
pos = (293,0);
},
{
name = top;
pos = (293,650);
},
{
name = topleft;
pos = (22,650);
}
);
layerId = m002;
shapes = (
{
closed = 1;
nodes = (
(238,259,l),
(238,0,l),
(342,0,l),
(342,259,l),
(561,650,l),
(445,650,l),
(269,327,l),
(305,327,l),
(135,650,l),
(19,650,l)
);
}
);
width = 580;
},
{
anchors = (
{
name = bottom;
pos = (255,0);
},
{
name = top;
pos = (255,650);
},
{
name = topleft;
pos = (35,650);
}
);
layerId = m004;
shapes = (
{
closed = 1;
nodes = (
(237,259,l),
(237,0,l),
(273,0,l),
(273,259,l),
(489,650,l),
(450,650,l),
(240,265,l),
(270,266,l),
(59,650,l),
(20,650,l)
);
}
);
width = 509;
}
);
metricLeft = "=A";
metricRight = "=|";
unicode = 89;
},
{
glyphname = Z;
lastChange = "2025-09-11 11:14:15 +0000";
layers = (
{
anchors = (
{
name = bottom;
pos = (292,0);
},
{
name = center;
pos = (292,325);
},
{
name = top;
pos = (292,650);
}
);
layerId = m002;
shapes = (
{
closed = 1;
nodes = (
(70,85,l),
(70,0,l),
(514,0,l),
(514,85,l),
(190,85,l),
(514,565,l),
(514,650,l),
(70,650,l),
(70,565,l),
(395,565,l)
);
}
);
width = 584;
},
{
anchors = (
{
name = bottom;
pos = (301,0);
},
{
name = center;
pos = (301,325);
},
{
name = top;
pos = (301,650);
}
);
layerId = m004;
shapes = (
{
closed = 1;
nodes = (
(84,32,l),
(84,0,l),
(518,0,l),
(518,32,l),
(128,32,l),
(518,618,l),
(518,650,l),
(84,650,l),
(84,618,l),
(474,618,l)
);
}
);
width = 602;
}
);
metricLeft = H;
metricRight = "=|";
unicode = 90;
},
{
glyphname = a;
lastChange = "2025-09-16 08:09:34 +0000";
layers = (
{
anchors = (
{
name = bottom;
pos = (246,0);
},
{
name = ogonek;
pos = (432,10);
},
{
name = top;
pos = (246,450);
}
);
layerId = m002;
shapes = (
{
closed = 1;
nodes = (
(190,285,ls),
(67,285,o),
(29,212,o),
(29,129,cs),
(29,49,o),
(74,-13,o),
(184,-13,cs),
(265,-13,o),
(311,11,o),
(328,52,c),
(319,179,l),
(319,90,o),
(256,72,o),
(214,72,cs),
(165,72,o),
(124,82,o),
(124,132,cs),
(124,178,o),
(155,200,o),
(223,200,c),
(319,200,l),
(319,285,l)
);
},
{
closed = 1;
nodes = (
(422,0,l),
(423,310,ls),
(423,424,o),
(312,463,o),
(227,463,cs),
(159,463,o),
(48,424,o),
(48,314,c),
(144,314,l),
(145,364,o),
(186,376,o),
(227,376,cs),
(254,376,o),
(319,364,o),
(319,308,cs),
(318,56,l),
(328,52,l),
(331,52,l),
(345,0,l)
);
}
);
width = 487;
},
{
anchors = (
{
name = bottom;
pos = (233,0);
},
{
name = ogonek;
pos = (411,10);
},
{
name = top;
pos = (213,450);
}
);
layerId = m004;
shapes = (
{
closed = 1;
nodes = (
(197,261,ls),
(91,261,o),
(49,200,o),
(49,131,cs),
(49,49,o),
(101,-12,o),
(206,-12,cs),
(276,-12,o),
(353,16,o),
(365,50,c),
(365,105,l),
(336,16,o),
(234,18,o),
(201,18,cs),
(138,18,o),
(85,59,o),
(85,132,cs),
(85,189,o),
(116,231,o),
(193,231,c),
(356,231,l),
(356,261,l)
);
},
{
closed = 1;
nodes = (
(390,0,l),
(391,314,ls),
(391,423,o),
(288,462,o),
(223,462,cs),
(166,462,o),
(68,435,o),
(68,333,c),
(102,333,l),
(102,408,o),
(175,430,o),
(223,430,cs),
(265,430,o),
(356,410,o),
(356,305,cs),
(356,57,l),
(356,50,l),
(356,50,l),
(356,0,l)
);
}
);
width = 475;
}
);
metricLeft = "=o-10";
metricRight = "=n";
unicode = 97;
},
{
glyphname = aogonek;
lastChange = "2025-09-11 10:19:15 +0000";
layers = (
{
layerId = m004;
shapes = (
{
ref = a;
},
{
closed = 1;
nodes = (
(302,-113,o),
(342,-142,o),
(388,-142,c),
(388,-110,l),
(360,-110,o),
(336,-92,o),
(336,-61,cs),
(336,-30,o),
(360,0,o),
(390,0,c),
(390,14,l),
(338,14,o),
(302,-19,o),
(302,-61,cs)
);
}
);
width = 465;
},
{
layerId = m002;
shapes = (
{
ref = a;
},
{
closed = 1;
nodes = (
(300,-127,o),
(357,-159,o),
(422,-159,c),
(422,-90,l),
(394,-90,o),
(370,-73,o),
(370,-46,cs),
(370,-21,o),
(394,0,o),
(424,0,c),
(412,27,l),
(364,22,o),
(300,-12,o),
(300,-76,cs)
);
}
);
width = 479;
}
);
unicode = 261;
},
{
glyphname = ae;
lastChange = "2025-09-12 09:52:16 +0000";
layers = (
{
anchors = (
{
name = bottom;
pos = (310,0);
},
{
name = top;
pos = (310,450);
}
);
background = {
shapes = (
{
closed = 0;
nodes = (
(564,-16,l),
(671,-16,o),
(742,36,o),
(745,132,c),
(713,132,l),
(709,56,o),
(657,14,o),
(564,14,cs)
);
}
);
};
layerId = m004;
shapes = (
{
closed = 1;
nodes = (
(299,-17,o),
(351,26,o),
(375,77,c),
(413,7,o),
(483,-16,o),
(564,-16,cs),
(671,-16,o),
(742,36,o),
(745,132,c),
(713,132,l),
(709,56,o),
(657,14,o),
(564,14,cs),
(461,14,o),
(384,58,o),
(380,213,c),
(757,211,l),
(757,216,o),
(757,220,o),
(757,225,cs),
(757,424,o),
(664,466,o),
(553,466,cs),
(478,466,o),
(409,443,o),
(372,368,c),
(343,441,o),
(256,467,o),
(203,467,cs),
(171,467,o),
(114,459,o),
(85,450,c),
(85,418,l),
(128,431,o),
(171,440,o),
(223,435,cs),
(255,432,o),
(346,415,o),
(346,305,cs),
(346,287,o),
(345,273,o),
(345,248,c),
(217,248,ls),
(92,248,o),
(49,190,o),
(49,110,cs),
(49,42,o),
(101,-17,o),
(211,-17,cs)
);
},
{
closed = 1;
nodes = (
(85,179,o),
(126,218,o),
(213,218,cs),
(344,218,l),
(345,175,o),
(350,141,o),
(360,111,c),
(334,44,o),
(271,13,o),
(201,13,cs),
(139,13,o),
(85,49,o),
(85,120,cs)
);
},
{
closed = 1;
nodes = (
(387,390,o),
(451,436,o),
(554,436,cs),
(666,436,o),
(704,397,o),
(721,242,c),
(380,242,l)
);
}
);
width = 816;
},
{
anchors = (
{
name = bottom;
pos = (389,0);
},
{
name = top;
pos = (389,450);
}
);
background = {
shapes = (
{
closed = 0;
nodes = (
(535,-12,ls),
(631,-12,o),
(723,34,o),
(724,131,c),
(627,131,l),
(627,88,o),
(592,76,o),
(535,76,cs)
);
}
);
};
layerId = m002;
shapes = (
{
closed = 1;
nodes = (
(294,-13,o),
(340,30,o),
(360,66,c),
(404,7,o),
(473,-12,o),
(535,-12,cs),
(631,-12,o),
(723,34,o),
(724,131,c),
(627,131,l),
(627,88,o),
(592,76,o),
(535,76,cs),
(480,76,o),
(436,100,o),
(424,187,c),
(727,186,l),
(728,199,o),
(729,211,o),
(729,225,cs),
(729,419,o),
(646,462,o),
(535,462,cs),
(478,462,o),
(422,449,o),
(380,410,c),
(340,448,o),
(276,463,o),
(224,463,cs),
(180,463,o),
(135,456,o),
(91,450,c),
(91,363,l),
(133,369,o),
(176,376,o),
(218,376,cs),
(239,376,o),
(315,369,o),
(316,308,cs),
(316,299,o),
(316,289,o),
(316,280,c),
(197,280,ls),
(60,280,o),
(29,197,o),
(29,124,cs),
(29,64,o),
(81,-13,o),
(191,-13,cs)
);
},
{
closed = 1;
nodes = (
(121,180,o),
(152,202,o),
(220,202,cs),
(317,202,l),
(317,185,o),
(318,172,o),
(318,155,c),
(304,85,o),
(253,64,o),
(211,64,cs),
(162,64,o),
(121,84,o),
(121,134,cs)
);
},
{
closed = 1;
nodes = (
(425,358,o),
(471,374,o),
(529,374,cs),
(588,374,o),
(623,358,o),
(623,267,c),
(425,268,l)
);
}
);
width = 768;
}
);
metricLeft = "=a";
metricRight = "=e";
unicode = 230;
},
{
glyphname = b;
lastChange = "2025-09-11 11:25:49 +0000";
layers = (
{
anchors = (
{
name = bottom;
pos = (262,0);
},
{
name = center;
pos = (130,544);
},
{
name = top;
pos = (262,450);
}
);
layerId = m002;
shapes = (
{
closed = 1;
nodes = (
(406,-12,o),
(486,36,o),
(486,223,cs),
(486,420,o),
(396,463,o),
(289,463,cs),
(246,463,o),
(201,453,o),
(168,425,c),
(168,680,l),
(64,680,l),
(64,0,l),
(142,0,l),
(156,43,l),
(187,3,o),
(232,-12,o),
(289,-12,cs)
);
},
{
closed = 1;
nodes = (
(212,74,o),
(165,116,o),
(164,223,c),
(165,340,o),
(212,377,o),
(270,377,cs),
(324,377,o),
(381,359,o),
(381,223,cs),
(381,96,o),
(334,74,o),
(270,74,cs)
);
}
);
width = 525;
},
{
anchors = (
{
name = bottom;
pos = (247,0);
},
{
name = center;
pos = (123,560);
},
{
name = top;
pos = (247,450);
}
);
layerId = m004;
shapes = (
{
closed = 1;
nodes = (
(345,-16,o),
(434,37,o),
(434,225,cs),
(434,418,o),
(344,463,o),
(251,463,cs),
(210,463,o),
(153,447,o),
(118,392,c),
(118,680,l),
(84,680,l),
(84,0,l),
(118,0,l),
(118,62,l),
(149,7,o),
(199,-16,o),
(247,-16,cs)
);
},
{
closed = 1;
nodes = (
(176,14,o),
(111,73,o),
(111,223,cs),
(114,387,o),
(188,433,o),
(245,433,cs),
(308,433,o),
(398,411,o),
(398,224,cs),
(398,49,o),
(318,14,o),
(243,14,cs)
);
}
);
width = 493;
}
);
metricLeft = n;
metricRight = o;
unicode = 98;
},
{
glyphname = c;
lastChange = "2025-09-10 08:51:20 +0000";
layers = (
{
anchors = (
{
name = bottom;
pos = (221,0);
},
{
name = top;
pos = (221,450);
}
);
layerId = m002;
shapes = (
{
closed = 1;
nodes = (
(329,-12,o),
(437,18,o),
(437,150,c),
(341,150,l),
(340,88,o),
(302,76,o),
(248,76,cs),
(180,76,o),
(145,119,o),
(145,225,cs),
(145,331,o),
(180,374,o),
(248,374,cs),
(302,374,o),
(340,353,o),
(341,301,c),
(437,301,l),
(437,423,o),
(329,463,o),
(248,462,cs),
(127,460,o),
(39,394,o),
(39,225,cs),
(39,56,o),
(127,-12,o),
(248,-12,cs)
);
}
);
width = 481;
},
{
anchors = (
{
name = bottom;
pos = (231,0);
},
{
name = top;
pos = (231,450);
}
);
layerId = m004;
shapes = (
{
closed = 1;
nodes = (
(362,-12,o),
(437,40,o),
(440,136,c),
(408,136,l),
(404,60,o),
(348,18,o),
(255,18,cs),
(176,18,o),
(95,79,o),
(95,225,cs),
(95,374,o),
(176,432,o),
(255,432,cs),
(348,432,o),
(404,390,o),
(408,314,c),
(440,314,l),
(437,410,o),
(362,462,o),
(255,462,cs),
(154,462,o),
(59,394,o),
(59,225,cs),
(59,60,o),
(153,-12,o),
(255,-12,cs)
);
}
);
width = 461;
}
);
metricLeft = "=o";
unicode = 99;
},
{
glyphname = d;
lastChange = "2025-09-11 10:23:04 +0000";
layers = (
{
anchors = (
{
name = bottom;
pos = (264,0);
},
{
name = center;
pos = (395,544);
},
{
name = top;
pos = (264,450);
},
{
name = topright;
pos = (507,680);
}
);
background = {
shapes = (
{
closed = 1;
nodes = (
(345,-16,o),
(412,46,o),
(412,213,c),
(417,263,l),
(417,423,o),
(325,463,o),
(236,463,cs),
(129,463,o),
(39,420,o),
(39,223,cs),
(39,36,o),
(119,-16,o),
(236,-16,cs)
);
},
{
closed = 1;
nodes = (
(191,70,o),
(144,96,o),
(144,223,cs),
(144,359,o),
(201,377,o),
(255,377,cs),
(313,377,o),
(360,340,o),
(361,223,c),
(360,116,o),
(313,70,o),
(255,70,cs)
);
}
);
};
layerId = m002;
shapes = (
{
closed = 1;
nodes = (
(463,680,l),
(357,680,l),
(357,425,l),
(324,453,o),
(279,463,o),
(236,463,cs),
(129,463,o),
(39,420,o),
(39,223,cs),
(39,36,o),
(119,-12,o),
(236,-12,cs),
(293,-12,o),
(338,3,o),
(369,43,c),
(383,0,l),
(463,0,l)
);
},
{
closed = 1;
nodes = (
(191,74,o),
(144,96,o),
(144,223,cs),
(144,359,o),
(191,377,o),
(255,377,cs),
(313,377,o),
(360,340,o),
(361,223,c),
(360,116,o),
(313,74,o),
(255,74,cs)
);
}
);
width = 527;
},
{
anchors = (
{
name = bottom;
pos = (247,0);
},
{
name = center;
pos = (370,560);
},
{
name = top;
pos = (247,450);
},
{
name = topright;
pos = (473,700);
}
);
layerId = m004;
shapes = (
{
closed = 1;
nodes = (
(409,680,l),
(375,680,l),
(375,394,l),
(341,447,o),
(287,463,o),
(242,463,cs),
(149,463,o),
(59,418,o),
(59,225,cs),
(59,37,o),
(148,-16,o),
(246,-16,cs),
(294,-16,o),
(344,7,o),
(375,62,c),
(375,0,l),
(409,0,l)
);
},
{
closed = 1;
nodes = (
(175,14,o),
(95,49,o),
(95,224,cs),
(95,411,o),
(185,433,o),
(247,433,cs),
(305,433,o),
(379,387,o),
(382,223,cs),
(382,73,o),
(317,14,o),
(250,14,cs)
);
}
);
width = 493;
}
);
metricLeft = o;
metricRight = n;
unicode = 100;
},
{
glyphname = dcaron;
lastChange = "2025-09-11 10:26:11 +0000";
layers = (
{
layerId = m004;
shapes = (
{
ref = d;
},
{
closed = 1;
nodes = (
(442,480,l),
(468,480,l),
(509,650,l),
(468,650,l)
);
}
);
width = 493;
},
{
layerId = m002;
shapes = (
{
ref = d;
},
{
closed = 1;
nodes = (
(566,492,l),
(608,680,l),
(516,680,l),
(498,492,l)
);
}
);
width = 542;
}
);
unicode = 271;
},
{
glyphname = e;
lastChange = "2025-09-11 10:25:09 +0000";
layers = (
{
anchors = (
{
name = bottom;
pos = (246,0);
},
{
name = ogonek;
pos = (442,10);
},
{
name = top;
pos = (246,450);
}
);
layerId = m002;
shapes = (
{
closed = 1;
nodes = (
(354,-12,o),
(446,34,o),
(447,131,c),
(350,131,l),
(350,88,o),
(315,76,o),
(258,76,cs),
(201,76,o),
(149,100,o),
(147,187,c),
(450,186,l),
(451,199,o),
(452,211,o),
(452,225,cs),
(452,429,o),
(369,462,o),
(258,462,cs),
(147,462,o),
(39,431,o),
(39,225,cs),
(39,20,o),
(155,-12,o),
(258,-12,cs)
);
},
{
closed = 1;
nodes = (
(148,358,o),
(194,374,o),
(252,374,cs),
(311,374,o),
(346,358,o),
(346,267,c),
(148,268,l)
);
}
);
width = 491;
},
{
anchors = (
{
name = bottom;
pos = (266,0);
},
{
name = ogonek;
pos = (478,10);
},
{
name = top;
pos = (266,450);
}
);
layerId = m004;
shapes = (
{
closed = 1;
nodes = (
(366,-12,o),
(437,40,o),
(440,136,c),
(408,136,l),
(404,60,o),
(352,18,o),
(259,18,cs),
(170,18,o),
(95,66,o),
(95,213,c),
(443,211,l),
(443,216,o),
(443,220,o),
(443,225,cs),
(443,411,o),
(363,462,o),
(251,462,cs),
(139,462,o),
(59,411,o),
(59,225,cs),
(59,40,o),
(147,-12,o),
(259,-12,c)
);
},
{
closed = 1;
nodes = (
(95,391,o),
(162,432,o),
(251,432,cs),
(340,432,o),
(408,391,o),
(408,242,c),
(95,242,l)
);
}
);
width = 502;
}
);
metricLeft = o;
metricRight = "=o";
unicode = 101;
},
{
glyphname = eogonek;
lastChange = "2025-09-11 10:29:51 +0000";
layers = (
{
layerId = m004;
shapes = (
{
ref = e;
},
{
closed = 1;
nodes = (
(246,-115,o),
(286,-144,o),
(332,-144,c),
(332,-112,l),
(304,-112,o),
(280,-94,o),
(280,-63,cs),
(280,-32,o),
(304,-2,o),
(334,-2,c),
(334,12,l),
(282,12,o),
(246,-21,o),
(246,-63,cs)
);
}
);
width = 502;
},
{
layerId = m002;
shapes = (
{
ref = e;
},
{
closed = 1;
nodes = (
(215,-127,o),
(272,-159,o),
(337,-159,c),
(337,-90,l),
(309,-90,o),
(285,-73,o),
(285,-46,cs),
(285,-21,o),
(309,0,o),
(339,0,c),
(327,27,l),
(279,22,o),
(215,-12,o),
(215,-76,cs)
);
}
);
width = 491;
}
);
unicode = 281;
},
{
glyphname = f;
lastChange = "2025-09-12 20:15:34 +0000";
layers = (
{
anchors = (
{
name = bottom;
pos = (164,0);
},
{
name = top;
pos = (164,680);
}
);
layerId = m002;
shapes = (
{
closed = 1;
nodes = (
(207,0,l),
(207,364,l),
(323,364,l),
(323,450,l),
(207,450,l),
(207,546,ls),
(207,572,o),
(217,587,o),
(250,587,cs),
(323,587,l),
(323,680,l),
(220,680,ls),
(147,680,o),
(101,648,o),
(101,561,cs),
(101,450,l),
(15,450,l),
(15,364,l),
(101,364,l),
(101,0,l)
);
}
);
width = 338;
},
{
anchors = (
{
name = bottom;
pos = (164,0);
},
{
name = top;
pos = (164,700);
}
);
layerId = m004;
shapes = (
{
closed = 1;
nodes = (
(134,-10,l),
(134,420,l),
(259,420,l),
(259,450,l),
(134,450,l),
(134,587,ls),
(134,644,o),
(153,650,o),
(183,650,cs),
(259,650,l),
(259,680,l),
(183,680,ls),
(126,680,o),
(100,660,o),
(100,597,cs),
(100,450,l),
(35,450,l),
(35,420,l),
(100,420,l),
(100,-10,l)
);
}
);
width = 288;
}
);
unicode = 102;
},
{
glyphname = g;
lastChange = "2025-09-11 11:26:43 +0000";
layers = (
{
anchors = (
{
name = bottom;
pos = (241,-200);
},
{
name = top;
pos = (241,450);
}
);
background = {
shapes = (
{
closed = 1;
nodes = (
(346,494,o),
(300,462,o),
(300,375,cs),
(300,357,l),
(377,357,l),
(377,367,ls),
(377,401,o),
(394,421,o),
(444,421,cs),
(460,421,l),
(460,494,l),
(419,494,ls)
);
}
);
};
layerId = m002;
shapes = (
{
closed = 1;
nodes = (
(327,141,o),
(410,177,o),
(410,303,cs),
(410,429,o),
(327,466,o),
(234,466,cs),
(142,466,o),
(59,421,o),
(59,303,cs),
(59,177,o),
(142,141,o),
(234,141,cs)
);
},
{
closed = 1;
nodes = (
(183,221,o),
(151,243,o),
(151,303,cs),
(151,352,o),
(183,386,o),
(234,386,cs),
(286,386,o),
(318,353,o),
(318,304,cs),
(318,244,o),
(286,221,o),
(234,221,cs)
);
},
{
closed = 1;
nodes = (
(289,10,l),
(289,81,l),
(205,81,ls),
(141,81,o),
(82,116,o),
(134,165,cs),
(166,195,l),
(123,242,l),
(70,190,ls),
(20,137,o),
(15,10,o),
(157,10,cs)
);
},
{
closed = 1;
nodes = (
(274,-210,ls),
(405,-210,o),
(450,-139,o),
(450,-64,cs),
(450,11,o),
(405,82,o),
(274,82,cs),
(200,82,ls),
(79,82,o),
(24,11,o),
(24,-64,cs),
(24,-139,o),
(69,-210,o),
(200,-210,cs)
);
},
{
closed = 1;
nodes = (
(145,-133,o),
(111,-115,o),
(111,-64,cs),
(111,-13,o),
(145,5,o),
(193,5,cs),
(281,5,ls),
(329,5,o),
(363,-23,o),
(363,-64,cs),
(363,-105,o),
(329,-133,o),
(281,-133,cs),
(193,-133,ls)
);
},
{
closed = 1;
nodes = (
(377,401,o),
(394,421,o),
(444,421,c),
(460,421,l),
(460,494,l),
(419,494,l),
(346,494,o),
(300,462,o),
(300,357,c),
(377,357,l)
);
}
);
width = 482;
},
{
anchors = (
{
name = bottom;
pos = (239,-200);
},
{
name = top;
pos = (239,450);
}
);
background = {
shapes = (
{
closed = 1;
nodes = (
(352,494,o),
(333,466,o),
(333,422,cs),
(333,404,l),
(369,404,l),
(369,420,l),
(369,454,o),
(368,464,o),
(408,464,c),
(433,464,l),
(433,494,l),
(392,494,ls)
);
}
);
};
layerId = m004;
shapes = (
{
closed = 1;
nodes = (
(333,141,o),
(416,187,o),
(416,303,cs),
(416,410,o),
(333,466,o),
(240,466,cs),
(148,466,o),
(65,411,o),
(65,303,cs),
(65,187,o),
(148,141,o),
(240,141,cs)
);
},
{
closed = 1;
nodes = (
(146,171,o),
(99,219,o),
(99,303,cs),
(99,376,o),
(146,436,o),
(240,436,cs),
(334,436,o),
(382,376,o),
(382,303,cs),
(382,219,o),
(334,171,o),
(240,171,cs)
);
},
{
closed = 1;
nodes = (
(276,0,l),
(276,30,l),
(181,30,ls),
(89,30,o),
(54,95,o),
(101,150,cs),
(141,197,l),
(115,221,l),
(63,161,ls),
(23,114,o),
(26,0,o),
(174,0,cs)
);
},
{
closed = 1;
nodes = (
(287,-200,ls),
(390,-200,o),
(426,-144,o),
(426,-85,cs),
(426,-26,o),
(390,30,o),
(287,30,cs),
(149,30,ls),
(54,30,o),
(10,-26,o),
(10,-85,cs),
(10,-144,o),
(46,-200,o),
(149,-200,cs)
);
},
{
closed = 1;
nodes = (
(91,-170,o),
(46,-145,o),
(46,-84,cs),
(46,-21,o),
(88,0,o),
(146,0,cs),
(290,0,ls),
(348,0,o),
(390,-35,o),
(390,-84,cs),
(390,-145,o),
(358,-170,o),
(290,-170,cs),
(146,-170,ls)
);
},
{
closed = 1;
nodes = (
(369,454,o),
(367,464,o),
(405,464,c),
(433,464,l),
(433,494,l),
(392,494,l),
(352,494,o),
(333,474,o),
(333,409,c),
(369,409,l)
);
}
);
width = 478;
}
);
unicode = 103;
},
{
glyphname = h;
lastChange = "2025-09-10 08:51:20 +0000";
layers = (
{
anchors = (
{
name = bottom;
pos = (265,0);
},
{
name = center;
pos = (133,544);
},
{
name = top;
pos = (265,680);
}
);
background = {
shapes = (
{
closed = 1;
nodes = (
(356,0,l),
(462,0,l),
(462,306,ls),
(462,432,o),
(402,466,o),
(287,466,cs),
(157,466,o),
(101,341,o),
(94,211,c),
(170,231,l),
(171,334,o),
(186,378,o),
(270,378,cs),
(338,378,o),
(356,362,o),
(356,284,cs)
);
}
);
};
layerId = m002;
shapes = (
{
closed = 1;
nodes = (
(170,0,l),
(170,680,l),
(64,680,l),
(64,0,l)
);
},
{
closed = 1;
nodes = (
(170,213,l),
(171,316,o),
(166,376,o),
(274,376,cs),
(348,376,o),
(360,360,o),
(360,288,cs),
(360,0,l),
(466,0,l),
(466,308,ls),
(466,428,o),
(412,462,o),
(301,462,cs),
(128,462,o),
(106,333,o),
(99,213,c)
);
}
);
width = 530;
},
{
anchors = (
{
name = bottom;
pos = (255,0);
},
{
name = center;
pos = (127,560);
},
{
name = top;
pos = (255,700);
}
);
layerId = m004;
shapes = (
{
closed = 1;
nodes = (
(118,0,l),
(118,680,l),
(84,680,l),
(84,0,l)
);
},
{
closed = 1;
nodes = (
(118,234,l),
(123,365,o),
(148,437,o),
(259,437,cs),
(355,437,o),
(391,402,o),
(391,294,cs),
(391,0,l),
(425,0,l),
(425,286,ls),
(425,412,o),
(378,466,o),
(263,466,cs),
(140,466,o),
(89,387,o),
(84,234,c)
);
}
);
width = 509;
}
);
metricLeft = n;
metricRight = n;
unicode = 104;
},
{
glyphname = i;
lastChange = "2025-09-12 09:43:30 +0000";
layers = (
{
anchors = (
{
name = bottom;
pos = (138,0);
}
);
layerId = m002;
shapes = (
{
closed = 1;
nodes = (
(159,532,o),
(172,547,o),
(172,594,cs),
(172,640,o),
(159,654,o),
(111,654,cs),
(63,654,o),
(50,640,o),
(50,594,cs),
(50,547,o),
(63,532,o),
(111,532,cs)
);
},
{
closed = 1;
nodes = (
(251,0,l),
(251,92,l),
(206,92,ls),
(173,92,o),
(163,107,o),
(163,133,cs),
(164,450,l),
(60,450,l),
(59,118,ls),
(59,19,o),
(97,0,o),
(176,0,cs)
);
}
);
width = 256;
},
{
anchors = (
{
name = bottom;
pos = (104,0);
}
);
layerId = m004;
shapes = (
{
closed = 1;
nodes = (
(114,569,o),
(120,575,o),
(120,594,cs),
(120,613,o),
(114,619,o),
(95,619,cs),
(76,619,o),
(70,613,o),
(70,594,cs),
(70,575,o),
(76,569,o),
(95,569,cs)
);
},
{
closed = 1;
nodes = (
(181,0,l),
(181,30,l),
(162,30,ls),
(132,30,o),
(113,36,o),
(113,93,cs),
(113,450,l),
(79,450,l),
(79,83,ls),
(79,20,o),
(105,0,o),
(162,0,cs)
);
}
);
width = 212;
}
);
metricLeft = "=n-14";
unicode = 105;
},
{
glyphname = idotless;
lastChange = "2025-09-12 09:43:30 +0000";
layers = (
{
anchors = (
{
name = bottom;
pos = (104,0);
},
{
name = ogonek;
pos = (172,0);
},
{
name = top;
pos = (104,450);
}
);
layerId = m004;
shapes = (
{
closed = 1;
nodes = (
(172,-10,l),
(172,20,l),
(157,20,ls),
(127,20,o),
(108,26,o),
(108,83,cs),
(108,450,l),
(74,450,l),
(74,73,ls),
(74,10,o),
(100,-10,o),
(157,-10,cs)
);
}
);
width = 203;
},
{
anchors = (
{
name = bottom;
pos = (137,0);
},
{
name = ogonek;
pos = (258,0);
},
{
name = top;
pos = (137,450);
}
);
layerId = m002;
shapes = (
{
closed = 1;
nodes = (
(258,0,l),
(258,87,l),
(203,87,ls),
(170,87,o),
(161,102,o),
(161,128,cs),
(161,450,l),
(55,450,l),
(54,118,ls),
(54,19,o),
(94,0,o),
(173,0,cs)
);
}
);
width = 263;
}
);
metricLeft = "=n-10";
metricRight = "=i";
unicode = 305;
},
{
glyphname = j;
lastChange = "2025-09-12 09:43:30 +0000";
layers = (
{
layerId = m002;
shapes = (
{
closed = 1;
nodes = (
(124,-200,o),
(168,-168,o),
(168,-81,cs),
(168,450,l),
(64,450,l),
(64,-67,ls),
(64,-93,o),
(54,-108,o),
(21,-108,cs),
(-42,-108,l),
(-42,-200,l),
(51,-200,ls)
);
},
{
closed = 1;
nodes = (
(165,532,o),
(178,547,o),
(178,594,cs),
(178,640,o),
(165,654,o),
(117,654,cs),
(69,654,o),
(56,640,o),
(56,594,cs),
(56,547,o),
(69,532,o),
(117,532,cs)
);
}
);
width = 228;
},
{
layerId = m004;
shapes = (
{
closed = 1;
nodes = (
(91,-258,o),
(117,-238,o),
(117,-175,cs),
(117,452,l),
(83,452,l),
(83,-165,ls),
(83,-222,o),
(64,-228,o),
(34,-228,cs),
(-22,-228,l),
(-22,-258,l),
(34,-258,ls)
);
},
{
closed = 1;
nodes = (
(118,569,o),
(124,575,o),
(124,594,cs),
(124,613,o),
(118,619,o),
(99,619,cs),
(80,619,o),
(74,613,o),
(74,594,cs),
(74,575,o),
(80,569,o),
(99,569,cs)
);
}
);
width = 194;
}
);
metricLeft = "=n-106";
metricRight = "=|i";
unicode = 106;
},
{
glyphname = jdotless;
lastChange = "2025-09-10 08:51:20 +0000";
layers = (
{
anchors = (
{
name = bottom;
pos = (101,-200);
},
{
name = top;
pos = (101,450);
}
);
layerId = m004;
shapes = (
{
closed = 1;
nodes = (
(91,-258,o),
(117,-238,o),
(117,-175,cs),
(117,452,l),
(83,452,l),
(83,-165,ls),
(83,-222,o),
(64,-228,o),
(34,-228,cs),
(-22,-228,l),
(-22,-258,l),
(34,-258,ls)
);
}
);
width = 187;
},
{
anchors = (
{
name = bottom;
pos = (117,-200);
},
{
name = top;
pos = (117,450);
}
);
layerId = m002;
shapes = (
{
closed = 1;
nodes = (
(124,-200,o),
(170,-168,o),
(170,-81,cs),
(170,450,l),
(64,450,l),
(64,-71,ls),
(64,-97,o),
(54,-112,o),
(21,-112,cs),
(-42,-112,l),
(-42,-200,l),
(51,-200,ls)
);
}
);
width = 220;
}
);
metricLeft = "=j";
metricRight = "=j";
unicode = 567;
},
{
glyphname = k;
lastChange = "2025-09-11 11:30:03 +0000";
layers = (
{
anchors = (
{
name = bottom;
pos = (238,0);
},
{
name = top;
pos = (238,680);
}
);
layerId = m002;
shapes = (
{
closed = 1;
nodes = (
(64,0,l),
(168,0,l),
(168,680,l),
(64,680,l)
);
},
{
closed = 1;
nodes = (
(268,289,l),
(160,289,l),
(347,0,l),
(457,0,l)
);
},
{
closed = 1;
nodes = (
(90,167,l),
(157,162,l),
(422,450,l),
(308,450,l),
(90,217,l)
);
}
);
width = 477;
},
{
anchors = (
{
name = bottom;
pos = (250,0);
},
{
name = top;
pos = (250,700);
}
);
layerId = m004;
shapes = (
{
closed = 1;
nodes = (
(84,0,l),
(118,0,l),
(118,700,l),
(84,700,l)
);
},
{
closed = 1;
nodes = (
(213,294,l),
(176,294,l),
(375,0,l),
(412,0,l)
);
},
{
closed = 1;
nodes = (
(92,187,l),
(106,187,l),
(374,450,l),
(330,450,l),
(92,217,l)
);
}
);
width = 499;
}
);
metricLeft = n;
unicode = 107;
},
{
glyphname = l;
lastChange = "2025-09-11 11:29:17 +0000";
layers = (
{
anchors = (
{
name = bottom;
pos = (139,0);
},
{
name = center;
pos = (139,225);
},
{
name = top;
pos = (139,680);
},
{
name = topright;
pos = (260,680);
}
);
layerId = m002;
shapes = (
{
closed = 1;
nodes = (
(255,0,l),
(255,93,l),
(211,93,ls),
(178,93,o),
(168,108,o),
(168,134,cs),
(168,680,l),
(64,680,l),
(64,119,ls),
(64,20,o),
(104,0,o),
(181,0,cs)
);
}
);
width = 260;
},
{
anchors = (
{
name = bottom;
pos = (109,0);
},
{
name = center;
pos = (109,225);
},
{
name = top;
pos = (109,680);
},
{
name = topright;
pos = (197,700);
}
);
background = {
shapes = (
{
closed = 1;
nodes = (
(182,-10,l),
(182,20,l),
(197,20,ls),
(137,20,o),
(118,26,o),
(118,83,cs),
(118,700,l),
(84,700,l),
(84,73,ls),
(84,10,o),
(110,-10,o),
(167,-10,cs)
);
}
);
};
layerId = m004;
shapes = (
{
closed = 1;
nodes = (
(186,-10,l),
(186,20,l),
(167,20,ls),
(137,20,o),
(118,26,o),
(118,83,cs),
(118,680,l),
(84,680,l),
(84,73,ls),
(84,10,o),
(110,-10,o),
(167,-10,cs)
);
}
);
width = 217;
}
);
metricLeft = "=n";
unicode = 108;
},
{
glyphname = lcaron;
lastChange = "2025-09-11 10:26:07 +0000";
layers = (
{
layerId = m004;
shapes = (
{
ref = l;
},
{
closed = 1;
nodes = (
(168,480,l),
(194,480,l),
(235,650,l),
(194,650,l)
);
}
);
width = 217;
},
{
layerId = m002;
shapes = (
{
ref = l;
},
{
closed = 1;
nodes = (
(283,492,l),
(325,680,l),
(233,680,l),
(215,492,l)
);
}
);
width = 322;
}
);
unicode = 318;
},
{
glyphname = lslash;
lastChange = "2025-09-12 09:43:30 +0000";
layers = (
{
layerId = m004;
shapes = (
{
ref = l;
},
{
closed = 1;
nodes = (
(192,323,l),
(192,355,l),
(5,245,l),
(5,213,l)
);
}
);
width = 223;
},
{
layerId = m002;
shapes = (
{
ref = l;
},
{
closed = 1;
nodes = (
(267,321,l),
(267,413,l),
(5,275,l),
(5,183,l)
);
}
);
width = 272;
}
);
metricRight = "=l";
unicode = 322;
},
{
glyphname = m;
lastChange = "2025-09-11 11:29:05 +0000";
layers = (
{
anchors = (
{
name = bottom;
pos = (392,0);
},
{
name = top;
pos = (392,450);
}
);
background = {
shapes = (
{
closed = 0;
nodes = (
(133,450,l),
(146,404,l),
(169,404,l)
);
}
);
};
layerId = m002;
shapes = (
{
closed = 1;
nodes = (
(168,0,l),
(168,404,l),
(161,404,l),
(148,450,l),
(64,450,l),
(64,0,l)
);
},
{
closed = 1;
nodes = (
(438,0,l),
(438,302,ls),
(438,428,o),
(378,462,o),
(285,462,cs),
(155,462,o),
(99,337,o),
(92,207,c),
(168,227,l),
(169,330,o),
(184,374,o),
(268,374,cs),
(316,374,o),
(334,358,o),
(334,280,cs),
(334,0,l)
);
},
{
closed = 1;
nodes = (
(718,0,l),
(718,302,ls),
(718,428,o),
(660,462,o),
(555,462,cs),
(425,462,o),
(369,337,o),
(362,207,c),
(438,227,l),
(439,330,o),
(454,374,o),
(538,374,cs),
(596,374,o),
(614,358,o),
(614,280,cs),
(614,0,l)
);
}
);
width = 782;
},
{
anchors = (
{
name = bottom;
pos = (388,0);
},
{
name = top;
pos = (388,450);
}
);
background = {
shapes = (
{
closed = 0;
nodes = (
(135,450,l),
(148,404,l),
(171,404,l)
);
}
);
};
layerId = m004;
shapes = (
{
closed = 1;
nodes = (
(118,0,l),
(118,413,l),
(118,450,l),
(106,450,l),
(84,450,l),
(84,0,l)
);
},
{
closed = 1;
nodes = (
(405,0,l),
(405,266,ls),
(405,392,o),
(378,466,o),
(253,466,cs),
(140,466,o),
(84,397,o),
(84,264,c),
(118,264,l),
(118,375,o),
(148,437,o),
(249,437,cs),
(355,437,o),
(371,382,o),
(371,274,cs),
(371,0,l)
);
},
{
closed = 1;
nodes = (
(692,0,l),
(692,286,ls),
(692,412,o),
(665,466,o),
(540,466,cs),
(427,466,o),
(371,397,o),
(371,264,c),
(405,264,l),
(405,375,o),
(435,437,o),
(536,437,cs),
(642,437,o),
(658,402,o),
(658,294,cs),
(658,0,l)
);
}
);
width = 776;
}
);
metricLeft = "=n";
metricRight = "=n";
unicode = 109;
},
{
glyphname = n;
lastChange = "2025-09-11 11:27:26 +0000";
layers = (
{
anchors = (
{
name = bottom;
pos = (261,0);
},
{
name = top;
pos = (261,450);
}
);
background = {
shapes = (
{
closed = 0;
nodes = (
(460,306,ls),
(460,432,o),
(400,466,o),
(295,466,cs)
);
}
);
};
layerId = m002;
shapes = (
{
closed = 1;
nodes = (
(374,0,l),
(478,0,l),
(478,312,ls),
(478,406,o),
(408,462,o),
(305,462,cs),
(135,462,o),
(99,337,o),
(92,207,c),
(168,227,l),
(169,330,o),
(174,374,o),
(278,374,cs),
(356,374,o),
(374,340,o),
(374,260,cs)
);
},
{
closed = 1;
nodes = (
(168,398,l),
(156,398,l),
(146,450,l),
(64,450,l),
(64,0,l),
(168,0,l)
);
}
);
width = 542;
},
{
anchors = (
{
name = bottom;
pos = (245,0);
},
{
name = top;
pos = (245,450);
}
);
background = {
shapes = (
{
closed = 0;
nodes = (
(282,466,ls),
(142,466,o),
(92,323,o),
(86,213,c)
);
}
);
};
layerId = m004;
shapes = (
{
closed = 1;
nodes = (
(386,0,l),
(420,0,l),
(420,266,ls),
(420,402,o),
(383,466,o),
(263,466,cs),
(140,466,o),
(104,397,o),
(104,264,c),
(118,264,l),
(118,375,o),
(158,437,o),
(259,437,cs),
(360,437,o),
(386,382,o),
(386,274,cs)
);
},
{
closed = 1;
nodes = (
(118,413,l),
(118,422,l),
(118,450,l),
(84,450,l),
(84,0,l),
(118,0,l)
);
}
);
width = 504;
}
);
metricRight = "=|";
unicode = 110;
},
{
glyphname = o;
lastChange = "2025-09-10 08:51:20 +0000";
layers = (
{
anchors = (
{
name = bottom;
pos = (262,0);
},
{
name = center;
pos = (262,225);
},
{
name = ogonek;
pos = (472,10);
},
{
name = top;
pos = (262,450);
},
{
name = topright;
pos = (504,450);
}
);
layerId = m002;
shapes = (
{
closed = 1;
nodes = (
(373,-12,o),
(485,36,o),
(485,225,cs),
(485,413,o),
(363,462,o),
(262,462,cs),
(151,462,o),
(39,415,o),
(39,225,cs),
(39,36,o),
(151,-12,o),
(262,-12,cs)
);
},
{
closed = 1;
nodes = (
(199,76,o),
(139,99,o),
(139,225,cs),
(139,350,o),
(199,374,o),
(262,374,cs),
(325,374,o),
(385,350,o),
(385,225,c),
(385,99,o),
(325,76,o),
(262,76,cs)
);
}
);
width = 524;
},
{
anchors = (
{
name = bottom;
pos = (272,0);
},
{
name = center;
pos = (272,225);
},
{
name = ogonek;
pos = (490,10);
},
{
name = top;
pos = (272,450);
},
{
name = topright;
pos = (524,450);
}
);
layerId = m004;
shapes = (
{
closed = 1;
nodes = (
(343,-16,o),
(455,36,o),
(455,225,cs),
(455,413,o),
(343,466,o),
(257,466,cs),
(166,466,o),
(59,415,o),
(59,225,cs),
(59,36,o),
(166,-16,o),
(257,-16,cs)
);
},
{
closed = 1;
nodes = (
(184,16,o),
(95,48,o),
(95,225,cs),
(95,401,o),
(184,434,o),
(257,434,cs),
(325,434,o),
(419,401,o),
(419,225,cs),
(419,48,o),
(325,16,o),
(257,16,cs)
);
}
);
width = 514;
}
);
metricRight = "=|";
unicode = 111;
},
{
glyphname = oslash;
lastChange = "2025-09-11 09:58:40 +0000";
layers = (
{
anchors = (
{
name = top;
pos = (300,450);
}
);
layerId = m004;
shapes = (
{
ref = o;
},
{
closed = 1;
nodes = (
(69,0,l),
(112,0,l),
(465,450,l),
(422,450,l)
);
}
);
width = 524;
},
{
anchors = (
{
name = top;
pos = (262,450);
}
);
layerId = m002;
shapes = (
{
ref = o;
},
{
closed = 1;
nodes = (
(39,0,l),
(128,0,l),
(485,450,l),
(396,450,l)
);
}
);
width = 524;
}
);
metricLeft = "=o";
metricRight = "=o";
unicode = 248;
},
{
glyphname = oe;
lastChange = "2025-09-10 10:35:23 +0000";
layers = (
{
anchors = (
{
name = bottom;
pos = (436,0);
},
{
name = top;
pos = (435,450);
}
);
layerId = m004;
shapes = (
{
closed = 1;
nodes = (
(343,-16,o),
(455,36,o),
(455,225,cs),
(455,413,o),
(343,466,o),
(257,466,cs),
(166,466,o),
(59,415,o),
(59,225,cs),
(59,36,o),
(166,-16,o),
(257,-16,cs)
);
},
{
closed = 1;
nodes = (
(184,16,o),
(95,48,o),
(95,225,cs),
(95,401,o),
(184,434,o),
(257,434,cs),
(325,434,o),
(419,401,o),
(419,225,cs),
(419,48,o),
(325,16,o),
(257,16,cs)
);
},
{
closed = 1;
nodes = (
(726,-12,o),
(797,40,o),
(800,136,c),
(768,136,l),
(764,60,o),
(712,18,o),
(619,18,cs),
(530,18,o),
(455,66,o),
(455,213,c),
(803,211,l),
(803,216,o),
(803,220,o),
(803,225,cs),
(803,411,o),
(723,462,o),
(611,462,cs),
(499,462,o),
(419,411,o),
(419,225,cs),
(419,40,o),
(507,-12,o),
(619,-12,c)
);
},
{
closed = 1;
nodes = (
(455,391,o),
(522,432,o),
(611,432,cs),
(700,432,o),
(768,391,o),
(768,242,c),
(455,242,l)
);
}
);
width = 862;
},
{
anchors = (
{
name = bottom;
pos = (430,0);
},
{
name = top;
pos = (430,450);
}
);
layerId = m002;
shapes = (
{
closed = 1;
nodes = (
(373,-12,o),
(485,36,o),
(485,225,cs),
(485,413,o),
(363,462,o),
(262,462,cs),
(151,462,o),
(39,415,o),
(39,225,cs),
(39,36,o),
(151,-12,o),
(262,-12,cs)
);
},
{
closed = 1;
nodes = (
(199,76,o),
(139,99,o),
(139,225,cs),
(139,350,o),
(199,374,o),
(262,374,cs),
(325,374,o),
(385,350,o),
(385,225,c),
(385,99,o),
(325,76,o),
(262,76,cs)
);
},
{
closed = 1;
nodes = (
(700,-12,o),
(792,34,o),
(793,131,c),
(696,131,l),
(696,88,o),
(661,76,o),
(604,76,cs),
(547,76,o),
(495,100,o),
(493,187,c),
(796,186,l),
(797,199,o),
(798,211,o),
(798,225,cs),
(798,429,o),
(715,462,o),
(604,462,cs),
(493,462,o),
(385,431,o),
(385,225,cs),
(385,20,o),
(501,-12,o),
(604,-12,cs)
);
},
{
closed = 1;
nodes = (
(494,358,o),
(540,374,o),
(598,374,cs),
(657,374,o),
(692,358,o),
(692,267,c),
(494,268,l)
);
}
);
width = 837;
}
);
metricLeft = "=o";
metricRight = "=e";
unicode = 339;
},
{
glyphname = p;
lastChange = "2025-09-12 09:43:30 +0000";
layers = (
{
anchors = (
{
name = bottom;
pos = (257,0);
},
{
name = top;
pos = (257,450);
}
);
layerId = m002;
shapes = (
{
closed = 1;
nodes = (
(168,-200,l),
(168,151,l),
(114,202,l),
(168,300,l),
(168,407,l),
(155,407,l),
(142,450,l),
(64,450,l),
(64,-200,l)
);
},
{
closed = 1;
nodes = (
(396,-12,o),
(485,29,o),
(485,223,cs),
(485,410,o),
(396,462,o),
(279,462,cs),
(200,462,o),
(108,423,o),
(108,263,c),
(113,213,l),
(113,46,o),
(180,-12,o),
(279,-12,cs)
);
},
{
closed = 1;
nodes = (
(212,74,o),
(164,96,o),
(164,227,c),
(164,359,o),
(212,377,o),
(270,377,cs),
(324,377,o),
(381,359,o),
(381,225,cs),
(381,87,o),
(324,74,o),
(270,74,cs)
);
}
);
width = 524;
},
{
anchors = (
{
name = bottom;
pos = (247,0);
},
{
name = top;
pos = (247,450);
}
);
layerId = m004;
shapes = (
{
closed = 1;
nodes = (
(118,-200,l),
(118,121,l),
(102,202,l),
(118,330,l),
(118,450,l),
(117,450,l),
(104,450,l),
(84,450,l),
(84,-200,l)
);
},
{
closed = 1;
nodes = (
(354,-13,o),
(434,32,o),
(434,225,cs),
(434,413,o),
(355,466,o),
(247,466,cs),
(168,466,o),
(85,404,o),
(85,237,c),
(86,187,l),
(86,27,o),
(187,-13,o),
(251,-13,cs)
);
},
{
closed = 1;
nodes = (
(188,17,o),
(114,63,o),
(111,227,c),
(111,377,o),
(176,436,o),
(243,436,cs),
(328,436,o),
(398,401,o),
(398,226,cs),
(398,39,o),
(318,17,o),
(245,17,cs)
);
}
);
width = 493;
}
);
metricLeft = "=n";
metricRight = o;
unicode = 112;
},
{
glyphname = q;
lastChange = "2025-09-11 11:30:36 +0000";
layers = (
{
anchors = (
{
name = bottom;
pos = (268,0);
},
{
name = top;
pos = (268,450);
}
);
background = {
shapes = (
{
closed = 1;
nodes = (
(324,-12,o),
(416,27,o),
(416,187,c),
(411,237,l),
(411,404,o),
(344,462,o),
(245,462,cs),
(113,462,o),
(48,414,o),
(48,227,cs),
(48,30,o),
(113,-12,o),
(245,-12,cs)
);
},
{
closed = 1;
nodes = (
(200,74,o),
(143,91,o),
(143,227,cs),
(143,354,o),
(200,376,o),
(254,376,cs),
(312,376,o),
(359,334,o),
(360,227,c),
(359,110,o),
(312,74,o),
(254,74,cs)
);
}
);
};
layerId = m002;
shapes = (
{
closed = 1;
nodes = (
(460,-200,l),
(460,450,l),
(382,450,l),
(369,407,l),
(356,407,l),
(356,300,l),
(410,202,l),
(356,151,l),
(356,-200,l)
);
},
{
closed = 1;
nodes = (
(344,-12,o),
(411,46,o),
(411,213,c),
(416,263,l),
(416,423,o),
(324,462,o),
(245,462,cs),
(128,462,o),
(39,410,o),
(39,223,cs),
(39,26,o),
(118,-12,o),
(245,-12,cs)
);
},
{
closed = 1;
nodes = (
(190,74,o),
(143,96,o),
(143,223,cs),
(143,359,o),
(200,377,o),
(254,377,cs),
(312,377,o),
(360,359,o),
(360,227,c),
(360,96,o),
(312,74,o),
(254,74,cs)
);
}
);
width = 524;
},
{
anchors = (
{
name = bottom;
pos = (247,0);
},
{
name = top;
pos = (247,450);
}
);
layerId = m004;
shapes = (
{
closed = 1;
nodes = (
(409,-200,l),
(409,450,l),
(389,450,l),
(376,450,l),
(375,450,l),
(375,330,l),
(391,202,l),
(375,121,l),
(375,-200,l)
);
},
{
closed = 1;
nodes = (
(306,-13,o),
(407,27,o),
(407,187,c),
(408,237,l),
(408,404,o),
(325,466,o),
(246,466,cs),
(138,466,o),
(59,413,o),
(59,225,cs),
(59,32,o),
(139,-13,o),
(242,-13,cs)
);
},
{
closed = 1;
nodes = (
(175,17,o),
(95,39,o),
(95,226,cs),
(95,401,o),
(165,436,o),
(250,436,cs),
(317,436,o),
(382,377,o),
(382,227,c),
(379,63,o),
(305,17,o),
(248,17,cs)
);
}
);
width = 493;
}
);
metricLeft = "=o";
metricRight = "=n";
unicode = 113;
},
{
glyphname = r;
lastChange = "2025-09-11 11:30:55 +0000";
layers = (
{
anchors = (
{
name = bottom;
pos = (173,0);
},
{
name = top;
pos = (173,450);
}
);
layerId = m002;
shapes = (
{
closed = 1;
nodes = (
(341,354,l),
(341,450,l),
(288,450,l),
(166,450,o),
(88,362,o),
(87,199,c),
(169,198,l),
(169,310,o),
(213,354,o),
(288,354,c)
);
},
{
closed = 1;
nodes = (
(169,398,l),
(157,398,l),
(147,450,l),
(64,450,l),
(64,0,l),
(169,0,l)
);
}
);
width = 346;
},
{
anchors = (
{
name = bottom;
pos = (186,0);
},
{
name = top;
pos = (186,450);
}
);
layerId = m004;
shapes = (
{
closed = 1;
nodes = (
(269,418,l),
(269,450,l),
(232,450,l),
(134,450,o),
(86,390,o),
(85,259,c),
(118,259,l),
(118,383,o),
(165,418,o),
(232,418,c)
);
},
{
closed = 1;
nodes = (
(118,413,l),
(118,422,l),
(118,450,l),
(84,450,l),
(84,0,l),
(118,0,l)
);
}
);
width = 296;
}
);
metricLeft = n;
unicode = 114;
},
{
glyphname = s;
lastChange = "2025-09-10 08:51:20 +0000";
layers = (
{
anchors = (
{
name = bottom;
pos = (183,0);
},
{
name = top;
pos = (183,450);
}
);
layerId = m002;
shapes = (
{
closed = 1;
nodes = (
(328,-12,o),
(381,46,o),
(381,132,cs),
(381,290,o),
(133,257,o),
(133,339,cs),
(133,372,o),
(165,381,o),
(200,381,cs),
(252,381,o),
(275,371,o),
(275,312,c),
(372,312,l),
(372,437,o),
(302,462,o),
(207,462,cs),
(112,462,o),
(39,437,o),
(39,332,cs),
(39,176,o),
(279,208,o),
(279,125,cs),
(279,99,o),
(267,71,o),
(211,71,cs),
(151,71,o),
(121,92,o),
(121,149,c),
(24,149,l),
(24,46,o),
(73,-12,o),
(213,-12,cs)
);
}
);
width = 412;
},
{
anchors = (
{
name = bottom;
pos = (183,0);
},
{
name = top;
pos = (183,450);
}
);
layerId = m004;
shapes = (
{
closed = 1;
nodes = (
(279,-12,o),
(340,26,o),
(340,108,cs),
(340,282,o),
(68,214,o),
(68,347,cs),
(68,408,o),
(116,432,o),
(186,432,cs),
(256,432,o),
(303,408,o),
(303,337,c),
(337,337,l),
(337,432,o),
(267,462,o),
(186,462,cs),
(100,462,o),
(37,427,o),
(37,348,cs),
(37,173,o),
(306,256,o),
(306,101,cs),
(306,31,o),
(232,18,o),
(178,18,cs),
(98,18,o),
(46,58,o),
(42,136,c),
(10,136,l),
(13,38,o),
(84,-12,o),
(178,-12,cs)
);
}
);
width = 367;
}
);
unicode = 115;
},
{
glyphname = germandbls;
lastChange = "2025-09-10 14:57:27 +0000";
layers = (
{
anchors = (
{
name = bottom;
pos = (300,0);
},
{
name = top;
pos = (300,680);
}
);
layerId = m004;
shapes = (
{
closed = 1;
nodes = (
(162,0,l),
(162,493,ls),
(162,567,o),
(187,628,o),
(275,628,cs),
(383,628,o),
(418,567,o),
(418,493,cs),
(418,428,o),
(382,377,o),
(265,377,c),
(265,345,l),
(397,345,o),
(437,280,o),
(437,176,cs),
(437,84,o),
(373,32,o),
(275,32,c),
(275,0,l),
(384,0,o),
(473,58,o),
(473,178,cs),
(473,272,o),
(436,334,o),
(366,361,c),
(429,385,o),
(454,434,o),
(454,495,cs),
(454,596,o),
(384,660,o),
(275,660,cs),
(186,660,o),
(126,596,o),
(126,495,cs),
(126,0,l)
);
}
);
width = 600;
},
{
anchors = (
{
name = bottom;
pos = (300,0);
},
{
name = top;
pos = (300,680);
}
);
layerId = m002;
shapes = (
{
closed = 1;
nodes = (
(198,0,l),
(198,485,ls),
(198,534,o),
(220,574,o),
(285,574,cs),
(350,574,o),
(372,534,o),
(372,485,cs),
(372,436,o),
(340,401,o),
(275,401,c),
(275,330,l),
(370,330,o),
(412,276,o),
(412,193,cs),
(412,126,o),
(370,91,o),
(285,91,c),
(285,0,l),
(433,0,o),
(513,64,o),
(513,193,cs),
(513,279,o),
(478,336,o),
(421,368,c),
(460,395,o),
(483,436,o),
(483,490,cs),
(483,601,o),
(403,665,o),
(285,665,cs),
(159,665,o),
(83,591,o),
(87,485,c),
(87,0,l)
);
}
);
width = 600;
}
);
unicode = 223;
},
{
glyphname = t;
lastChange = "2025-09-12 20:15:39 +0000";
layers = (
{
anchors = (
{
name = bottom;
pos = (175,0);
},
{
name = center;
pos = (175,225);
},
{
name = top;
pos = (175,559);
},
{
name = topright;
pos = (319,680);
}
);
layerId = m002;
shapes = (
{
closed = 1;
nodes = (
(301,0,l),
(301,88,l),
(246,88,ls),
(213,88,o),
(204,103,o),
(204,129,cs),
(204,559,l),
(101,559,l),
(100,118,ls),
(100,19,o),
(137,0,o),
(216,0,cs)
);
},
{
closed = 1;
nodes = (
(312,363,l),
(312,450,l),
(15,450,l),
(15,362,l)
);
}
);
width = 327;
},
{
anchors = (
{
name = bottom;
pos = (168,0);
},
{
name = center;
pos = (168,225);
},
{
name = top;
pos = (168,549);
},
{
name = topright;
pos = (316,700);
}
);
layerId = m004;
shapes = (
{
closed = 1;
nodes = (
(239,0,l),
(239,30,l),
(183,30,ls),
(153,30,o),
(134,36,o),
(134,93,cs),
(134,549,l),
(100,549,l),
(100,83,ls),
(100,20,o),
(126,0,o),
(183,0,cs)
);
},
{
closed = 1;
nodes = (
(239,420,l),
(239,450,l),
(35,450,l),
(35,420,l)
);
}
);
width = 268;
}
);
metricRight = f;
unicode = 116;
},
{
glyphname = tcaron;
lastChange = "2025-09-11 10:26:02 +0000";
layers = (
{
layerId = m004;
shapes = (
{
ref = t;
},
{
closed = 1;
nodes = (
(168,480,l),
(194,480,l),
(235,650,l),
(194,650,l)
);
}
);
width = 284;
},
{
layerId = m002;
shapes = (
{
ref = t;
},
{
closed = 1;
nodes = (
(310,492,l),
(352,680,l),
(260,680,l),
(242,492,l)
);
}
);
width = 359;
}
);
unicode = 357;
},
{
glyphname = u;
lastChange = "2025-09-11 11:31:42 +0000";
layers = (
{
anchors = (
{
name = bottom;
pos = (261,0);
},
{
name = ogonek;
pos = (471,10);
},
{
name = top;
pos = (261,450);
},
{
name = topright;
pos = (504,450);
}
);
layerId = m002;
shapes = (
{
closed = 1;
nodes = (
(354,56,l),
(366,56,l),
(382,0,l),
(458,0,l),
(458,450,l),
(354,450,l)
);
},
{
closed = 1;
nodes = (
(64,178,ls),
(64,43,o),
(98,-12,o),
(237,-12,cs),
(363,-12,o),
(420,59,o),
(430,243,c),
(354,223,l),
(353,117,o),
(325,76,o),
(254,76,cs),
(192,76,o),
(168,102,o),
(168,170,cs),
(168,450,l),
(64,450,l)
);
}
);
width = 522;
},
{
anchors = (
{
name = bottom;
pos = (245,0);
},
{
name = ogonek;
pos = (440,10);
},
{
name = top;
pos = (245,450);
},
{
name = topright;
pos = (469,450);
}
);
background = {
shapes = (
{
closed = 1;
nodes = (
(118,450,l),
(84,450,l),
(84,164,ls),
(84,38,o),
(164,-16,o),
(249,-16,cs),
(349,-16,o),
(405,29,o),
(405,166,c),
(371,166,l),
(371,54,o),
(339,13,o),
(264,13,cs),
(194,13,o),
(118,47,o),
(118,156,cs)
);
}
);
};
layerId = m004;
shapes = (
{
closed = 1;
nodes = (
(371,37,l),
(371,0,l),
(383,0,l),
(405,0,l),
(405,450,l),
(371,450,l)
);
},
{
closed = 1;
nodes = (
(84,164,ls),
(84,38,o),
(141,-16,o),
(236,-16,cs),
(329,-16,o),
(395,33,o),
(395,166,c),
(371,166,l),
(371,55,o),
(321,13,o),
(240,13,cs),
(164,13,o),
(118,48,o),
(118,156,cs),
(118,450,l),
(84,450,l)
);
}
);
width = 489;
}
);
metricLeft = "=n";
metricRight = n;
unicode = 117;
},
{
glyphname = v;
lastChange = "2025-09-10 08:51:20 +0000";
layers = (
{
anchors = (
{
name = bottom;
pos = (226,0);
},
{
name = top;
pos = (226,450);
}
);
layerId = m002;
shapes = (
{
closed = 1;
nodes = (
(180,1,l),
(272,1,l),
(447,450,l),
(346,450,l),
(204,70,l),
(248,70,l),
(116,450,l),
(5,450,l)
);
}
);
width = 452;
},
{
anchors = (
{
name = bottom;
pos = (213,0);
},
{
name = top;
pos = (213,450);
}
);
background = {
shapes = (
{
closed = 1;
nodes = (
(210,0,l),
(344,417,l),
(332,417,l),
(466,0,l),
(500,0,l),
(646,450,l),
(613,450,l),
(478,31,l),
(489,30,l),
(356,450,l),
(320,450,l),
(188,33,l),
(198,33,l),
(63,450,l),
(30,450,l),
(176,0,l)
);
}
);
};
layerId = m004;
shapes = (
{
closed = 1;
nodes = (
(176,0,l),
(210,0,l),
(356,450,l),
(320,450,l),
(188,33,l),
(198,33,l),
(64,450,l),
(30,450,l)
);
}
);
width = 386;
}
);
metricLeft = "=|";
metricRight = "=y";
unicode = 118;
},
{
glyphname = w;
lastChange = "2025-09-11 11:32:12 +0000";
layers = (
{
anchors = (
{
name = bottom;
pos = (352,0);
},
{
name = top;
pos = (352,450);
}
);
layerId = m002;
shapes = (
{
closed = 1;
nodes = (
(258,1,l),
(365,350,l),
(338,350,l),
(456,1,l),
(557,1,l),
(685,450,l),
(587,450,l),
(496,99,l),
(512,99,l),
(401,450,l),
(303,450,l),
(201,99,l),
(218,99,l),
(117,450,l),
(19,450,l),
(157,1,l)
);
}
);
width = 704;
},
{
anchors = (
{
name = bottom;
pos = (328,0);
},
{
name = top;
pos = (328,450);
}
);
layerId = m004;
shapes = (
{
closed = 1;
nodes = (
(200,0,l),
(334,417,l),
(322,417,l),
(456,0,l),
(490,0,l),
(636,450,l),
(603,450,l),
(468,31,l),
(479,30,l),
(346,450,l),
(310,450,l),
(178,33,l),
(188,33,l),
(53,450,l),
(20,450,l),
(166,0,l)
);
}
);
width = 656;
}
);
metricLeft = "=V";
metricRight = "=|";
unicode = 119;
},
{
glyphname = x;
lastChange = "2025-09-10 11:49:04 +0000";
layers = (
{
anchors = (
{
name = bottom;
pos = (244,0);
},
{
name = top;
pos = (244,450);
}
);
layerId = m002;
shapes = (
{
closed = 1;
nodes = (
(354,1,l),
(467,1,l),
(144,450,l),
(31,450,l)
);
},
{
closed = 1;
nodes = (
(284,202,l),
(457,450,l),
(344,450,l),
(225,276,l)
);
},
{
closed = 1;
nodes = (
(134,1,l),
(278,202,l),
(219,276,l),
(21,1,l)
);
}
);
width = 488;
},
{
anchors = (
{
name = bottom;
pos = (202,0);
},
{
name = top;
pos = (202,450);
}
);
layerId = m004;
shapes = (
{
closed = 1;
nodes = (
(344,1,l),
(384,1,l),
(61,450,l),
(21,450,l)
);
},
{
closed = 1;
nodes = (
(209,227,l),
(358,450,l),
(319,450,l),
(192,251,l)
);
},
{
closed = 1;
nodes = (
(58,0,l),
(206,221,l),
(186,248,l),
(20,0,l)
);
}
);
width = 404;
}
);
metricRight = "=|";
unicode = 120;
},
{
glyphname = y;
lastChange = "2025-09-10 08:51:20 +0000";
layers = (
{
anchors = (
{
name = bottom;
pos = (226,0);
},
{
name = top;
pos = (226,450);
}
);
background = {
shapes = (
{
closed = 1;
nodes = (
(164,2,l),
(256,2,l),
(431,451,l),
(333,451,l),
(188,71,l),
(232,71,l),
(87,451,l),
(-11,451,l)
);
}
);
};
layerId = m002;
shapes = (
{
closed = 1;
nodes = (
(185,23,l),
(184,-20,l),
(5,451,l),
(116,451,l),
(247,71,l),
(205,71,l),
(339,451,l),
(446,451,l),
(231,-104,ls),
(209,-160,o),
(169,-199,o),
(98,-199,cs),
(45,-199,o),
(58,-198,o),
(10,-198,c),
(10,-106,l),
(10,-108,o),
(55,-106,o),
(87,-106,cs),
(123,-106,o),
(145,-78,o),
(160,-40,cs)
);
}
);
width = 451;
},
{
anchors = (
{
name = bottom;
pos = (231,0);
},
{
name = top;
pos = (231,450);
}
);
background = {
shapes = (
{
closed = 1;
nodes = (
(194,0,l),
(228,0,l),
(374,450,l),
(338,450,l),
(206,33,l),
(216,33,l),
(82,450,l),
(48,450,l)
);
}
);
};
layerId = m004;
shapes = (
{
closed = 1;
nodes = (
(200,18,l),
(194,0,l),
(48,450,l),
(82,450,l),
(216,33,l),
(206,33,l),
(339,451,l),
(374,450,l),
(193,-105,ls),
(169,-176,o),
(141,-200,o),
(60,-200,cs),
(7,-200,o),
(29,-200,o),
(15,-200,c),
(15,-169,l),
(15,-171,o),
(60,-169,o),
(75,-169,cs),
(120,-169,o),
(148,-138,o),
(156,-113,cs)
);
}
);
width = 404;
}
);
unicode = 121;
},
{
glyphname = z;
lastChange = "2025-09-10 08:51:20 +0000";
layers = (
{
anchors = (
{
name = bottom;
pos = (226,0);
},
{
name = center;
pos = (226,225);
},
{
name = top;
pos = (226,450);
}
);
layerId = m002;
shapes = (
{
closed = 1;
nodes = (
(54,90,l),
(54,0,l),
(398,0,l),
(398,80,l),
(166,80,l),
(398,360,l),
(398,450,l),
(54,450,l),
(54,370,l),
(286,370,l)
);
}
);
width = 452;
},
{
anchors = (
{
name = bottom;
pos = (246,0);
},
{
name = center;
pos = (246,225);
},
{
name = top;
pos = (246,450);
}
);
layerId = m004;
shapes = (
{
closed = 1;
nodes = (
(74,30,l),
(74,0,l),
(418,0,l),
(418,30,l),
(111,30,l),
(418,420,l),
(418,450,l),
(74,450,l),
(74,420,l),
(381,420,l)
);
}
);
width = 492;
}
);
metricLeft = "=n-10";
metricRight = "=|";
unicode = 122;
},
{
glyphname = zero;
lastChange = "2025-09-10 08:51:20 +0000";
layers = (
{
layerId = m002;
shapes = (
{
closed = 1;
nodes = (
(156,526,o),
(208,570,o),
(284,570,cs),
(350,570,o),
(402,526,o),
(402,325,cs),
(402,124,o),
(350,80,o),
(284,80,cs),
(208,80,o),
(156,124,o),
(156,325,cs)
);
},
{
closed = 1;
nodes = (
(45,53,o),
(155,-16,o),
(284,-16,cs),
(404,-16,o),
(513,53,o),
(513,325,cs),
(513,597,o),
(404,666,o),
(284,666,cs),
(155,666,o),
(45,597,o),
(45,325,cs)
);
}
);
width = 558;
},
{
layerId = m004;
shapes = (
{
closed = 1;
nodes = (
(64,565,o),
(148,632,o),
(236,632,cs),
(310,632,o),
(394,565,o),
(394,325,cs),
(394,84,o),
(310,17,o),
(236,17,cs),
(148,17,o),
(64,84,o),
(64,325,cs)
);
},
{
closed = 1;
nodes = (
(25,63,o),
(133,-16,o),
(234,-16,cs),
(327,-16,o),
(433,63,o),
(433,325,cs),
(433,587,o),
(327,666,o),
(234,666,cs),
(133,666,o),
(25,587,o),
(25,325,cs)
);
}
);
width = 457;
}
);
unicode = 48;
},
{
glyphname = one;
lastChange = "2025-09-10 08:51:20 +0000";
layers = (
{
layerId = m002;
shapes = (
{
closed = 1;
nodes = (
(211,650,l),
(211,638,l),
(211,569,o),
(169,556,o),
(108,556,c),
(45,556,l),
(45,468,l),
(211,468,l),
(211,0,l),
(317,0,l),
(317,650,l)
);
}
);
width = 362;
},
{
layerId = m004;
shapes = (
{
closed = 1;
nodes = (
(194,650,l),
(194,638,ls),
(194,589,o),
(162,576,o),
(116,576,cs),
(58,576,l),
(58,546,l),
(194,546,l),
(194,0,l),
(230,0,l),
(230,650,l)
);
}
);
width = 329;
}
);
unicode = 49;
},
{
glyphname = two;
lastChange = "2025-09-10 13:16:56 +0000";
layers = (
{
layerId = m002;
shapes = (
{
closed = 1;
nodes = (
(472,0,l),
(472,95,l),
(223,95,l),
(266,136,o),
(324,193,o),
(381,254,cs),
(433,309,o),
(469,358,o),
(469,450,cs),
(469,609,o),
(372,662,o),
(263,662,cs),
(151,662,o),
(63,609,o),
(63,450,c),
(166,450,l),
(166,526,o),
(204,566,o),
(263,567,cs),
(329,568,o),
(358,526,o),
(358,446,cs),
(358,400,o),
(337,358,o),
(289,309,cs),
(198,216,o),
(107,127,o),
(45,66,c),
(45,0,l)
);
}
);
width = 517;
},
{
background = {
shapes = (
{
closed = 0;
nodes = (
(83,450,l)
);
}
);
};
layerId = m004;
shapes = (
{
closed = 1;
nodes = (
(402,0,l),
(402,32,l),
(84,32,l),
(127,73,o),
(190,131,o),
(247,192,cs),
(299,247,o),
(405,346,o),
(405,460,cs),
(405,589,o),
(338,662,o),
(229,662,cs),
(117,662,o),
(43,589,o),
(43,450,c),
(81,450,l),
(81,589,o),
(157,630,o),
(229,630,cs),
(295,630,o),
(368,589,o),
(368,460,cs),
(368,361,o),
(279,276,o),
(229,221,cs),
(185,173,o),
(87,78,o),
(25,17,c),
(25,0,l)
);
}
);
width = 437;
}
);
unicode = 50;
},
{
glyphname = three;
lastChange = "2025-09-10 13:28:11 +0000";
layers = (
{
background = {
shapes = (
{
closed = 0;
nodes = (
(204,83,ls),
(145,84,o),
(107,114,o),
(107,200,c),
(4,200,l),
(4,31,o),
(102,-12,o),
(204,-12,cs)
);
}
);
};
layerId = m002;
shapes = (
{
closed = 1;
nodes = (
(373,-12,o),
(472,78,o),
(472,198,cs),
(472,302,o),
(391,434,o),
(216,410,c),
(263,383,l),
(430,567,l),
(430,650,l),
(45,650,l),
(45,555,l),
(291,555,l),
(149,399,l),
(149,330,l),
(224,330,l),
(333,330,o),
(361,244,o),
(361,198,cs),
(361,145,o),
(338,81,o),
(224,83,cs),
(145,84,o),
(107,114,o),
(107,200,c),
(4,200,l),
(4,31,o),
(102,-12,o),
(224,-12,cs)
);
}
);
width = 517;
},
{
background = {
shapes = (
{
closed = 0;
nodes = (
(175,16,ls),
(103,16,o),
(27,57,o),
(27,196,c),
(-11,196,l),
(-11,57,o),
(63,-16,o),
(175,-16,cs)
);
}
);
};
layerId = m004;
shapes = (
{
closed = 1;
nodes = (
(342,-16,o),
(402,68,o),
(402,188,cs),
(402,311,o),
(342,398,o),
(125,398,c),
(144,376,l),
(367,627,l),
(367,650,l),
(15,650,l),
(15,618,l),
(318,618,l),
(119,399,l),
(119,365,l),
(119,365,l),
(309,365,o),
(367,298,o),
(367,188,cs),
(367,81,o),
(309,16,o),
(205,16,cs),
(123,16,o),
(47,37,o),
(47,166,c),
(9,166,l),
(9,37,o),
(83,-16,o),
(204,-16,cs)
);
}
);
width = 417;
}
);
unicode = 51;
},
{
glyphname = four;
lastChange = "2025-09-10 08:51:20 +0000";
layers = (
{
layerId = m002;
shapes = (
{
closed = 1;
nodes = (
(321,650,l),
(321,0,l),
(427,0,l),
(427,650,l)
);
},
{
closed = 1;
nodes = (
(45,143,l),
(502,143,l),
(502,231,l),
(166,231,l),
(421,650,l),
(321,650,l),
(45,209,l)
);
}
);
width = 517;
},
{
layerId = m004;
shapes = (
{
closed = 1;
nodes = (
(307,650,l),
(307,0,l),
(343,0,l),
(343,650,l)
);
},
{
closed = 1;
nodes = (
(41,143,l),
(418,143,l),
(418,173,l),
(76,173,l),
(340,650,l),
(305,650,l),
(41,173,l)
);
}
);
width = 453;
}
);
unicode = 52;
},
{
glyphname = five;
lastChange = "2025-09-12 09:12:57 +0000";
layers = (
{
background = {
shapes = (
{
closed = 0;
nodes = (
(141,562,l)
);
},
{
closed = 0;
nodes = (
(58,650,l)
);
}
);
};
layerId = m002;
shapes = (
{
closed = 1;
nodes = (
(373,-12,o),
(456,78,o),
(456,193,cs),
(456,339,o),
(368,409,o),
(206,409,cs),
(139,409,l),
(144,562,l),
(422,562,l),
(422,650,l),
(48,650,l),
(35,304,l),
(69,306,o),
(110,310,o),
(162,310,cs),
(298,310,o),
(345,271,o),
(345,193,cs),
(345,145,o),
(338,81,o),
(224,83,cs),
(145,84,o),
(107,114,o),
(107,200,c),
(4,200,l),
(4,31,o),
(102,-12,o),
(224,-12,cs)
);
}
);
width = 501;
},
{
background = {
shapes = (
{
closed = 0;
nodes = (
(195,16,ls),
(123,16,o),
(47,57,o),
(47,196,c),
(9,196,l),
(9,57,o),
(83,-16,o),
(195,-16,cs)
);
}
);
};
layerId = m004;
shapes = (
{
closed = 1;
nodes = (
(349,-16,o),
(419,48,o),
(419,158,cs),
(419,294,o),
(332,359,o),
(186,359,cs),
(98,359,l),
(127,618,l),
(384,618,l),
(384,650,l),
(98,650,l),
(62,330,l),
(79,331,o),
(119,330,o),
(186,330,cs),
(333,330,o),
(385,250,o),
(384,158,cs),
(383,69,o),
(326,16,o),
(224,16,cs),
(124,16,o),
(63,67,o),
(63,196,c),
(29,196,l),
(29,56,o),
(93,-16,o),
(225,-16,cs)
);
}
);
width = 464;
}
);
unicode = 53;
},
{
glyphname = six;
lastChange = "2025-09-11 09:06:47 +0000";
layers = (
{
layerId = m002;
shapes = (
{
closed = 1;
nodes = (
(387,114,o),
(348,76,o),
(263,76,cs),
(188,76,o),
(149,114,o),
(149,197,cs),
(149,279,o),
(177,331,o),
(271,331,cs),
(348,331,o),
(387,279,o),
(387,197,cs)
);
},
{
closed = 1;
nodes = (
(392,-10,o),
(492,50,o),
(492,195,cs),
(492,340,o),
(402,417,o),
(271,417,cs),
(219,417,o),
(179,405,o),
(140,373,c),
(144,526,o),
(167,569,o),
(265,569,cs),
(352,569,o),
(391,529,o),
(391,452,c),
(487,452,l),
(487,611,o),
(399,664,o),
(267,664,cs),
(125,664,o),
(40,582,o),
(36,310,cs),
(36,159,o),
(46,-10,o),
(263,-10,cs)
);
}
);
width = 542;
},
{
background = {
shapes = (
{
closed = 0;
nodes = (
(179,630,ls),
(277,630,o),
(389,575,o),
(389,450,c),
(423,450,l),
(423,574,o),
(330,662,o),
(179,662,cs)
);
}
);
};
layerId = m004;
shapes = (
{
closed = 1;
nodes = (
(386,74,o),
(325,20,o),
(225,20,cs),
(137,20,o),
(77,74,o),
(77,176,cs),
(77,279,o),
(122,344,o),
(225,344,cs),
(325,344,o),
(386,279,o),
(386,176,cs)
);
},
{
closed = 1;
nodes = (
(333,-12,o),
(423,46,o),
(423,176,cs),
(423,306,o),
(333,376,o),
(227,376,cs),
(168,376,o),
(110,356,o),
(74,309,c),
(77,558,o),
(137,630,o),
(241,630,cs),
(342,630,o),
(369,555,o),
(369,454,c),
(403,454,l),
(403,593,o),
(352,662,o),
(241,662,cs),
(127,662,o),
(35,593,o),
(34,295,cs),
(34,145,o),
(45,-12,o),
(227,-12,cs)
);
}
);
width = 458;
}
);
unicode = 54;
},
{
glyphname = seven;
lastChange = "2025-09-10 08:51:20 +0000";
layers = (
{
layerId = m002;
shapes = (
{
closed = 1;
nodes = (
(445,650,l),
(15,650,l),
(15,562,l),
(334,562,l),
(101,0,l),
(201,0,l),
(445,584,l)
);
}
);
width = 480;
},
{
layerId = m004;
shapes = (
{
closed = 1;
nodes = (
(381,650,l),
(15,650,l),
(15,618,l),
(338,618,l),
(101,0,l),
(137,0,l),
(381,634,l)
);
}
);
width = 410;
}
);
unicode = 55;
},
{
glyphname = eight;
lastChange = "2025-09-10 12:35:57 +0000";
layers = (
{
layerId = m002;
shapes = (
{
closed = 1;
nodes = (
(57,48,o),
(147,-16,o),
(285,-16,cs),
(423,-16,o),
(513,48,o),
(513,193,cs),
(513,338,o),
(414,401,o),
(285,401,cs),
(156,401,o),
(57,338,o),
(57,193,cs)
);
},
{
closed = 1;
nodes = (
(168,276,o),
(200,330,o),
(285,330,cs),
(370,330,o),
(402,276,o),
(402,198,cs),
(402,120,o),
(360,75,o),
(285,75,cs),
(210,75,o),
(168,120,o),
(168,198,cs)
);
},
{
closed = 1;
nodes = (
(87,384,o),
(176,330,o),
(285,330,cs),
(394,330,o),
(483,384,o),
(483,490,cs),
(483,601,o),
(403,665,o),
(285,665,cs),
(167,665,o),
(87,601,o),
(87,490,cs)
);
},
{
closed = 1;
nodes = (
(198,534,o),
(220,574,o),
(285,574,cs),
(350,574,o),
(372,534,o),
(372,485,cs),
(372,436,o),
(340,401,o),
(285,401,cs),
(230,401,o),
(198,436,o),
(198,485,cs)
);
}
);
width = 570;
},
{
layerId = m004;
shapes = (
{
closed = 1;
nodes = (
(75,42,o),
(157,-16,o),
(275,-16,cs),
(384,-16,o),
(473,42,o),
(473,174,cs),
(473,306,o),
(402,373,o),
(274,373,cs),
(146,373,o),
(75,306,o),
(75,174,cs)
);
},
{
closed = 1;
nodes = (
(111,276,o),
(153,341,o),
(275,341,cs),
(397,341,o),
(437,276,o),
(437,172,cs),
(437,68,o),
(373,16,o),
(275,16,cs),
(163,16,o),
(111,68,o),
(111,172,cs)
);
},
{
closed = 1;
nodes = (
(96,405,o),
(146,341,o),
(275,341,cs),
(404,341,o),
(454,405,o),
(454,501,cs),
(454,602,o),
(384,666,o),
(275,666,cs),
(166,666,o),
(96,602,o),
(96,501,cs)
);
},
{
closed = 1;
nodes = (
(132,573,o),
(167,634,o),
(275,634,cs),
(383,634,o),
(418,573,o),
(418,499,cs),
(418,424,o),
(382,373,o),
(275,373,cs),
(168,373,o),
(132,424,o),
(132,499,cs)
);
}
);
width = 548;
}
);
metricRight = "=|";
unicode = 56;
},
{
glyphname = nine;
lastChange = "2025-09-11 09:07:14 +0000";
layers = (
{
layerId = m002;
shapes = (
{
closed = 1;
nodes = (
(141,540,o),
(180,578,o),
(265,578,cs),
(340,578,o),
(379,540,o),
(379,457,cs),
(379,375,o),
(351,323,o),
(257,323,cs),
(180,323,o),
(141,375,o),
(141,457,cs)
);
},
{
closed = 1;
nodes = (
(136,664,o),
(36,604,o),
(36,459,cs),
(36,314,o),
(126,237,o),
(257,237,cs),
(309,237,o),
(349,249,o),
(388,281,c),
(384,128,o),
(361,85,o),
(263,85,cs),
(176,85,o),
(137,125,o),
(137,202,c),
(41,202,l),
(41,43,o),
(129,-10,o),
(261,-10,cs),
(403,-10,o),
(488,72,o),
(492,344,cs),
(492,495,o),
(482,664,o),
(265,664,cs)
);
}
);
width = 542;
},
{
layerId = m004;
shapes = (
{
closed = 1;
nodes = (
(71,576,o),
(132,630,o),
(232,630,cs),
(320,630,o),
(380,576,o),
(380,474,cs),
(380,371,o),
(335,306,o),
(232,306,cs),
(132,306,o),
(71,371,o),
(71,474,cs)
);
},
{
closed = 1;
nodes = (
(124,662,o),
(34,604,o),
(34,474,cs),
(34,344,o),
(124,274,o),
(230,274,cs),
(289,274,o),
(347,294,o),
(383,341,c),
(380,92,o),
(321,20,o),
(216,20,cs),
(115,20,o),
(88,95,o),
(88,196,c),
(54,196,l),
(54,57,o),
(105,-12,o),
(216,-12,cs),
(331,-12,o),
(422,57,o),
(422,355,cs),
(422,505,o),
(412,662,o),
(230,662,cs)
);
}
);
width = 458;
}
);
unicode = 57;
},
{
glyphname = period;
lastChange = "2025-09-10 08:51:20 +0000";
layers = (
{
layerId = m002;
shapes = (
{
closed = 1;
nodes = (
(139,-12,o),
(153,4,o),
(153,54,cs),
(153,102,o),
(139,117,o),
(88,117,cs),
(37,117,o),
(23,102,o),
(23,54,cs),
(23,4,o),
(37,-12,o),
(88,-12,cs)
);
}
);
width = 176;
},
{
layerId = m004;
shapes = (
{
closed = 1;
nodes = (
(81,-12,o),
(88,-6,o),
(88,17,cs),
(88,39,o),
(81,46,o),
(59,46,cs),
(37,46,o),
(30,39,o),
(30,17,cs),
(30,-6,o),
(37,-12,o),
(59,-12,cs)
);
}
);
width = 118;
}
);
metricRight = "=|";
unicode = 46;
},
{
glyphname = comma;
lastChange = "2025-09-12 09:36:26 +0000";
layers = (
{
layerId = m002;
shapes = (
{
closed = 1;
nodes = (
(131,-71,o),
(157,-31,o),
(157,38,cs),
(157,107,o),
(142,122,o),
(90,122,cs),
(38,122,o),
(23,107,o),
(23,55,cs),
(23,-7,o),
(48,-12,o),
(74,-12,cs),
(81,-12,o),
(90,-10,o),
(98,-7,c),
(93,-41,o),
(76,-61,o),
(56,-82,c),
(86,-117,l)
);
}
);
width = 180;
},
{
layerId = m004;
shapes = (
{
closed = 1;
nodes = (
(70,-43,o),
(79,-18,o),
(79,9,cs),
(79,39,o),
(70,46,o),
(49,46,cs),
(28,46,o),
(19,39,o),
(19,16,cs),
(19,-10,o),
(30,-12,o),
(42,-12,cs),
(45,-12,o),
(52,-12,o),
(57,-9,c),
(57,-18,o),
(52,-35,o),
(43,-46,c),
(60,-58,l)
);
}
);
width = 179;
}
);
unicode = 44;
},
{
glyphname = colon;
lastChange = "2025-09-10 08:51:20 +0000";
layers = (
{
layerId = m004;
shapes = (
{
closed = 1;
nodes = (
(81,-12,o),
(88,-6,o),
(88,17,cs),
(88,39,o),
(81,46,o),
(59,46,cs),
(37,46,o),
(30,39,o),
(30,17,cs),
(30,-6,o),
(37,-12,o),
(59,-12,cs)
);
},
{
closed = 1;
nodes = (
(81,392,o),
(88,398,o),
(88,421,cs),
(88,443,o),
(81,450,o),
(59,450,cs),
(37,450,o),
(30,443,o),
(30,421,cs),
(30,398,o),
(37,392,o),
(59,392,cs)
);
}
);
width = 118;
},
{
layerId = m002;
shapes = (
{
closed = 1;
nodes = (
(139,-12,o),
(153,4,o),
(153,54,cs),
(153,102,o),
(139,117,o),
(88,117,cs),
(37,117,o),
(23,102,o),
(23,54,cs),
(23,4,o),
(37,-12,o),
(88,-12,cs)
);
},
{
closed = 1;
nodes = (
(139,258,o),
(153,274,o),
(153,324,cs),
(153,372,o),
(139,387,o),
(88,387,cs),
(37,387,o),
(23,372,o),
(23,324,cs),
(23,274,o),
(37,258,o),
(88,258,cs)
);
}
);
width = 176;
}
);
metricRight = "=|";
unicode = 58;
},
{
glyphname = semicolon;
lastChange = "2025-09-12 20:13:24 +0000";
layers = (
{
layerId = m004;
shapes = (
{
closed = 1;
nodes = (
(81,392,o),
(88,398,o),
(88,421,cs),
(88,443,o),
(81,450,o),
(59,450,cs),
(37,450,o),
(30,443,o),
(30,421,cs),
(30,398,o),
(37,392,o),
(59,392,cs)
);
},
{
closed = 1;
nodes = (
(70,-43,o),
(79,-18,o),
(79,9,cs),
(79,39,o),
(70,46,o),
(49,46,cs),
(28,46,o),
(19,39,o),
(19,16,cs),
(19,-10,o),
(30,-12,o),
(42,-12,cs),
(45,-12,o),
(52,-12,o),
(57,-9,c),
(57,-18,o),
(52,-35,o),
(43,-46,c),
(60,-58,l)
);
}
);
width = 108;
},
{
layerId = m002;
shapes = (
{
closed = 1;
nodes = (
(139,258,o),
(153,274,o),
(153,324,cs),
(153,372,o),
(139,387,o),
(88,387,cs),
(37,387,o),
(23,372,o),
(23,324,cs),
(23,274,o),
(37,258,o),
(88,258,cs)
);
},
{
closed = 1;
nodes = (
(131,-71,o),
(157,-31,o),
(157,38,cs),
(157,107,o),
(142,122,o),
(90,122,cs),
(38,122,o),
(23,107,o),
(23,55,cs),
(23,-7,o),
(48,-12,o),
(74,-12,cs),
(81,-12,o),
(90,-10,o),
(98,-7,c),
(93,-41,o),
(76,-61,o),
(56,-82,c),
(86,-117,l)
);
}
);
width = 180;
}
);
metricRight = "=|";
unicode = 59;
},
{
glyphname = exclam;
lastChange = "2025-09-10 08:51:20 +0000";
layers = (
{
layerId = m002;
shapes = (
{
closed = 1;
nodes = (
(172,164,l),
(184,384,l),
(184,650,l),
(72,650,l),
(72,384,l),
(84,164,l)
);
},
{
closed = 1;
nodes = (
(173,-13,o),
(186,1,o),
(186,45,cs),
(186,89,o),
(173,102,o),
(128,102,cs),
(83,102,o),
(70,89,o),
(70,45,cs),
(70,1,o),
(83,-13,o),
(128,-13,cs)
);
}
);
width = 256;
},
{
layerId = m004;
shapes = (
{
closed = 1;
nodes = (
(123,138,l),
(130,450,l),
(130,650,l),
(93,650,l),
(93,450,l),
(100,138,l)
);
},
{
closed = 1;
nodes = (
(135,-12,o),
(142,-6,o),
(142,17,cs),
(142,39,o),
(135,46,o),
(113,46,cs),
(91,46,o),
(84,39,o),
(84,17,cs),
(84,-6,o),
(91,-12,o),
(113,-12,cs)
);
}
);
width = 226;
}
);
metricLeft = "=H";
metricRight = "=|";
unicode = 33;
},
{
glyphname = exclamdown;
lastChange = "2025-09-10 08:51:20 +0000";
layers = (
{
layerId = m004;
shapes = (
{
closed = 1;
nodes = (
(103,312,l),
(96,0,l),
(96,-200,l),
(133,-200,l),
(133,0,l),
(126,312,l)
);
},
{
closed = 1;
nodes = (
(91,462,o),
(84,456,o),
(84,433,cs),
(84,411,o),
(91,404,o),
(113,404,cs),
(135,404,o),
(142,411,o),
(142,433,cs),
(142,456,o),
(135,462,o),
(113,462,cs)
);
}
);
width = 226;
},
{
layerId = m002;
shapes = (
{
closed = 1;
nodes = (
(84,286,l),
(72,66,l),
(72,-200,l),
(184,-200,l),
(184,66,l),
(172,286,l)
);
},
{
closed = 1;
nodes = (
(83,463,o),
(70,449,o),
(70,405,cs),
(70,361,o),
(83,348,o),
(128,348,cs),
(173,348,o),
(186,361,o),
(186,405,cs),
(186,449,o),
(173,463,o),
(128,463,cs)
);
}
);
width = 256;
}
);
metricLeft = "=H";
metricRight = "=H";
unicode = 161;
},
{
glyphname = question;
lastChange = "2025-09-26 10:32:33 +0000";
layers = (
{
layerId = m004;
shapes = (
{
closed = 1;
nodes = (
(218,-12,o),
(225,-6,o),
(225,17,cs),
(225,39,o),
(218,46,o),
(196,46,cs),
(174,46,o),
(167,39,o),
(167,17,cs),
(167,-6,o),
(174,-12,o),
(196,-12,cs)
);
},
{
closed = 1;
nodes = (
(214,138,l),
(214,178,ls),
(214,237,o),
(261,275,o),
(283,294,cs),
(311,318,o),
(381,377,o),
(381,460,cs),
(381,589,o),
(314,662,o),
(205,662,cs),
(93,662,o),
(19,589,o),
(19,450,c),
(57,450,l),
(57,589,o),
(133,630,o),
(205,630,cs),
(271,630,o),
(344,589,o),
(344,460,cs),
(344,392,o),
(281,339,o),
(256,316,cs),
(232,294,o),
(180,255,o),
(180,197,cs),
(180,138,l)
);
}
);
width = 400;
},
{
layerId = m002;
shapes = (
{
closed = 1;
nodes = (
(233,-12,o),
(246,1,o),
(246,49,cs),
(246,97,o),
(233,110,o),
(185,110,cs),
(137,110,o),
(124,97,o),
(124,49,cs),
(124,1,o),
(137,-12,o),
(185,-12,cs)
);
},
{
closed = 1;
nodes = (
(234,148,l),
(234,178,ls),
(234,218,o),
(315,278,o),
(337,297,cs),
(365,321,o),
(425,355,o),
(425,463,cs),
(425,612,o),
(328,662,o),
(219,662,cs),
(107,662,o),
(19,612,o),
(19,450,c),
(122,450,l),
(122,524,o),
(150,570,o),
(219,571,cs),
(285,572,o),
(314,524,o),
(314,459,cs),
(314,416,o),
(267,369,o),
(245,349,cs),
(221,327,o),
(130,263,o),
(130,197,cs),
(130,148,l)
);
}
);
width = 444;
}
);
unicode = 63;
},
{
glyphname = questiondown;
lastChange = "2025-09-26 10:32:39 +0000";
layers = (
{
layerId = m004;
shapes = (
{
closed = 1;
nodes = (
(182,462,o),
(175,456,o),
(175,433,cs),
(175,411,o),
(182,404,o),
(204,404,cs),
(226,404,o),
(233,411,o),
(233,433,cs),
(233,456,o),
(226,462,o),
(204,462,cs)
);
},
{
closed = 1;
nodes = (
(186,312,l),
(186,272,ls),
(186,213,o),
(139,175,o),
(117,156,cs),
(89,132,o),
(19,73,o),
(19,-10,cs),
(19,-139,o),
(86,-212,o),
(195,-212,cs),
(307,-212,o),
(381,-139,o),
(381,0,c),
(343,0,l),
(343,-139,o),
(267,-180,o),
(195,-180,cs),
(129,-180,o),
(56,-139,o),
(56,-10,cs),
(56,58,o),
(119,111,o),
(144,134,cs),
(168,156,o),
(220,195,o),
(220,253,cs),
(220,312,l)
);
}
);
width = 400;
},
{
layerId = m002;
shapes = (
{
closed = 1;
nodes = (
(211,463,o),
(198,450,o),
(198,402,cs),
(198,354,o),
(211,341,o),
(259,341,cs),
(307,341,o),
(320,354,o),
(320,402,cs),
(320,450,o),
(307,463,o),
(259,463,cs)
);
},
{
closed = 1;
nodes = (
(212,303,l),
(212,273,ls),
(212,233,o),
(126,173,o),
(107,154,cs),
(81,128,o),
(19,75,o),
(19,-12,cs),
(19,-161,o),
(116,-211,o),
(225,-211,cs),
(337,-211,o),
(425,-161,o),
(425,1,c),
(322,1,l),
(322,-83,o),
(284,-119,o),
(225,-120,cs),
(159,-121,o),
(130,-83,o),
(130,-8,cs),
(130,35,o),
(177,82,o),
(199,102,cs),
(223,124,o),
(314,188,o),
(314,254,cs),
(314,303,l)
);
}
);
width = 444;
}
);
unicode = 191;
},
{
glyphname = periodcentered;
lastChange = "2025-09-11 09:45:28 +0000";
layers = (
{
layerId = m004;
shapes = (
{
closed = 1;
nodes = (
(81,299,o),
(88,305,o),
(88,328,cs),
(88,350,o),
(81,357,o),
(59,357,cs),
(37,357,o),
(30,350,o),
(30,328,cs),
(30,305,o),
(37,299,o),
(59,299,cs)
);
}
);
width = 118;
},
{
layerId = m002;
shapes = (
{
closed = 1;
nodes = (
(139,275,o),
(153,291,o),
(153,341,cs),
(153,389,o),
(139,404,o),
(88,404,cs),
(37,404,o),
(23,389,o),
(23,341,cs),
(23,291,o),
(37,275,o),
(88,275,cs)
);
}
);
width = 176;
}
);
metricRight = "=|";
unicode = 183;
},
{
glyphname = bullet;
lastChange = "2025-09-11 09:47:11 +0000";
layers = (
{
layerId = m004;
shapes = (
{
closed = 1;
nodes = (
(143,268,o),
(160,286,o),
(160,324,cs),
(160,359,o),
(143,377,o),
(105,377,cs),
(66,377,o),
(50,359,o),
(50,324,cs),
(50,286,o),
(66,268,o),
(105,268,cs)
);
}
);
width = 210;
},
{
layerId = m002;
shapes = (
{
closed = 1;
nodes = (
(259,201,o),
(295,241,o),
(295,325,cs),
(295,406,o),
(259,444,o),
(173,444,cs),
(86,444,o),
(50,406,o),
(50,325,cs),
(50,241,o),
(86,201,o),
(173,201,cs)
);
}
);
width = 345;
}
);
metricRight = "=|";
unicode = 8226;
},
{
glyphname = asterisk;
lastChange = "2025-09-12 09:56:09 +0000";
layers = (
{
layerId = m002;
shapes = (
{
closed = 1;
nodes = (
(201,650,l),
(132,650,l),
(142,541,l),
(41,584,l),
(19,517,l),
(127,494,l),
(54,410,l),
(111,370,l),
(167,464,l),
(223,369,l),
(280,410,l),
(207,493,l),
(314,517,l),
(293,584,l),
(192,540,l)
);
}
);
width = 333;
},
{
layerId = m004;
shapes = (
{
closed = 1;
nodes = (
(200,650,l),
(155,650,l),
(166,528,l),
(52,577,l),
(39,535,l),
(158,507,l),
(77,414,l),
(112,387,l),
(176,493,l),
(239,387,l),
(275,413,l),
(195,505,l),
(315,533,l),
(302,575,l),
(189,527,l)
);
}
);
width = 354;
}
);
metricRight = "=|";
unicode = 42;
},
{
glyphname = numbersign;
lastChange = "2025-09-11 09:49:29 +0000";
layers = (
{
layerId = m004;
shapes = (
{
closed = 1;
nodes = (
(80,0,l),
(115,0,l),
(233,650,l),
(198,650,l)
);
},
{
closed = 1;
nodes = (
(320,0,l),
(355,0,l),
(473,650,l),
(438,650,l)
);
},
{
closed = 1;
nodes = (
(70,433,l),
(519,433,l),
(519,467,l),
(70,467,l)
);
},
{
closed = 1;
nodes = (
(40,203,l),
(489,203,l),
(489,236,l),
(40,236,l)
);
}
);
width = 559;
},
{
layerId = m002;
shapes = (
{
closed = 1;
nodes = (
(80,0,l),
(172,0,l),
(290,650,l),
(198,650,l)
);
},
{
closed = 1;
nodes = (
(320,0,l),
(412,0,l),
(530,650,l),
(438,650,l)
);
},
{
closed = 1;
nodes = (
(70,412,l),
(569,412,l),
(569,488,l),
(70,488,l)
);
},
{
closed = 1;
nodes = (
(40,182,l),
(539,182,l),
(539,258,l),
(40,258,l)
);
}
);
width = 609;
}
);
metricLeft = "=40";
metricRight = "=|";
unicode = 35;
},
{
glyphname = slash;
lastChange = "2025-09-10 08:51:20 +0000";
layers = (
{
layerId = m004;
shapes = (
{
closed = 1;
nodes = (
(20,2,l),
(53,2,l),
(311,700,l),
(278,700,l)
);
}
);
width = 331;
},
{
layerId = m002;
shapes = (
{
closed = 1;
nodes = (
(20,-28,l),
(102,-28,l),
(360,680,l),
(278,680,l)
);
}
);
width = 380;
}
);
metricRight = "=|";
unicode = 47;
},
{
glyphname = backslash;
lastChange = "2025-09-11 09:49:43 +0000";
layers = (
{
layerId = m004;
shapes = (
{
closed = 1;
nodes = (
(20,700,l),
(278,2,l),
(311,2,l),
(53,700,l)
);
}
);
width = 331;
},
{
layerId = m002;
shapes = (
{
closed = 1;
nodes = (
(20,680,l),
(278,-28,l),
(360,-28,l),
(102,680,l)
);
}
);
width = 380;
}
);
metricRight = "=|";
unicode = 92;
},
{
glyphname = hyphen;
lastChange = "2025-09-10 11:29:54 +0000";
layers = (
{
layerId = m002;
shapes = (
{
closed = 1;
nodes = (
(34,243,l),
(345,243,l),
(345,329,l),
(34,329,l)
);
}
);
width = 379;
},
{
layerId = m004;
shapes = (
{
closed = 1;
nodes = (
(20,272,l),
(331,272,l),
(331,302,l),
(20,302,l)
);
}
);
width = 351;
}
);
metricRight = "=|";
unicode = 45;
},
{
glyphname = endash;
lastChange = "2025-09-11 09:50:59 +0000";
layers = (
{
layerId = m004;
shapes = (
{
closed = 1;
nodes = (
(20,272,l),
(381,272,l),
(381,302,l),
(20,302,l)
);
}
);
width = 401;
},
{
layerId = m002;
shapes = (
{
closed = 1;
nodes = (
(34,243,l),
(481,243,l),
(481,329,l),
(34,329,l)
);
}
);
width = 515;
}
);
metricRight = "=|";
unicode = 8211;
},
{
glyphname = emdash;
lastChange = "2025-09-11 09:51:47 +0000";
layers = (
{
layerId = m004;
shapes = (
{
closed = 1;
nodes = (
(20,272,l),
(680,272,l),
(680,302,l),
(20,302,l)
);
}
);
width = 700;
},
{
layerId = m002;
shapes = (
{
closed = 1;
nodes = (
(34,243,l),
(749,243,l),
(749,329,l),
(34,329,l)
);
}
);
width = 783;
}
);
metricRight = "=|";
unicode = 8212;
},
{
glyphname = underscore;
lastChange = "2025-09-11 09:52:10 +0000";
layers = (
{
layerId = m004;
shapes = (
{
closed = 1;
nodes = (
(20,-200,l),
(381,-200,l),
(381,-170,l),
(20,-170,l)
);
}
);
width = 401;
},
{
layerId = m002;
shapes = (
{
closed = 1;
nodes = (
(-2,-200,l),
(445,-200,l),
(445,-114,l),
(-2,-114,l)
);
}
);
width = 443;
}
);
metricRight = "=|";
unicode = 95;
},
{
glyphname = parenleft;
lastChange = "2025-09-12 08:41:15 +0000";
layers = (
{
layerId = m002;
shapes = (
{
closed = 1;
nodes = (
(70,68,o),
(159,-79,o),
(221,-178,c),
(310,-121,l),
(250,-29,o),
(176,86,o),
(176,275,cs),
(176,464,o),
(250,579,o),
(310,671,c),
(221,728,l),
(159,629,o),
(70,482,o),
(70,275,cs)
);
}
);
width = 359;
},
{
layerId = m004;
shapes = (
{
closed = 1;
nodes = (
(84,68,o),
(173,-79,o),
(235,-178,c),
(261,-156,l),
(203,-72,o),
(120,86,o),
(120,275,cs),
(120,464,o),
(203,622,o),
(261,706,c),
(235,728,l),
(173,629,o),
(84,482,o),
(84,275,cs)
);
}
);
width = 317;
}
);
metricLeft = "=H";
unicode = 40;
},
{
glyphname = parenright;
lastChange = "2025-09-11 09:57:33 +0000";
layers = (
{
layerId = m002;
shapes = (
{
closed = 1;
nodes = (
(308,482,o),
(219,629,o),
(157,728,c),
(68,671,l),
(128,579,o),
(202,464,o),
(202,275,cs),
(202,86,o),
(128,-29,o),
(68,-121,c),
(157,-178,l),
(219,-79,o),
(308,68,o),
(308,275,cs)
);
}
);
width = 378;
},
{
layerId = m004;
shapes = (
{
closed = 1;
nodes = (
(245,482,o),
(156,629,o),
(94,728,c),
(68,706,l),
(126,622,o),
(209,464,o),
(209,275,cs),
(209,86,o),
(126,-72,o),
(68,-156,c),
(94,-178,l),
(156,-79,o),
(245,68,o),
(245,275,cs)
);
}
);
width = 329;
}
);
metricRight = "=H";
unicode = 41;
},
{
glyphname = braceleft;
lastChange = "2025-09-10 08:51:20 +0000";
layers = (
{
layerId = m004;
shapes = (
{
closed = 1;
nodes = (
(296,-138,l),
(296,-108,l),
(281,-108,ls),
(251,-108,o),
(232,-102,o),
(232,-45,cs),
(232,205,ls),
(232,268,o),
(206,288,o),
(149,288,cs),
(134,288,l),
(134,258,l),
(149,258,ls),
(179,258,o),
(198,252,o),
(198,195,cs),
(198,-55,ls),
(198,-118,o),
(224,-138,o),
(281,-138,cs)
);
},
{
closed = 1;
nodes = (
(224,711,o),
(198,691,o),
(198,628,cs),
(198,351,ls),
(198,294,o),
(179,288,o),
(149,288,cs),
(134,288,l),
(134,258,l),
(149,258,ls),
(205,258,o),
(232,278,o),
(232,341,cs),
(232,618,ls),
(232,675,o),
(251,681,o),
(281,681,cs),
(296,681,l),
(296,711,l),
(281,711,ls)
);
}
);
width = 600;
},
{
layerId = m002;
shapes = (
{
closed = 1;
nodes = (
(358,-148,l),
(358,-60,l),
(285,-60,ls),
(252,-60,o),
(242,-45,o),
(242,-19,cs),
(242,196,ls),
(242,283,o),
(163,308,o),
(123,308,cs),
(20,308,l),
(20,234,l),
(93,234,ls),
(126,234,o),
(136,212,o),
(136,186,cs),
(136,-29,ls),
(136,-116,o),
(182,-148,o),
(255,-148,cs)
);
},
{
closed = 1;
nodes = (
(182,701,o),
(136,669,o),
(136,582,cs),
(136,366,ls),
(136,340,o),
(126,318,o),
(93,318,cs),
(20,318,l),
(20,244,l),
(123,244,ls),
(163,244,o),
(242,269,o),
(242,356,cs),
(242,572,ls),
(242,598,o),
(252,613,o),
(285,613,cs),
(358,613,l),
(358,701,l),
(255,701,ls)
);
}
);
width = 388;
}
);
unicode = 123;
},
{
glyphname = braceright;
lastChange = "2025-09-10 08:51:20 +0000";
layers = (
{
layerId = m004;
shapes = (
{
closed = 1;
nodes = (
(206,-148,o),
(232,-128,o),
(232,-65,cs),
(232,195,ls),
(232,252,o),
(251,258,o),
(281,258,cs),
(296,258,l),
(296,288,l),
(281,288,ls),
(224,288,o),
(198,268,o),
(198,205,cs),
(198,-55,ls),
(198,-112,o),
(179,-118,o),
(149,-118,cs),
(134,-118,l),
(134,-148,l),
(149,-148,ls)
);
},
{
closed = 1;
nodes = (
(134,711,l),
(134,681,l),
(149,681,ls),
(179,681,o),
(198,675,o),
(198,618,cs),
(198,341,ls),
(198,278,o),
(225,258,o),
(281,258,cs),
(296,258,l),
(296,288,l),
(281,288,ls),
(251,288,o),
(232,294,o),
(232,351,cs),
(232,628,ls),
(232,691,o),
(206,711,o),
(149,711,cs)
);
}
);
width = 600;
},
{
layerId = m002;
shapes = (
{
closed = 1;
nodes = (
(206,-148,o),
(252,-116,o),
(252,-29,cs),
(252,186,ls),
(252,212,o),
(262,234,o),
(295,234,cs),
(368,234,l),
(368,308,l),
(265,308,ls),
(225,308,o),
(146,283,o),
(146,196,cs),
(146,-19,ls),
(146,-45,o),
(136,-60,o),
(103,-60,cs),
(30,-60,l),
(30,-148,l),
(133,-148,ls)
);
},
{
closed = 1;
nodes = (
(30,701,l),
(30,613,l),
(103,613,ls),
(136,613,o),
(146,598,o),
(146,572,cs),
(146,356,ls),
(146,269,o),
(225,244,o),
(265,244,cs),
(368,244,l),
(368,318,l),
(295,318,ls),
(262,318,o),
(252,340,o),
(252,366,cs),
(252,582,ls),
(252,669,o),
(206,701,o),
(133,701,cs)
);
}
);
width = 388;
}
);
unicode = 125;
},
{
glyphname = bracketleft;
lastChange = "2025-09-10 08:51:20 +0000";
layers = (
{
layerId = m002;
shapes = (
{
closed = 1;
nodes = (
(282,-148,l),
(282,-60,l),
(219,-60,ls),
(186,-60,o),
(176,-45,o),
(176,-19,cs),
(176,572,ls),
(176,598,o),
(186,613,o),
(219,613,cs),
(282,613,l),
(282,701,l),
(189,701,ls),
(116,701,o),
(70,669,o),
(70,582,cs),
(70,-29,ls),
(70,-116,o),
(116,-148,o),
(189,-148,cs)
);
}
);
width = 292;
},
{
background = {
shapes = (
{
closed = 1;
nodes = (
(182,-148,l),
(182,-60,l),
(119,-60,ls),
(86,-60,o),
(76,-45,o),
(76,-19,cs),
(76,572,ls),
(76,598,o),
(86,613,o),
(119,613,cs),
(182,613,l),
(182,701,l),
(89,701,ls),
(16,701,o),
(-30,669,o),
(-30,582,cs),
(-30,-29,ls),
(-30,-116,o),
(16,-148,o),
(89,-148,cs)
);
}
);
};
layerId = m004;
shapes = (
{
closed = 1;
nodes = (
(182,-148,l),
(182,-118,l),
(167,-118,ls),
(137,-118,o),
(118,-112,o),
(118,-55,cs),
(118,608,ls),
(118,665,o),
(137,671,o),
(167,671,cs),
(182,671,l),
(182,701,l),
(167,701,ls),
(110,701,o),
(84,681,o),
(84,618,cs),
(84,-65,ls),
(84,-128,o),
(110,-148,o),
(167,-148,cs)
);
}
);
width = 192;
}
);
metricLeft = "=H";
unicode = 91;
},
{
glyphname = bracketright;
lastChange = "2025-09-10 08:51:20 +0000";
layers = (
{
layerId = m002;
shapes = (
{
closed = 1;
nodes = (
(176,-148,o),
(222,-116,o),
(222,-29,cs),
(222,582,ls),
(222,669,o),
(176,701,o),
(103,701,cs),
(10,701,l),
(10,613,l),
(73,613,ls),
(106,613,o),
(116,598,o),
(116,572,cs),
(116,-19,ls),
(116,-45,o),
(106,-60,o),
(73,-60,cs),
(10,-60,l),
(10,-148,l),
(103,-148,ls)
);
}
);
width = 292;
},
{
layerId = m004;
shapes = (
{
closed = 1;
nodes = (
(82,-148,o),
(108,-128,o),
(108,-65,cs),
(108,618,ls),
(108,681,o),
(82,701,o),
(25,701,cs),
(10,701,l),
(10,671,l),
(25,671,ls),
(55,671,o),
(74,665,o),
(74,608,cs),
(74,-55,ls),
(74,-112,o),
(55,-118,o),
(25,-118,cs),
(10,-118,l),
(10,-148,l),
(25,-148,ls)
);
}
);
width = 192;
}
);
metricRight = "=H";
unicode = 93;
},
{
glyphname = quotesinglbase;
lastChange = "2025-09-12 09:40:59 +0000";
layers = (
{
layerId = m004;
shapes = (
{
closed = 1;
nodes = (
(78,-39,o),
(88,-26,o),
(88,12,cs),
(88,41,o),
(81,48,o),
(59,48,cs),
(37,48,o),
(30,41,o),
(30,19,cs),
(30,-7,o),
(41,-9,o),
(52,-9,cs),
(56,-9,o),
(59,-8,o),
(62,-7,c),
(62,-17,o),
(59,-34,o),
(50,-48,c),
(72,-48,l)
);
}
);
width = 118;
},
{
layerId = m002;
shapes = (
{
closed = 1;
nodes = (
(131,-71,o),
(157,-31,o),
(157,38,cs),
(157,107,o),
(142,122,o),
(90,122,cs),
(38,122,o),
(23,107,o),
(23,55,cs),
(23,-7,o),
(48,-12,o),
(74,-12,cs),
(81,-12,o),
(90,-10,o),
(98,-7,c),
(93,-41,o),
(76,-61,o),
(56,-82,c),
(86,-117,l)
);
}
);
width = 187;
}
);
unicode = 8218;
},
{
glyphname = quoteleft;
lastChange = "2025-09-15 10:16:34 +0000";
layers = (
{
layerId = m004;
shapes = (
{
closed = 1;
nodes = (
(71,576,o),
(80,583,o),
(80,606,cs),
(80,632,o),
(69,634,o),
(57,634,cs),
(54,634,o),
(47,634,o),
(42,631,c),
(42,640,o),
(47,657,o),
(56,668,c),
(39,680,l),
(29,665,o),
(20,640,o),
(20,613,cs),
(20,583,o),
(29,576,o),
(50,576,cs)
);
}
);
width = 100;
},
{
layerId = m002;
shapes = (
{
closed = 1;
nodes = (
(139,472,o),
(154,487,o),
(154,539,cs),
(154,601,o),
(129,606,o),
(103,606,cs),
(96,606,o),
(87,604,o),
(79,601,c),
(84,635,o),
(101,655,o),
(121,676,c),
(91,711,l),
(46,665,o),
(20,625,o),
(20,556,cs),
(20,487,o),
(35,472,o),
(87,472,cs)
);
}
);
width = 169;
}
);
unicode = 8216;
},
{
glyphname = quoteright;
lastChange = "2025-09-15 10:01:56 +0000";
layers = (
{
layerId = m004;
shapes = (
{
closed = 1;
nodes = (
(71,591,o),
(80,616,o),
(80,643,cs),
(80,673,o),
(71,680,o),
(50,680,cs),
(29,680,o),
(20,673,o),
(20,650,cs),
(20,624,o),
(31,622,o),
(43,622,cs),
(46,622,o),
(53,622,o),
(58,625,c),
(58,616,o),
(53,599,o),
(44,588,c),
(61,576,l)
);
}
);
width = 100;
},
{
layerId = m002;
shapes = (
{
closed = 1;
nodes = (
(128,519,o),
(154,559,o),
(154,628,cs),
(154,697,o),
(139,712,o),
(87,712,cs),
(35,712,o),
(20,697,o),
(20,645,cs),
(20,583,o),
(45,578,o),
(71,578,cs),
(78,578,o),
(87,580,o),
(95,583,c),
(90,549,o),
(73,529,o),
(53,508,c),
(83,473,l)
);
}
);
width = 164;
}
);
unicode = 8217;
},
{
glyphname = guillemetleft;
lastChange = "2025-09-11 19:29:27 +0000";
layers = (
{
layerId = m004;
shapes = (
{
closed = 1;
nodes = (
(123,374,l),
(40,226,l),
(123,77,l),
(165,77,l),
(85,224,l),
(164,374,l)
);
},
{
closed = 1;
nodes = (
(227,374,l),
(144,226,l),
(227,77,l),
(269,77,l),
(189,224,l),
(268,374,l)
);
}
);
width = 309;
},
{
layerId = m002;
shapes = (
{
closed = 1;
nodes = (
(123,374,l),
(40,226,l),
(123,77,l),
(210,77,l),
(130,224,l),
(209,374,l)
);
},
{
closed = 1;
nodes = (
(293,374,l),
(210,226,l),
(293,77,l),
(380,77,l),
(300,224,l),
(379,374,l)
);
}
);
width = 420;
}
);
unicode = 171;
},
{
glyphname = guillemetright;
lastChange = "2025-09-11 19:29:57 +0000";
layers = (
{
layerId = m004;
shapes = (
{
closed = 1;
nodes = (
(224,224,l),
(144,77,l),
(186,77,l),
(269,226,l),
(186,374,l),
(145,374,l)
);
},
{
closed = 1;
nodes = (
(120,224,l),
(40,77,l),
(82,77,l),
(165,226,l),
(82,374,l),
(41,374,l)
);
}
);
width = 309;
},
{
layerId = m002;
shapes = (
{
closed = 1;
nodes = (
(290,224,l),
(210,77,l),
(297,77,l),
(380,226,l),
(297,374,l),
(211,374,l)
);
},
{
closed = 1;
nodes = (
(120,224,l),
(40,77,l),
(127,77,l),
(210,226,l),
(127,374,l),
(41,374,l)
);
}
);
width = 420;
}
);
unicode = 187;
},
{
glyphname = guilsinglleft;
lastChange = "2025-09-11 19:31:13 +0000";
layers = (
{
layerId = m004;
shapes = (
{
closed = 1;
nodes = (
(123,374,l),
(40,226,l),
(123,77,l),
(165,77,l),
(85,224,l),
(164,374,l)
);
}
);
width = 205;
},
{
layerId = m002;
shapes = (
{
closed = 1;
nodes = (
(123,374,l),
(40,226,l),
(123,77,l),
(210,77,l),
(130,224,l),
(209,374,l)
);
}
);
width = 250;
}
);
unicode = 8249;
},
{
glyphname = guilsinglright;
lastChange = "2025-09-11 19:30:51 +0000";
layers = (
{
layerId = m004;
shapes = (
{
closed = 1;
nodes = (
(120,224,l),
(40,77,l),
(82,77,l),
(165,226,l),
(82,374,l),
(41,374,l)
);
}
);
width = 205;
},
{
layerId = m002;
shapes = (
{
closed = 1;
nodes = (
(120,224,l),
(40,77,l),
(127,77,l),
(210,226,l),
(127,374,l),
(41,374,l)
);
}
);
width = 250;
}
);
unicode = 8250;
},
{
glyphname = quotedbl;
lastChange = "2025-09-10 08:51:20 +0000";
layers = (
{
layerId = m004;
shapes = (
{
closed = 1;
nodes = (
(112,520,l),
(124,680,l),
(72,680,l),
(84,520,l)
);
},
{
closed = 1;
nodes = (
(226,520,l),
(238,680,l),
(186,680,l),
(198,520,l)
);
}
);
width = 310;
},
{
layerId = m002;
shapes = (
{
closed = 1;
nodes = (
(162,460,l),
(174,680,l),
(72,680,l),
(84,460,l)
);
},
{
closed = 1;
nodes = (
(306,460,l),
(318,680,l),
(216,680,l),
(228,460,l)
);
}
);
width = 390;
}
);
metricRight = "=|";
unicode = 34;
},
{
glyphname = quotesingle;
lastChange = "2025-09-10 08:51:20 +0000";
layers = (
{
layerId = m004;
shapes = (
{
closed = 1;
nodes = (
(112,520,l),
(124,680,l),
(72,680,l),
(84,520,l)
);
}
);
width = 196;
},
{
layerId = m002;
shapes = (
{
closed = 1;
nodes = (
(162,460,l),
(174,680,l),
(72,680,l),
(84,460,l)
);
}
);
width = 246;
}
);
metricRight = "=|";
unicode = 39;
},
{
glyphname = at;
lastChange = "2025-09-12 08:45:15 +0000";
layers = (
{
layerId = m004;
shapes = (
{
closed = 1;
nodes = (
(610,95,o),
(573,65,o),
(539,65,cs),
(491,65,o),
(450,95,o),
(459,165,cs),
(495,450,l),
(464,450,l),
(458,406,l),
(429,452,o),
(397,459,o),
(364,459,cs),
(283,459,o),
(210,427,o),
(192,278,cs),
(175,136,o),
(230,100,o),
(319,100,cs),
(362,100,o),
(398,112,o),
(425,161,c),
(425,161,l),
(418,89,o),
(467,33,o),
(534,33,cs),
(582,33,o),
(650,70,o),
(679,145,cs),
(695,185,o),
(704,230,o),
(704,280,cs),
(704,486,o),
(584,616,o),
(368,616,cs),
(151,616,o),
(31,486,o),
(31,280,cs),
(31,73,o),
(151,-57,o),
(409,-57,c),
(409,-26,l),
(181,-26,o),
(65,93,o),
(65,280,cs),
(65,466,o),
(181,585,o),
(368,585,cs),
(554,585,o),
(670,456,o),
(670,280,cs),
(670,229,o),
(659,176,o),
(636,138,cs)
);
},
{
closed = 1;
nodes = (
(250,134,o),
(207,154,o),
(223,278,cs),
(240,409,o),
(287,431,o),
(348,431,cs),
(404,431,o),
(450,419,o),
(432,278,cs),
(416,154,o),
(367,134,o),
(311,134,cs)
);
}
);
width = 735;
},
{
layerId = m002;
shapes = (
{
closed = 1;
nodes = (
(598,100,o),
(566,80,o),
(540,80,cs),
(512,80,o),
(481,103,o),
(486,141,cs),
(525,450,l),
(464,450,l),
(452,431,l),
(429,452,o),
(397,459,o),
(364,459,cs),
(283,459,o),
(210,427,o),
(192,278,cs),
(175,136,o),
(230,100,o),
(319,100,cs),
(362,100,o),
(398,112,o),
(425,141,c),
(426,141,l),
(419,69,o),
(467,33,o),
(534,33,cs),
(582,33,o),
(650,70,o),
(679,145,cs),
(695,185,o),
(704,230,o),
(704,280,cs),
(704,486,o),
(574,616,o),
(368,616,cs),
(161,616,o),
(31,486,o),
(31,280,cs),
(31,73,o),
(161,-57,o),
(409,-57,c),
(409,-13,l),
(191,-13,o),
(85,103,o),
(85,280,cs),
(85,456,o),
(191,562,o),
(368,562,cs),
(544,562,o),
(650,456,o),
(650,280,cs),
(650,229,o),
(639,183,o),
(620,145,cs)
);
},
{
closed = 1;
nodes = (
(293,165,o),
(259,181,o),
(272,278,cs),
(285,381,o),
(322,394,o),
(370,394,cs),
(414,394,o),
(450,381,o),
(436,278,cs),
(425,197,o),
(385,165,o),
(341,165,cs)
);
}
);
width = 735;
}
);
metricRight = "=|";
unicode = 64;
},
{
glyphname = ampersand;
lastChange = "2025-09-12 09:55:11 +0000";
layers = (
{
layerId = m004;
shapes = (
{
closed = 1;
nodes = (
(404,-16,o),
(492,41,o),
(493,182,cs),
(493,341,l),
(520,341,l),
(520,373,l),
(275,373,ls),
(168,373,o),
(132,424,o),
(132,499,cs),
(132,573,o),
(167,634,o),
(275,634,cs),
(383,634,o),
(418,573,o),
(418,499,c),
(454,499,l),
(454,602,o),
(384,666,o),
(275,666,cs),
(166,666,o),
(96,602,o),
(96,501,cs),
(96,434,o),
(120,382,o),
(180,357,c),
(112,330,o),
(75,269,o),
(75,174,cs),
(75,42,o),
(157,-16,o),
(275,-16,cs)
);
},
{
closed = 1;
nodes = (
(163,16,o),
(111,68,o),
(111,172,cs),
(111,276,o),
(153,340,o),
(274,341,cs),
(457,341,l),
(457,182,ls),
(457,68,o),
(393,16,o),
(275,16,cs)
);
}
);
width = 600;
},
{
layerId = m002;
shapes = (
{
closed = 1;
nodes = (
(449,-12,o),
(533,57,o),
(533,198,cs),
(533,314,l),
(574,314,l),
(574,405,l),
(285,405,ls),
(230,405,o),
(198,440,o),
(198,485,cs),
(198,534,o),
(220,574,o),
(285,574,cs),
(350,574,o),
(372,534,o),
(372,485,cs),
(483,484,l),
(483,604,o),
(403,665,o),
(285,665,cs),
(167,665,o),
(87,601,o),
(87,490,cs),
(87,437,o),
(107,395,o),
(140,365,c),
(89,330,o),
(57,272,o),
(57,193,cs),
(57,52,o),
(147,-12,o),
(285,-12,cs)
);
},
{
closed = 1;
nodes = (
(210,79,o),
(168,124,o),
(168,198,cs),
(168,270,o),
(200,314,o),
(285,314,cs),
(422,314,l),
(422,198,ls),
(422,124,o),
(386,79,o),
(285,79,cs)
);
}
);
width = 600;
}
);
unicode = 38;
},
{
glyphname = copyright;
lastChange = "2025-09-26 10:33:25 +0000";
layers = (
{
layerId = m004;
shapes = (
{
closed = 1;
nodes = (
(554,-11,o),
(704,139,o),
(704,326,cs),
(704,512,o),
(554,662,o),
(368,662,cs),
(181,662,o),
(31,512,o),
(31,326,cs),
(31,139,o),
(181,-11,o),
(368,-11,cs)
);
},
{
closed = 1;
nodes = (
(199,23,o),
(65,157,o),
(65,326,cs),
(65,494,o),
(199,628,o),
(368,628,cs),
(536,628,o),
(670,494,o),
(670,326,cs),
(670,157,o),
(536,23,o),
(368,23,cs)
);
},
{
closed = 1;
nodes = (
(449,143,o),
(507,183,o),
(509,257,c),
(479,257,l),
(476,201,o),
(435,173,o),
(367,173,cs),
(309,173,o),
(249,218,o),
(249,325,cs),
(249,435,o),
(309,477,o),
(367,477,cs),
(435,477,o),
(476,449,o),
(479,393,c),
(509,393,l),
(507,467,o),
(449,507,o),
(367,507,cs),
(289,507,o),
(216,455,o),
(216,325,cs),
(216,198,o),
(288,143,o),
(367,143,cs)
);
}
);
width = 735;
},
{
layerId = m002;
shapes = (
{
closed = 1;
nodes = (
(554,-11,o),
(704,139,o),
(704,326,cs),
(704,512,o),
(554,662,o),
(368,662,cs),
(181,662,o),
(31,512,o),
(31,326,cs),
(31,139,o),
(181,-11,o),
(368,-11,cs)
);
},
{
closed = 1;
nodes = (
(218,55,o),
(97,176,o),
(97,326,cs),
(97,475,o),
(218,596,o),
(368,596,cs),
(517,596,o),
(638,475,o),
(638,326,cs),
(638,176,o),
(517,55,o),
(368,55,cs)
);
},
{
closed = 1;
nodes = (
(434,130,o),
(523,154,o),
(523,263,c),
(444,263,l),
(444,212,o),
(411,202,o),
(368,202,cs),
(312,202,o),
(283,239,o),
(283,325,cs),
(283,412,o),
(312,447,o),
(368,447,cs),
(411,447,o),
(444,430,o),
(444,388,c),
(523,388,l),
(523,488,o),
(434,521,o),
(368,521,cs),
(267,518,o),
(195,464,o),
(195,325,cs),
(195,186,o),
(267,130,o),
(368,130,cs)
);
}
);
width = 735;
}
);
metricRight = "=|";
unicode = 169;
},
{
glyphname = registered;
lastChange = "2025-09-12 09:42:28 +0000";
layers = (
{
layerId = m004;
shapes = (
{
closed = 1;
nodes = (
(339,266,o),
(427,354,o),
(427,464,cs),
(427,574,o),
(339,662,o),
(229,662,cs),
(119,662,o),
(31,574,o),
(31,464,cs),
(31,354,o),
(119,266,o),
(229,266,cs)
);
},
{
closed = 1;
nodes = (
(133,291,o),
(55,368,o),
(55,464,cs),
(55,560,o),
(133,638,o),
(229,638,cs),
(325,638,o),
(402,560,o),
(402,464,cs),
(402,368,o),
(325,291,o),
(229,291,cs)
);
},
{
closed = 1;
nodes = (
(190,380,l),
(190,457,l),
(235,457,l),
(271,380,l),
(294,380,l),
(257,459,l),
(278,463,o),
(290,478,o),
(290,508,cs),
(290,550,o),
(270,560,o),
(241,560,cs),
(169,560,l),
(169,380,l)
);
},
{
closed = 1;
nodes = (
(190,541,l),
(243,541,ls),
(259,541,o),
(271,534,o),
(271,508,cs),
(271,483,o),
(259,476,o),
(243,476,cs),
(190,476,l)
);
}
);
width = 458;
},
{
layerId = m002;
shapes = (
{
closed = 1;
nodes = (
(339,266,o),
(427,354,o),
(427,464,cs),
(427,574,o),
(339,662,o),
(229,662,cs),
(119,662,o),
(31,574,o),
(31,464,cs),
(31,354,o),
(119,266,o),
(229,266,cs)
);
},
{
closed = 1;
nodes = (
(140,304,o),
(68,375,o),
(68,464,cs),
(68,553,o),
(140,625,o),
(229,625,cs),
(318,625,o),
(389,553,o),
(389,464,cs),
(389,375,o),
(318,304,o),
(229,304,cs)
);
},
{
closed = 1;
nodes = (
(201,380,l),
(201,452,l),
(229,452,l),
(264,380,l),
(302,380,l),
(266,455,l),
(285,461,o),
(300,476,o),
(300,508,cs),
(300,557,o),
(268,566,o),
(239,566,cs),
(167,566,l),
(167,380,l)
);
},
{
closed = 1;
nodes = (
(201,537,l),
(239,537,ls),
(253,537,o),
(264,532,o),
(264,508,cs),
(264,485,o),
(253,480,o),
(239,480,cs),
(201,480,l)
);
}
);
width = 458;
}
);
metricRight = "=|";
unicode = 174;
},
{
glyphname = trademark;
lastChange = "2025-09-12 09:58:16 +0000";
layers = (
{
layerId = m004;
shapes = (
{
closed = 1;
nodes = (
(132,335,l),
(132,624,l),
(223,624,l),
(223,650,l),
(11,650,l),
(11,624,l),
(104,624,l),
(104,335,l)
);
},
{
closed = 1;
nodes = (
(290,334,l),
(290,637,l),
(270,636,l),
(405,334,l),
(411,334,l),
(546,636,l),
(526,637,l),
(526,334,l),
(553,334,l),
(553,650,l),
(526,650,l),
(393,353,l),
(423,353,l),
(290,650,l),
(264,650,l),
(264,334,l)
);
}
);
width = 764;
},
{
layerId = m002;
shapes = (
{
closed = 1;
nodes = (
(183,342,l),
(183,590,l),
(265,590,l),
(265,650,l),
(30,650,l),
(30,590,l),
(112,590,l),
(112,342,l)
);
},
{
closed = 1;
nodes = (
(374,341,l),
(374,582,l),
(346,548,l),
(448,341,l),
(499,341,l),
(600,548,l),
(572,582,l),
(572,341,l),
(633,341,l),
(633,650,l),
(578,650,l),
(447,372,l),
(502,372,l),
(368,650,l),
(313,650,l),
(313,341,l)
);
}
);
width = 810;
}
);
unicode = 8482;
},
{
glyphname = second;
lastChange = "2025-09-12 10:27:41 +0000";
layers = (
{
layerId = m004;
shapes = (
{
closed = 1;
nodes = (
(132,460,l),
(194,680,l),
(122,680,l),
(84,460,l)
);
},
{
closed = 1;
nodes = (
(246,460,l),
(308,680,l),
(236,680,l),
(198,460,l)
);
}
);
width = 392;
},
{
layerId = m002;
shapes = (
{
closed = 1;
nodes = (
(162,460,l),
(224,680,l),
(122,680,l),
(84,460,l)
);
},
{
closed = 1;
nodes = (
(306,460,l),
(368,680,l),
(266,680,l),
(228,460,l)
);
}
);
width = 452;
}
);
metricRight = "=|";
unicode = 8243;
},
{
glyphname = bar;
lastChange = "2025-09-11 19:26:44 +0000";
layers = (
{
layerId = m004;
shapes = (
{
closed = 1;
nodes = (
(84,680,l),
(84,-120,l),
(120,-120,l),
(120,680,l)
);
}
);
width = 204;
},
{
layerId = m002;
shapes = (
{
closed = 1;
nodes = (
(20,680,l),
(20,-118,l),
(102,-118,l),
(102,680,l)
);
}
);
width = 122;
}
);
metricRight = "=|";
unicode = 124;
},
{
glyphname = dollar;
lastChange = "2025-09-11 09:58:37 +0000";
layers = (
{
layerId = m004;
shapes = (
{
closed = 1;
nodes = (
(282,-82,l),
(282,732,l),
(245,732,l),
(245,-82,l)
);
},
{
ref = S;
}
);
width = 489;
},
{
background = {
shapes = (
{
closed = 1;
nodes = (
(402,-12,o),
(479,49,o),
(479,165,cs),
(479,268,o),
(425,311,o),
(291,381,cs),
(195,431,o),
(174,431,o),
(174,495,cs),
(174,552,o),
(198,567,o),
(261,567,cs),
(299,567,o),
(372,561,o),
(422,551,c),
(422,646,l),
(372,655,o),
(308,662,o),
(262,662,cs),
(165,662,o),
(74,624,o),
(74,496,cs),
(74,390,o),
(141,348,o),
(244,291,cs),
(364,225,o),
(379,220,o),
(379,165,cs),
(379,98,o),
(356,83,o),
(257,83,cs),
(220,83,o),
(147,85,o),
(97,95,c),
(97,0,l),
(147,-9,o),
(211,-12,o),
(257,-12,cs)
);
}
);
};
layerId = m002;
shapes = (
{
closed = 1;
nodes = (
(290,-82,l),
(290,732,l),
(232,732,l),
(232,-82,l)
);
},
{
ref = S;
}
);
width = 491;
}
);
metricLeft = "=S";
metricRight = "=S";
unicode = 36;
},
{
glyphname = euro;
lastChange = "2025-09-12 09:19:10 +0000";
layers = (
{
layerId = m004;
shapes = (
{
closed = 1;
nodes = (
(420,-12,o),
(513,73,o),
(513,200,c),
(477,200,l),
(477,99,o),
(408,20,o),
(299,20,cs),
(188,20,o),
(99,125,o),
(99,325,cs),
(99,525,o),
(188,630,o),
(299,630,cs),
(407,630,o),
(477,551,o),
(477,450,c),
(513,450,l),
(513,577,o),
(420,662,o),
(299,662,cs),
(175,662,o),
(60,567,o),
(60,325,cs),
(60,83,o),
(175,-12,o),
(299,-12,cs)
);
},
{
closed = 1;
nodes = (
(30,355,l),
(375,355,l),
(375,387,l),
(30,387,l)
);
},
{
closed = 1;
nodes = (
(30,266,l),
(375,266,l),
(375,298,l),
(30,298,l)
);
}
);
width = 600;
},
{
layerId = m002;
shapes = (
{
closed = 1;
nodes = (
(459,-10,o),
(596,44,o),
(596,203,c),
(493,203,l),
(493,109,o),
(430,78,o),
(359,78,cs),
(244,78,o),
(189,163,o),
(189,326,cs),
(189,489,o),
(244,574,o),
(359,574,cs),
(428,574,o),
(493,544,o),
(493,449,c),
(596,449,l),
(596,614,o),
(457,662,o),
(349,662,cs),
(194,662,o),
(89,563,o),
(89,326,cs),
(89,94,o),
(194,-10,o),
(349,-10,cs)
);
},
{
closed = 1;
nodes = (
(20,359,l),
(415,359,l),
(415,424,l),
(20,424,l)
);
},
{
closed = 1;
nodes = (
(20,229,l),
(415,229,l),
(415,294,l),
(20,294,l)
);
}
);
width = 654;
}
);
unicode = 8364;
},
{
glyphname = sterling;
lastChange = "2025-09-12 09:07:20 +0000";
layers = (
{
layerId = m004;
shapes = (
{
closed = 1;
nodes = (
(392,0,l),
(392,32,l),
(85,32,l),
(127,90,o),
(166,130,o),
(136,213,cs),
(113,277,o),
(77,361,o),
(77,460,cs),
(77,599,o),
(153,630,o),
(209,630,cs),
(271,630,o),
(347,599,o),
(347,450,c),
(385,450,l),
(385,599,o),
(311,662,o),
(209,662,cs),
(110,662,o),
(43,599,o),
(43,460,cs),
(43,346,o),
(96,222,o),
(106,193,cs),
(126,140,o),
(79,83,o),
(25,17,c),
(25,0,l)
);
},
{
closed = 1;
nodes = (
(25,310,l),
(359,310,l),
(359,342,l),
(25,342,l)
);
}
);
width = 432;
},
{
layerId = m002;
shapes = (
{
closed = 1;
nodes = (
(472,0,l),
(472,95,l),
(223,95,l),
(266,136,o),
(359,191,o),
(243,309,cs),
(195,358,o),
(174,400,o),
(174,446,cs),
(174,526,o),
(203,568,o),
(269,567,cs),
(328,566,o),
(366,526,o),
(366,450,c),
(469,450,l),
(469,609,o),
(381,662,o),
(269,662,cs),
(160,662,o),
(63,609,o),
(63,450,cs),
(63,358,o),
(99,309,o),
(151,254,cs),
(240,159,o),
(107,127,o),
(45,66,c),
(45,0,l)
);
},
{
closed = 1;
nodes = (
(20,285,l),
(400,285,l),
(400,368,l),
(20,368,l)
);
}
);
width = 492;
}
);
unicode = 163;
},
{
glyphname = plus;
lastChange = "2025-09-11 19:26:58 +0000";
layers = (
{
layerId = m004;
shapes = (
{
closed = 1;
nodes = (
(95,321,l),
(465,321,l),
(465,357,l),
(95,357,l)
);
},
{
closed = 1;
nodes = (
(262,524,l),
(262,154,l),
(298,154,l),
(298,524,l)
);
}
);
width = 560;
},
{
layerId = m002;
shapes = (
{
closed = 1;
nodes = (
(65,296,l),
(475,296,l),
(475,382,l),
(65,382,l)
);
},
{
closed = 1;
nodes = (
(227,544,l),
(227,134,l),
(313,134,l),
(313,544,l)
);
}
);
width = 540;
}
);
metricRight = "=|";
unicode = 43;
},
{
glyphname = minus;
lastChange = "2025-09-11 19:27:15 +0000";
layers = (
{
layerId = m004;
shapes = (
{
closed = 1;
nodes = (
(95,321,l),
(465,321,l),
(465,357,l),
(95,357,l)
);
}
);
width = 560;
},
{
layerId = m002;
shapes = (
{
closed = 1;
nodes = (
(65,296,l),
(475,296,l),
(475,382,l),
(65,382,l)
);
}
);
width = 540;
}
);
metricRight = "=|";
unicode = 8722;
},
{
glyphname = multiply;
lastChange = "2025-09-12 09:58:26 +0000";
layers = (
{
layerId = m004;
shapes = (
{
closed = 1;
nodes = (
(424,221,l),
(162,483,l),
(136,457,l),
(398,195,l)
);
},
{
closed = 1;
nodes = (
(424,457,l),
(398,483,l),
(136,221,l),
(162,195,l)
);
}
);
width = 560;
},
{
layerId = m002;
shapes = (
{
closed = 1;
nodes = (
(444,223,l),
(154,513,l),
(96,455,l),
(386,165,l)
);
},
{
closed = 1;
nodes = (
(444,455,l),
(386,513,l),
(96,223,l),
(154,165,l)
);
}
);
width = 540;
}
);
metricRight = "=|";
unicode = 215;
},
{
glyphname = divide;
lastChange = "2025-09-12 09:57:02 +0000";
layers = (
{
layerId = m004;
shapes = (
{
closed = 1;
nodes = (
(465,321,l),
(465,357,l),
(95,357,l),
(95,321,l)
);
},
{
closed = 1;
nodes = (
(293,458,l),
(293,502,l),
(247,502,l),
(247,458,l)
);
},
{
closed = 1;
nodes = (
(293,176,l),
(293,220,l),
(247,220,l),
(247,176,l)
);
}
);
width = 560;
},
{
layerId = m002;
shapes = (
{
closed = 1;
nodes = (
(475,296,l),
(475,382,l),
(65,382,l),
(65,296,l)
);
},
{
closed = 1;
nodes = (
(313,458,l),
(313,544,l),
(227,544,l),
(227,458,l)
);
},
{
closed = 1;
nodes = (
(313,134,l),
(313,220,l),
(227,220,l),
(227,134,l)
);
}
);
width = 540;
}
);
metricRight = "=|";
unicode = 247;
},
{
glyphname = equal;
lastChange = "2025-09-10 08:51:20 +0000";
layers = (
{
layerId = m004;
shapes = (
{
closed = 1;
nodes = (
(95,411,l),
(465,411,l),
(465,447,l),
(95,447,l)
);
},
{
closed = 1;
nodes = (
(95,231,l),
(465,231,l),
(465,267,l),
(95,267,l)
);
}
);
width = 560;
},
{
layerId = m002;
shapes = (
{
closed = 1;
nodes = (
(95,386,l),
(465,386,l),
(465,472,l),
(95,472,l)
);
},
{
closed = 1;
nodes = (
(95,206,l),
(465,206,l),
(465,292,l),
(95,292,l)
);
}
);
width = 560;
}
);
metricRight = "=|";
unicode = 61;
},
{
glyphname = greater;
lastChange = "2025-09-12 19:37:01 +0000";
layers = (
{
layerId = m004;
shapes = (
{
closed = 1;
nodes = (
(140,559,l),
(540,325,l),
(540,361,l),
(140,596,l)
);
},
{
closed = 1;
nodes = (
(140,110,l),
(540,325,l),
(540,361,l),
(140,147,l)
);
}
);
width = 570;
},
{
layerId = m002;
shapes = (
{
closed = 1;
nodes = (
(70,486,l),
(500,296,l),
(500,382,l),
(70,582,l)
);
},
{
closed = 1;
nodes = (
(70,96,l),
(500,296,l),
(500,382,l),
(70,192,l)
);
}
);
width = 530;
}
);
unicode = 62;
},
{
glyphname = less;
lastChange = "2025-09-12 19:37:35 +0000";
layers = (
{
layerId = m004;
shapes = (
{
closed = 1;
nodes = (
(30,371,l),
(30,335,l),
(430,569,l),
(430,606,l)
);
},
{
closed = 1;
nodes = (
(30,371,l),
(30,335,l),
(430,120,l),
(430,157,l)
);
}
);
width = 570;
},
{
layerId = m002;
shapes = (
{
closed = 1;
nodes = (
(30,382,l),
(30,296,l),
(460,486,l),
(460,582,l)
);
},
{
closed = 1;
nodes = (
(30,382,l),
(30,296,l),
(460,96,l),
(460,192,l)
);
}
);
width = 530;
}
);
unicode = 60;
},
{
glyphname = percent;
lastChange = "2025-09-12 09:42:33 +0000";
layers = (
{
layerId = m004;
shapes = (
{
closed = 1;
nodes = (
(33,2,l),
(77,2,l),
(552,650,l),
(508,650,l)
);
},
{
closed = 1;
nodes = (
(380,235,o),
(410,254,o),
(447,254,cs),
(478,254,o),
(508,235,o),
(508,142,cs),
(508,48,o),
(478,29,o),
(447,29,cs),
(410,29,o),
(380,48,o),
(380,142,cs)
);
},
{
closed = 1;
nodes = (
(83,594,o),
(113,613,o),
(150,613,cs),
(181,613,o),
(211,594,o),
(211,501,cs),
(211,407,o),
(181,388,o),
(150,388,cs),
(113,388,o),
(83,407,o),
(83,501,cs)
);
},
{
closed = 1;
nodes = (
(44,381,o),
(93,351,o),
(149,351,cs),
(201,351,o),
(249,381,o),
(249,501,cs),
(249,620,o),
(201,650,o),
(149,650,cs),
(93,650,o),
(44,620,o),
(44,501,cs)
);
},
{
closed = 1;
nodes = (
(341,22,o),
(390,-8,o),
(446,-8,cs),
(498,-8,o),
(546,22,o),
(546,142,cs),
(546,261,o),
(498,291,o),
(446,291,cs),
(390,291,o),
(341,261,o),
(341,142,cs)
);
}
);
width = 585;
},
{
layerId = m002;
shapes = (
{
closed = 1;
nodes = (
(20,2,l),
(127,2,l),
(565,650,l),
(458,650,l)
);
},
{
closed = 1;
nodes = (
(399,216,o),
(419,231,o),
(446,231,cs),
(469,231,o),
(489,216,o),
(489,142,cs),
(489,67,o),
(469,52,o),
(446,52,cs),
(419,52,o),
(399,67,o),
(399,142,cs)
);
},
{
closed = 1;
nodes = (
(105,569,o),
(123,584,o),
(149,584,cs),
(171,584,o),
(189,569,o),
(189,501,cs),
(189,432,o),
(171,417,o),
(149,417,cs),
(123,417,o),
(105,432,o),
(105,501,cs)
);
},
{
closed = 1;
nodes = (
(34,381,o),
(93,351,o),
(149,351,cs),
(201,351,o),
(259,381,o),
(259,501,cs),
(259,620,o),
(201,650,o),
(149,650,cs),
(93,650,o),
(34,620,o),
(34,501,cs)
);
},
{
closed = 1;
nodes = (
(331,22,o),
(390,-8,o),
(446,-8,cs),
(498,-8,o),
(556,22,o),
(556,142,cs),
(556,261,o),
(498,291,o),
(446,291,cs),
(390,291,o),
(331,261,o),
(331,142,cs)
);
}
);
width = 585;
}
);
metricRight = "=|";
unicode = 37;
},
{
glyphname = upArrow;
lastChange = "2025-09-12 19:36:38 +0000";
layers = (
{
layerId = m004;
shapes = (
{
closed = 1;
nodes = (
(292,510,l),
(257,497,l),
(257,-51,l),
(290,-51,l),
(290,497,l),
(255,510,l),
(498,316,l),
(498,359,l),
(274,532,l),
(50,359,l),
(50,316,l)
);
}
);
width = 548;
},
{
layerId = m002;
shapes = (
{
closed = 1;
nodes = (
(279,409,l),
(223,447,l),
(223,-70,l),
(325,-70,l),
(325,447,l),
(269,409,l),
(498,236,l),
(498,350,l),
(274,523,l),
(50,350,l),
(50,236,l)
);
}
);
width = 548;
}
);
unicode = 8593;
},
{
glyphname = rightArrow;
lastChange = "2025-09-12 19:36:22 +0000";
layers = (
{
layerId = m004;
shapes = (
{
closed = 1;
nodes = (
(612,206,l),
(599,241,l),
(51,241,l),
(51,208,l),
(599,208,l),
(612,243,l),
(418,0,l),
(461,0,l),
(634,224,l),
(461,448,l),
(418,448,l)
);
}
);
width = 683;
},
{
layerId = m002;
shapes = (
{
closed = 1;
nodes = (
(524,222,l),
(562,278,l),
(45,278,l),
(45,176,l),
(562,176,l),
(524,232,l),
(351,3,l),
(465,3,l),
(638,227,l),
(465,451,l),
(351,451,l)
);
}
);
width = 683;
}
);
unicode = 8594;
},
{
glyphname = downArrow;
lastChange = "2025-09-12 19:35:59 +0000";
layers = (
{
layerId = m004;
shapes = (
{
closed = 1;
nodes = (
(254,-40,l),
(289,-27,l),
(289,521,l),
(256,521,l),
(256,-27,l),
(291,-40,l),
(48,154,l),
(48,111,l),
(272,-62,l),
(496,111,l),
(496,154,l)
);
}
);
width = 548;
},
{
layerId = m002;
shapes = (
{
closed = 1;
nodes = (
(269,45,l),
(325,7,l),
(325,524,l),
(223,524,l),
(223,7,l),
(279,45,l),
(50,218,l),
(50,104,l),
(274,-69,l),
(498,104,l),
(498,218,l)
);
}
);
width = 548;
}
);
unicode = 8595;
},
{
glyphname = leftArrow;
lastChange = "2025-09-12 19:34:27 +0000";
layers = (
{
layerId = m004;
shapes = (
{
closed = 1;
nodes = (
(72,244,l),
(85,209,l),
(633,209,l),
(633,242,l),
(85,242,l),
(72,207,l),
(266,450,l),
(223,450,l),
(50,226,l),
(223,2,l),
(266,2,l)
);
}
);
width = 683;
},
{
layerId = m002;
shapes = (
{
closed = 1;
nodes = (
(154,231,l),
(116,175,l),
(633,175,l),
(633,277,l),
(116,277,l),
(154,221,l),
(327,450,l),
(213,450,l),
(40,226,l),
(213,2,l),
(327,2,l)
);
}
);
width = 683;
}
);
unicode = 8592;
},
{
glyphname = dieresiscomb;
lastChange = "2025-09-10 08:51:20 +0000";
layers = (
{
anchors = (
{
name = _top;
pos = (146,450);
},
{
name = top;
pos = (146,642);
}
);
layerId = m004;
shapes = (
{
closed = 1;
nodes = (
(83,534,o),
(90,542,o),
(90,564,cs),
(90,585,o),
(83,592,o),
(61,592,cs),
(39,592,o),
(32,585,o),
(32,564,cs),
(32,542,o),
(39,534,o),
(61,534,cs)
);
},
{
closed = 1;
nodes = (
(254,534,o),
(260,541,o),
(260,564,cs),
(260,585,o),
(254,592,o),
(231,592,cs),
(208,592,o),
(202,585,o),
(202,564,cs),
(202,541,o),
(208,534,o),
(231,534,cs)
);
}
);
width = 300;
},
{
anchors = (
{
name = _top;
pos = (146,450);
},
{
name = top;
pos = (146,670);
}
);
layerId = m002;
shapes = (
{
closed = 1;
nodes = (
(102,561,o),
(113,574,o),
(113,614,cs),
(113,653,o),
(102,665,o),
(61,665,cs),
(20,665,o),
(9,653,o),
(9,614,cs),
(9,574,o),
(20,561,o),
(61,561,cs)
);
},
{
closed = 1;
nodes = (
(272,561,o),
(283,574,o),
(283,614,cs),
(283,653,o),
(272,665,o),
(231,665,cs),
(190,665,o),
(179,653,o),
(179,614,cs),
(179,574,o),
(190,561,o),
(231,561,cs)
);
}
);
width = 300;
}
);
unicode = 776;
},
{
glyphname = dotaccentcomb;
lastChange = "2025-09-10 08:51:20 +0000";
layers = (
{
anchors = (
{
name = _top;
pos = (61,450);
},
{
name = top;
pos = (61,592);
}
);
layerId = m004;
shapes = (
{
closed = 1;
nodes = (
(84,534,o),
(90,541,o),
(90,564,cs),
(90,585,o),
(84,592,o),
(61,592,cs),
(38,592,o),
(32,585,o),
(32,564,cs),
(32,541,o),
(38,534,o),
(61,534,cs)
);
}
);
width = 300;
},
{
anchors = (
{
name = _top;
pos = (61,450);
},
{
name = top;
pos = (61,670);
}
);
layerId = m002;
shapes = (
{
closed = 1;
nodes = (
(106,556,o),
(118,570,o),
(118,614,cs),
(118,657,o),
(106,670,o),
(61,670,cs),
(16,670,o),
(4,657,o),
(4,614,cs),
(4,570,o),
(16,556,o),
(61,556,cs)
);
}
);
width = 300;
}
);
unicode = 775;
},
{
glyphname = gravecomb;
lastChange = "2025-09-10 08:51:20 +0000";
layers = (
{
anchors = (
{
name = _top;
pos = (166,450);
},
{
name = top;
pos = (166,650);
}
);
layerId = m004;
shapes = (
{
closed = 1;
nodes = (
(102,650,l),
(195,532,l),
(229,532,l),
(157,650,l)
);
}
);
width = 300;
},
{
anchors = (
{
name = _top;
pos = (171,450);
},
{
name = top;
pos = (171,650);
}
);
layerId = m002;
shapes = (
{
closed = 1;
nodes = (
(82,650,l),
(185,502,l),
(249,502,l),
(177,650,l)
);
}
);
width = 300;
}
);
unicode = 768;
},
{
glyphname = acutecomb;
lastChange = "2025-09-11 10:41:55 +0000";
layers = (
{
anchors = (
{
name = _top;
pos = (166,450);
},
{
name = top;
pos = (166,650);
}
);
layerId = m004;
shapes = (
{
closed = 1;
nodes = (
(102,532,l),
(136,532,l),
(229,650,l),
(174,650,l)
);
}
);
width = 300;
},
{
anchors = (
{
name = _top;
pos = (101,450);
},
{
name = top;
pos = (161,650);
}
);
layerId = m002;
shapes = (
{
closed = 1;
nodes = (
(92,502,l),
(156,502,l),
(259,650,l),
(164,650,l)
);
}
);
width = 300;
}
);
unicode = 769;
},
{
glyphname = hungarumlautcomb;
lastChange = "2025-09-10 08:51:20 +0000";
layers = (
{
anchors = (
{
name = _top;
pos = (196,450);
},
{
name = top;
pos = (196,650);
}
);
layerId = m004;
shapes = (
{
closed = 1;
nodes = (
(52,532,l),
(86,532,l),
(179,650,l),
(124,650,l)
);
},
{
closed = 1;
nodes = (
(152,532,l),
(186,532,l),
(279,650,l),
(224,650,l)
);
}
);
width = 300;
},
{
anchors = (
{
name = _top;
pos = (136,450);
},
{
name = top;
pos = (136,640);
}
);
layerId = m002;
shapes = (
{
closed = 1;
nodes = (
(32,502,l),
(86,502,l),
(189,640,l),
(104,640,l)
);
},
{
closed = 1;
nodes = (
(163,502,l),
(217,502,l),
(320,640,l),
(235,640,l)
);
}
);
width = 300;
}
);
unicode = 779;
},
{
glyphname = circumflexcomb;
lastChange = "2025-09-10 08:51:20 +0000";
layers = (
{
anchors = (
{
name = _top;
pos = (122,450);
},
{
name = top;
pos = (122,650);
}
);
layerId = m004;
shapes = (
{
closed = 1;
nodes = (
(7,532,l),
(46,532,l),
(144,650,l),
(99,650,l)
);
},
{
closed = 1;
nodes = (
(99,650,l),
(197,532,l),
(236,532,l),
(144,650,l)
);
}
);
width = 300;
},
{
anchors = (
{
name = _top;
pos = (154,450);
},
{
name = top;
pos = (154,640);
}
);
layerId = m002;
shapes = (
{
closed = 1;
nodes = (
(186,640,l),
(122,640,l),
(19,502,l),
(84,502,l)
);
},
{
closed = 1;
nodes = (
(289,502,l),
(186,640,l),
(122,640,l),
(224,502,l)
);
}
);
width = 300;
}
);
unicode = 770;
},
{
glyphname = caroncomb;
lastChange = "2025-09-12 09:50:46 +0000";
layers = (
{
anchors = (
{
name = _top;
pos = (122,450);
},
{
name = top;
pos = (122,650);
}
);
layerId = m004;
shapes = (
{
closed = 1;
nodes = (
(99,532,l),
(144,532,l),
(46,650,l),
(7,650,l)
);
},
{
closed = 1;
nodes = (
(99,532,l),
(144,532,l),
(236,650,l),
(197,650,l)
);
}
);
width = 300;
},
{
anchors = (
{
name = _top;
pos = (154,450);
},
{
name = top;
pos = (154,640);
}
);
layerId = m002;
shapes = (
{
closed = 1;
nodes = (
(122,502,l),
(186,502,l),
(84,640,l),
(19,640,l)
);
},
{
closed = 1;
nodes = (
(122,502,l),
(186,502,l),
(289,640,l),
(224,640,l)
);
}
);
width = 300;
}
);
unicode = 780;
},
{
glyphname = ringcomb;
lastChange = "2025-09-10 08:51:20 +0000";
layers = (
{
anchors = (
{
name = _top;
pos = (106,450);
},
{
name = top;
pos = (106,639);
}
);
layerId = m004;
shapes = (
{
closed = 1;
nodes = (
(147,519,o),
(166,538,o),
(166,579,cs),
(166,620,o),
(147,639,o),
(106,639,cs),
(65,639,o),
(46,620,o),
(46,579,cs),
(46,538,o),
(65,519,o),
(106,519,cs)
);
},
{
closed = 1;
nodes = (
(83,551,o),
(78,556,o),
(78,579,cs),
(78,602,o),
(83,607,o),
(106,607,cs),
(129,607,o),
(134,602,o),
(134,579,cs),
(134,556,o),
(129,551,o),
(106,551,cs)
);
}
);
width = 300;
},
{
anchors = (
{
name = _top;
pos = (107,450);
},
{
name = top;
pos = (106,690);
}
);
layerId = m002;
shapes = (
{
closed = 1;
nodes = (
(155,508,o),
(177,530,o),
(177,579,cs),
(177,628,o),
(155,650,o),
(106,650,cs),
(57,650,o),
(35,628,o),
(35,579,cs),
(35,530,o),
(57,508,o),
(106,508,cs)
);
},
{
closed = 1;
nodes = (
(82,549,o),
(76,555,o),
(76,579,cs),
(76,603,o),
(82,609,o),
(106,609,cs),
(130,609,o),
(136,603,o),
(136,579,cs),
(136,555,o),
(130,549,o),
(106,549,cs)
);
}
);
width = 300;
}
);
unicode = 778;
},
{
glyphname = tildecomb;
lastChange = "2025-09-10 13:10:41 +0000";
layers = (
{
anchors = (
{
name = _top;
pos = (159,450);
},
{
name = top;
}
);
layerId = m004;
shapes = (
{
closed = 1;
nodes = (
(73,554,l),
(73,578,o),
(80,591,o),
(103,591,cs),
(138,591,o),
(165,554,o),
(202,554,cs),
(230,554,o),
(261,571,o),
(261,621,c),
(232,621,l),
(232,597,o),
(225,584,o),
(202,584,cs),
(167,584,o),
(140,621,o),
(103,621,cs),
(75,621,o),
(44,604,o),
(44,554,c)
);
}
);
width = 300;
},
{
anchors = (
{
name = _top;
pos = (145,450);
},
{
name = top;
}
);
background = {
shapes = (
{
closed = 1;
nodes = (
(134,608,o),
(160,557,o),
(211,557,cs),
(265,557,o),
(275,624,o),
(275,659,c),
(225,659,l),
(225,634,o),
(225,610,o),
(201,610,cs),
(173,610,o),
(147,661,o),
(96,661,cs),
(42,661,o),
(32,594,o),
(32,559,c),
(82,559,l),
(82,584,o),
(82,608,o),
(106,608,cs)
);
}
);
};
layerId = m002;
shapes = (
{
closed = 1;
nodes = (
(83,525,l),
(89,553,o),
(104,559,o),
(116,559,cs),
(143,559,o),
(159,525,o),
(201,525,cs),
(259,525,o),
(290,575,o),
(290,636,c),
(232,636,l),
(226,608,o),
(211,601,o),
(199,601,cs),
(172,601,o),
(156,635,o),
(114,635,cs),
(56,635,o),
(24,585,o),
(24,525,c)
);
}
);
width = 300;
}
);
unicode = 771;
},
{
glyphname = cedillacomb;
lastChange = "2025-09-10 08:51:20 +0000";
layers = (
{
anchors = (
{
name = _bottom;
pos = (183,-5);
},
{
name = bottom;
}
);
layerId = m004;
shapes = (
{
closed = 1;
nodes = (
(277,-197,o),
(320,-176,o),
(320,-119,cs),
(320,-63,o),
(277,-41,o),
(238,-41,cs),
(218,-41,o),
(209,-47,o),
(194,-51,c),
(194,-66,l),
(214,-61,o),
(233,-61,o),
(243,-61,cs),
(268,-62,o),
(295,-78,o),
(295,-119,cs),
(295,-160,o),
(268,-177,o),
(243,-178,cs),
(233,-178,o),
(214,-178,o),
(194,-173,c),
(194,-193,l),
(209,-198,o),
(227,-198,o),
(238,-198,cs)
);
},
{
closed = 1;
nodes = (
(194,-51,l),
(221,-51,l),
(245,-10,l),
(218,-10,l)
);
}
);
width = 300;
},
{
anchors = (
{
name = _bottom;
pos = (192,0);
},
{
name = bottom;
pos = (192,-188);
}
);
layerId = m002;
shapes = (
{
closed = 1;
nodes = (
(277,-197,o),
(320,-176,o),
(320,-119,cs),
(320,-63,o),
(277,-41,o),
(238,-41,cs),
(227,-41,o),
(209,-41,o),
(194,-45,c),
(194,-82,l),
(209,-78,o),
(224,-78,o),
(231,-78,cs),
(250,-79,o),
(271,-90,o),
(271,-119,cs),
(271,-148,o),
(250,-160,o),
(231,-161,cs),
(224,-161,o),
(209,-161,o),
(194,-157,c),
(194,-193,l),
(209,-198,o),
(227,-198,o),
(238,-198,cs)
);
},
{
closed = 1;
nodes = (
(194,-45,l),
(245,-45,l),
(269,-10,l),
(218,-10,l)
);
}
);
width = 300;
}
);
unicode = 807;
},
{
glyphname = ogonek;
lastChange = "2025-09-11 09:58:41 +0000";
layers = (
{
layerId = m004;
shapes = (
{
closed = 1;
nodes = (
(-82,-113,o),
(-42,-142,o),
(4,-142,c),
(4,-110,l),
(-24,-110,o),
(-48,-92,o),
(-48,-61,cs),
(-48,-30,o),
(-24,0,o),
(6,0,c),
(6,14,l),
(-46,14,o),
(-82,-19,o),
(-82,-61,cs)
);
}
